0
SECTION
2
HEADER
9
$INSUNITS
70
4
0
ENDSEC
0
SECTION
2
TABLES
0
TABLE
2
LTYPE
0
LTYPE
72
65
70
64
2
CONTINUOUS
3
______
73
0
40
0
0
ENDTAB
0
TABLE
2
LAYER
0
ENDTAB
0
ENDSEC
0
SECTION
2
ENTITIES
0
LINE
8
0
10
91.5579816
20
-109.710639
11
82.8205703
21
-60.1583174
0
LINE
8
0
10
83.650358
20
-58.1676122
11
103.3538583
21
-44.5017504
0
LINE
8
0
10
103.9207117
20
-44.2289911
11
125.6675105
21
-37.7262418
0
LINE
8
0
10
126.2404848
20
-37.6424099
11
145.7552243
21
-37.6424099
0
LINE
8
0
10
146.1369637
20
-37.6791791
11
181.7587662
21
-44.6056408
0
LINE
8
0
10
182.1405056
20
-44.64241
11
201.947865
21
-44.64241
0
LINE
8
0
10
203.947865
20
-46.64241
11
203.947865
21
-110.591861
0
LINE
8
0
10
203.666111
20
-111.6153994
11
191.9722094
21
-131.2463193
0
LINE
8
0
10
189.2705096
20
-131.96428
11
174.8691809
21
-123.8316071
0
LINE
8
0
10
174.4033652
20
-123.6412544
11
155.6059699
21
-118.6045075
0
LINE
8
0
10
155.0440099
20
-118.5368504
11
136.9435151
21
-118.9380731
0
LINE
8
0
10
136.5550851
20
-118.9087393
11
93.1834891
21
-111.3335177
0
ARC
8
0
10
84.7901858
20
-59.811021
40
2
50
124.7442225
51
190.0000008
0
ARC
8
0
10
104.4936861
20
-46.1451592
40
2
50
106.6477657
51
124.7442225
0
ARC
8
0
10
126.2404848
20
-39.6424099
40
2
50
90
51
106.6477657
0
ARC
8
0
10
145.7552243
20
-39.6424099
40
2
50
78.996457
51
90
0
ARC
8
0
10
182.1405056
20
-42.64241
40
2
50
258.996457
51
270
0
ARC
8
0
10
201.947865
20
-46.64241
40
2
50
0
51
90
0
ARC
8
0
10
201.947865
20
-110.591861
40
2
50
329.2182535
51
0
0
ARC
8
0
10
190.2539634
20
-130.222781
40
2
50
240.5458516
51
329.2182535
0
ARC
8
0
10
173.8857271
20
-125.5731061
40
2
50
60.5458516
51
75.0000021
0
ARC
8
0
10
155.0883319
20
-120.5363592
40
2
50
75.0000021
51
91.2698357
0
ARC
8
0
10
136.8991931
20
-116.9385643
40
2
50
260.0927353
51
271.2698357
0
ARC
8
0
10
93.5275971
20
-109.3633427
40
2
50
190.0000008
51
260.0927353
0
LINE
8
0
10
92.8155296
20
-109.6440855
11
110.0496653
21
-106.6052424
0
LINE
8
0
10
110.0496653
20
-106.6052424
11
107.1844704
21
-90.3559145
0
LINE
8
0
10
107.1844704
20
-90.3559145
11
89.9503347
21
-93.3947576
0
LINE
8
0
10
89.9503347
20
-93.3947576
11
92.8155296
21
-109.6440855
0
LINE
8
0
10
89.8635106
20
-92.9023537
11
107.0976463
21
-89.8635106
0
LINE
8
0
10
107.0976463
20
-89.8635106
11
104.2324514
21
-73.6141827
0
LINE
8
0
10
104.2324514
20
-73.6141827
11
86.9983157
21
-76.6530258
0
LINE
8
0
10
86.9983157
20
-76.6530258
11
89.8635106
21
-92.9023537
0
LINE
8
0
10
86.9114916
20
-76.1606219
11
104.1456273
21
-73.1217788
0
LINE
8
0
10
104.1456273
20
-73.1217788
11
101.2804324
21
-56.8724509
0
LINE
8
0
10
101.2804324
20
-56.8724509
11
84.0462967
21
-59.911294
0
LINE
8
0
10
84.0462967
20
-59.911294
11
86.9114916
21
-76.1606219
0
LINE
8
0
10
109.3711199
20
-95.7643668
11
126.8045271
21
-94.2391413
0
LINE
8
0
10
126.8045271
20
-94.2391413
11
125.3664573
21
-77.8019288
0
LINE
8
0
10
125.3664573
20
-77.8019288
11
107.9330501
21
-79.3271543
0
LINE
8
0
10
107.9330501
20
-79.3271543
11
109.3711199
21
-95.7643668
0
LINE
8
0
10
107.8894723
20
-78.8290569
11
125.3228795
21
-77.3038314
0
LINE
8
0
10
125.3228795
20
-77.3038314
11
123.8848097
21
-60.8666189
0
LINE
8
0
10
123.8848097
20
-60.8666189
11
106.4514025
21
-62.3918444
0
LINE
8
0
10
106.4514025
20
-62.3918444
11
107.8894723
21
-78.8290569
0
LINE
8
0
10
106.4078247
20
-61.893747
11
123.8412319
21
-60.3685215
0
LINE
8
0
10
123.8412319
20
-60.3685215
11
122.4031621
21
-43.931309
0
LINE
8
0
10
122.4031621
20
-43.931309
11
104.9697549
21
-45.4565345
0
LINE
8
0
10
104.9697549
20
-45.4565345
11
106.4078247
21
-61.893747
0
LINE
8
0
10
127.1978649
20
-89.3924099
11
144.6978649
21
-89.3924099
0
LINE
8
0
10
144.6978649
20
-89.3924099
11
144.6978649
21
-72.8924099
0
LINE
8
0
10
144.6978649
20
-72.8924099
11
127.1978649
21
-72.8924099
0
LINE
8
0
10
127.1978649
20
-72.8924099
11
127.1978649
21
-89.3924099
0
LINE
8
0
10
127.1978649
20
-72.3924099
11
144.6978649
21
-72.3924099
0
LINE
8
0
10
144.6978649
20
-72.3924099
11
144.6978649
21
-55.8924099
0
LINE
8
0
10
144.6978649
20
-55.8924099
11
127.1978649
21
-55.8924099
0
LINE
8
0
10
127.1978649
20
-55.8924099
11
127.1978649
21
-72.3924099
0
LINE
8
0
10
127.1978649
20
-55.3924099
11
144.6978649
21
-55.3924099
0
LINE
8
0
10
144.6978649
20
-55.3924099
11
144.6978649
21
-38.8924099
0
LINE
8
0
10
144.6978649
20
-38.8924099
11
127.1978649
21
-38.8924099
0
LINE
8
0
10
127.1978649
20
-38.8924099
11
127.1978649
21
-55.3924099
0
LINE
8
0
10
145.1978649
20
-94.3924099
11
162.6978649
21
-94.3924099
0
LINE
8
0
10
162.6978649
20
-94.3924099
11
162.6978649
21
-77.8924099
0
LINE
8
0
10
162.6978649
20
-77.8924099
11
145.1978649
21
-77.8924099
0
LINE
8
0
10
145.1978649
20
-77.8924099
11
145.1978649
21
-94.3924099
0
LINE
8
0
10
145.1978649
20
-77.3924099
11
162.6978649
21
-77.3924099
0
LINE
8
0
10
162.6978649
20
-77.3924099
11
162.6978649
21
-60.8924099
0
LINE
8
0
10
162.6978649
20
-60.8924099
11
145.1978649
21
-60.8924099
0
LINE
8
0
10
145.1978649
20
-60.8924099
11
145.1978649
21
-77.3924099
0
LINE
8
0
10
145.1978649
20
-60.3924099
11
162.6978649
21
-60.3924099
0
LINE
8
0
10
162.6978649
20
-60.3924099
11
162.6978649
21
-43.8924099
0
LINE
8
0
10
162.6978649
20
-43.8924099
11
145.1978649
21
-43.8924099
0
LINE
8
0
10
145.1978649
20
-43.8924099
11
145.1978649
21
-60.3924099
0
LINE
8
0
10
163.197865
20
-96.39241
11
180.697865
21
-96.39241
0
LINE
8
0
10
180.697865
20
-96.39241
11
180.697865
21
-79.89241
0
LINE
8
0
10
180.697865
20
-79.89241
11
163.197865
21
-79.89241
0
LINE
8
0
10
163.197865
20
-79.89241
11
163.197865
21
-96.39241
0
LINE
8
0
10
163.197865
20
-79.39241
11
180.697865
21
-79.39241
0
LINE
8
0
10
180.697865
20
-79.39241
11
180.697865
21
-62.89241
0
LINE
8
0
10
180.697865
20
-62.89241
11
163.197865
21
-62.89241
0
LINE
8
0
10
163.197865
20
-62.89241
11
163.197865
21
-79.39241
0
LINE
8
0
10
163.197865
20
-62.39241
11
180.697865
21
-62.39241
0
LINE
8
0
10
180.697865
20
-62.39241
11
180.697865
21
-45.89241
0
LINE
8
0
10
180.697865
20
-45.89241
11
163.197865
21
-45.89241
0
LINE
8
0
10
163.197865
20
-45.89241
11
163.197865
21
-62.39241
0
LINE
8
0
10
137.997865
20
-117.69241
11
155.497865
21
-117.69241
0
LINE
8
0
10
155.497865
20
-117.69241
11
155.497865
21
-101.19241
0
LINE
8
0
10
155.497865
20
-101.19241
11
137.997865
21
-101.19241
0
LINE
8
0
10
137.997865
20
-101.19241
11
137.997865
21
-117.69241
0
LINE
8
0
10
156.8607569
20
-117.6466314
11
173.7644589
21
-122.1759647
0
LINE
8
0
10
173.7644589
20
-122.1759647
11
178.0349731
21
-106.2381886
0
LINE
8
0
10
178.0349731
20
-106.2381886
11
161.1312711
21
-101.7088553
0
LINE
8
0
10
161.1312711
20
-101.7088553
11
156.8607569
21
-117.6466314
0
LINE
8
0
10
175.3591405
20
-122.4676745
11
190.5145851
21
-131.2176745
0
LINE
8
0
10
190.5145851
20
-131.2176745
11
198.7645851
21
-116.9282553
0
LINE
8
0
10
198.7645851
20
-116.9282553
11
183.6091405
21
-108.1782553
0
LINE
8
0
10
183.6091405
20
-108.1782553
11
175.3591405
21
-122.4676745
0
ENDSEC
0
EOF