0
SECTION
2
HEADER
9
$INSUNITS
70
4
0
ENDSEC
0
SECTION
2
TABLES
0
TABLE
2
LTYPE
0
LTYPE
72
65
70
64
2
CONTINUOUS
3
______
73
0
40
0
0
ENDTAB
0
TABLE
2
LAYER
0
ENDTAB
0
ENDSEC
0
SECTION
2
ENTITIES
0
LINE
8
0
10
92.8155296
20
-109.6440855
11
110.0496653
21
-106.6052424
0
LINE
8
0
10
110.0496653
20
-106.6052424
11
107.1844704
21
-90.3559145
0
LINE
8
0
10
107.1844704
20
-90.3559145
11
89.9503347
21
-93.3947576
0
LINE
8
0
10
89.9503347
20
-93.3947576
11
92.8155296
21
-109.6440855
0
LINE
8
0
10
89.8635106
20
-92.9023537
11
107.0976463
21
-89.8635106
0
LINE
8
0
10
107.0976463
20
-89.8635106
11
104.2324514
21
-73.6141827
0
LINE
8
0
10
104.2324514
20
-73.6141827
11
86.9983157
21
-76.6530258
0
LINE
8
0
10
86.9983157
20
-76.6530258
11
89.8635106
21
-92.9023537
0
LINE
8
0
10
86.9114916
20
-76.1606219
11
104.1456273
21
-73.1217788
0
LINE
8
0
10
104.1456273
20
-73.1217788
11
101.2804324
21
-56.8724509
0
LINE
8
0
10
101.2804324
20
-56.8724509
11
84.0462967
21
-59.911294
0
LINE
8
0
10
84.0462967
20
-59.911294
11
86.9114916
21
-76.1606219
0
LINE
8
0
10
109.3711199
20
-95.7643668
11
126.8045271
21
-94.2391413
0
LINE
8
0
10
126.8045271
20
-94.2391413
11
125.3664573
21
-77.8019288
0
LINE
8
0
10
125.3664573
20
-77.8019288
11
107.9330501
21
-79.3271543
0
LINE
8
0
10
107.9330501
20
-79.3271543
11
109.3711199
21
-95.7643668
0
LINE
8
0
10
107.8894723
20
-78.8290569
11
125.3228795
21
-77.3038314
0
LINE
8
0
10
125.3228795
20
-77.3038314
11
123.8848097
21
-60.8666189
0
LINE
8
0
10
123.8848097
20
-60.8666189
11
106.4514025
21
-62.3918444
0
LINE
8
0
10
106.4514025
20
-62.3918444
11
107.8894723
21
-78.8290569
0
LINE
8
0
10
106.4078247
20
-61.893747
11
123.8412319
21
-60.3685215
0
LINE
8
0
10
123.8412319
20
-60.3685215
11
122.4031621
21
-43.931309
0
LINE
8
0
10
122.4031621
20
-43.931309
11
104.9697549
21
-45.4565345
0
LINE
8
0
10
104.9697549
20
-45.4565345
11
106.4078247
21
-61.893747
0
LINE
8
0
10
127.1978649
20
-89.3924099
11
144.6978649
21
-89.3924099
0
LINE
8
0
10
144.6978649
20
-89.3924099
11
144.6978649
21
-72.8924099
0
LINE
8
0
10
144.6978649
20
-72.8924099
11
127.1978649
21
-72.8924099
0
LINE
8
0
10
127.1978649
20
-72.8924099
11
127.1978649
21
-89.3924099
0
LINE
8
0
10
127.1978649
20
-72.3924099
11
144.6978649
21
-72.3924099
0
LINE
8
0
10
144.6978649
20
-72.3924099
11
144.6978649
21
-55.8924099
0
LINE
8
0
10
144.6978649
20
-55.8924099
11
127.1978649
21
-55.8924099
0
LINE
8
0
10
127.1978649
20
-55.8924099
11
127.1978649
21
-72.3924099
0
LINE
8
0
10
127.1978649
20
-55.3924099
11
144.6978649
21
-55.3924099
0
LINE
8
0
10
144.6978649
20
-55.3924099
11
144.6978649
21
-38.8924099
0
LINE
8
0
10
144.6978649
20
-38.8924099
11
127.1978649
21
-38.8924099
0
LINE
8
0
10
127.1978649
20
-38.8924099
11
127.1978649
21
-55.3924099
0
LINE
8
0
10
145.1978649
20
-94.3924099
11
162.6978649
21
-94.3924099
0
LINE
8
0
10
162.6978649
20
-94.3924099
11
162.6978649
21
-77.8924099
0
LINE
8
0
10
162.6978649
20
-77.8924099
11
145.1978649
21
-77.8924099
0
LINE
8
0
10
145.1978649
20
-77.8924099
11
145.1978649
21
-94.3924099
0
LINE
8
0
10
145.1978649
20
-77.3924099
11
162.6978649
21
-77.3924099
0
LINE
8
0
10
162.6978649
20
-77.3924099
11
162.6978649
21
-60.8924099
0
LINE
8
0
10
162.6978649
20
-60.8924099
11
145.1978649
21
-60.8924099
0
LINE
8
0
10
145.1978649
20
-60.8924099
11
145.1978649
21
-77.3924099
0
LINE
8
0
10
145.1978649
20
-60.3924099
11
162.6978649
21
-60.3924099
0
LINE
8
0
10
162.6978649
20
-60.3924099
11
162.6978649
21
-43.8924099
0
LINE
8
0
10
162.6978649
20
-43.8924099
11
145.1978649
21
-43.8924099
0
LINE
8
0
10
145.1978649
20
-43.8924099
11
145.1978649
21
-60.3924099
0
LINE
8
0
10
163.197865
20
-96.39241
11
180.697865
21
-96.39241
0
LINE
8
0
10
180.697865
20
-96.39241
11
180.697865
21
-79.89241
0
LINE
8
0
10
180.697865
20
-79.89241
11
163.197865
21
-79.89241
0
LINE
8
0
10
163.197865
20
-79.89241
11
163.197865
21
-96.39241
0
LINE
8
0
10
163.197865
20
-79.39241
11
180.697865
21
-79.39241
0
LINE
8
0
10
180.697865
20
-79.39241
11
180.697865
21
-62.89241
0
LINE
8
0
10
180.697865
20
-62.89241
11
163.197865
21
-62.89241
0
LINE
8
0
10
163.197865
20
-62.89241
11
163.197865
21
-79.39241
0
LINE
8
0
10
163.197865
20
-62.39241
11
180.697865
21
-62.39241
0
LINE
8
0
10
180.697865
20
-62.39241
11
180.697865
21
-45.89241
0
LINE
8
0
10
180.697865
20
-45.89241
11
163.197865
21
-45.89241
0
LINE
8
0
10
163.197865
20
-45.89241
11
163.197865
21
-62.39241
0
LINE
8
0
10
137.997865
20
-117.69241
11
155.497865
21
-117.69241
0
LINE
8
0
10
155.497865
20
-117.69241
11
155.497865
21
-101.19241
0
LINE
8
0
10
155.497865
20
-101.19241
11
137.997865
21
-101.19241
0
LINE
8
0
10
137.997865
20
-101.19241
11
137.997865
21
-117.69241
0
LINE
8
0
10
156.8607569
20
-117.6466314
11
173.7644589
21
-122.1759647
0
LINE
8
0
10
173.7644589
20
-122.1759647
11
178.0349731
21
-106.2381886
0
LINE
8
0
10
178.0349731
20
-106.2381886
11
161.1312711
21
-101.7088553
0
LINE
8
0
10
161.1312711
20
-101.7088553
11
156.8607569
21
-117.6466314
0
LINE
8
0
10
175.3591405
20
-122.4676745
11
190.5145851
21
-131.2176745
0
LINE
8
0
10
190.5145851
20
-131.2176745
11
198.7645851
21
-116.9282553
0
LINE
8
0
10
198.7645851
20
-116.9282553
11
183.6091405
21
-108.1782553
0
LINE
8
0
10
183.6091405
20
-108.1782553
11
175.3591405
21
-122.4676745
0
ENDSEC
0
EOF