%TF.GenerationSoftware,KiCad,Pcbnew,9.0.3*%
%TF.CreationDate,2025-07-20T18:48:35+02:00*%
%TF.ProjectId,kdb-v1,6b64622d-7631-42e6-9b69-6361645f7063,v1.0.0*%
%TF.SameCoordinates,Original*%
%TF.FileFunction,Copper,L1,Top*%
%TF.FilePolarity,Positive*%
%FSLAX46Y46*%
G04 Gerber Fmt 4.6, Leading zero omitted, Abs format (unit mm)*
G04 Created by KiCad (PCBNEW 9.0.3) date 2025-07-20 18:48:35*
%MOMM*%
%LPD*%
G01*
G04 APERTURE LIST*
G04 Aperture macros list*
%AMRoundRect*
0 Rectangle with rounded corners*
0 $1 Rounding radius*
0 $2 $3 $4 $5 $6 $7 $8 $9 X,Y pos of 4 corners*
0 Add a 4 corners polygon primitive as box body*
4,1,4,$2,$3,$4,$5,$6,$7,$8,$9,$2,$3,0*
0 Add four circle primitives for the rounded corners*
1,1,$1+$1,$2,$3*
1,1,$1+$1,$4,$5*
1,1,$1+$1,$6,$7*
1,1,$1+$1,$8,$9*
0 Add four rect primitives between the rounded corners*
20,1,$1+$1,$2,$3,$4,$5,0*
20,1,$1+$1,$4,$5,$6,$7,0*
20,1,$1+$1,$6,$7,$8,$9,0*
20,1,$1+$1,$8,$9,$2,$3,0*%
%AMRotRect*
0 Rectangle, with rotation*
0 The origin of the aperture is its center*
0 $1 length*
0 $2 width*
0 $3 Rotation angle, in degrees counterclockwise*
0 Add horizontal line*
21,1,$1,$2,0,0,$3*%
%AMFreePoly0*
4,1,5,0.125000,-0.500000,-0.125000,-0.500000,-0.125000,0.500000,0.125000,0.500000,0.125000,-0.500000,0.125000,-0.500000,$1*%
%AMFreePoly1*
4,1,6,0.600000,-0.200000,0.600000,-0.400000,-0.600000,-0.400000,-0.600000,-0.200000,0.000000,0.400000,0.600000,-0.200000,0.600000,-0.200000,$1*%
%AMFreePoly2*
4,1,45,0.000555,0.122598,0.024386,0.122598,0.024859,0.122401,0.025375,0.122398,0.047313,0.113101,0.069446,0.103934,0.069811,0.103568,0.070282,0.103370,0.089098,0.087673,1.073098,-0.912327,1.088490,-0.931394,1.106791,-0.976602,1.106397,-1.025374,1.087370,-1.070282,1.052606,-1.104490,1.007397,-1.122791,0.958625,-1.122397,0.913717,-1.103370,0.894901,-1.087672,-0.089098,-0.087673,
-0.103295,-0.070084,-0.103934,-0.069446,-0.104063,-0.069132,-0.104490,-0.068606,-0.113424,-0.046532,-0.122598,-0.024386,-0.122598,-0.023873,-0.122791,-0.023397,-0.122598,0.000554,-0.122598,0.024386,-0.122402,0.024858,-0.122398,0.025375,-0.113101,0.047313,-0.103934,0.069446,-0.103568,0.069811,-0.103370,0.070282,-0.086425,0.086954,-0.069446,0.103934,-0.068969,0.104131,-0.068606,0.104490,
-0.046532,0.113424,-0.024386,0.122598,-0.023874,0.122598,-0.023397,0.122791,0.000555,0.122598,0.000555,0.122598,$1*%
%AMFreePoly3*
4,1,6,0.600000,-1.000000,0.000000,-0.400000,-0.600000,-1.000000,-0.600000,0.250000,0.600000,0.250000,0.600000,-1.000000,0.600000,-1.000000,$1*%
%AMFreePoly4*
4,1,45,0.004553,0.122598,0.024386,0.122598,0.028727,0.120799,0.033410,0.120452,0.056267,0.111620,1.032267,-0.380380,1.052962,-0.393502,1.084797,-0.430452,1.100069,-0.476772,1.096452,-0.525410,1.074498,-0.568962,1.037549,-0.600797,0.991228,-0.616069,0.942590,-0.612452,0.919733,-0.603620,-0.056267,-0.111620,-0.066392,-0.105198,-0.069446,-0.103934,-0.071279,-0.102100,-0.076962,-0.098498,
-0.089900,-0.083479,-0.103934,-0.069446,-0.105733,-0.065102,-0.108797,-0.061548,-0.115004,-0.042719,-0.122598,-0.024386,-0.122598,-0.019689,-0.124069,-0.015228,-0.122598,0.004552,-0.122598,0.024386,-0.120800,0.028726,-0.120452,0.033410,-0.111525,0.051119,-0.103934,0.069446,-0.100610,0.072769,-0.098498,0.076962,-0.083479,0.089900,-0.069446,0.103934,-0.065102,0.105733,-0.061548,0.108797,
-0.042719,0.115004,-0.024386,0.122598,-0.019690,0.122598,-0.015228,0.124069,0.004553,0.122598,0.004553,0.122598,$1*%
G04 Aperture macros list end*
%TA.AperFunction,EtchedComponent*%
%ADD10C,0.000000*%
%TD*%
%TA.AperFunction,SMDPad,CuDef*%
%ADD11R,2.600000X2.600000*%
%TD*%
%TA.AperFunction,SMDPad,CuDef*%
%ADD12RotRect,2.600000X2.600000X5.000000*%
%TD*%
%TA.AperFunction,ComponentPad*%
%ADD13RoundRect,0.400000X-0.900000X-0.400000X0.900000X-0.400000X0.900000X0.400000X-0.900000X0.400000X0*%
%TD*%
%TA.AperFunction,ComponentPad*%
%ADD14RoundRect,0.400050X-0.899950X-0.400050X0.899950X-0.400050X0.899950X0.400050X-0.899950X0.400050X0*%
%TD*%
%TA.AperFunction,ComponentPad*%
%ADD15RoundRect,0.400000X-0.400000X-0.900000X0.400000X-0.900000X0.400000X0.900000X-0.400000X0.900000X0*%
%TD*%
%TA.AperFunction,ComponentPad*%
%ADD16RoundRect,0.393700X-0.393700X-0.906300X0.393700X-0.906300X0.393700X0.906300X-0.393700X0.906300X0*%
%TD*%
%TA.AperFunction,SMDPad,CuDef*%
%ADD17RotRect,2.600000X2.600000X330.000000*%
%TD*%
%TA.AperFunction,SMDPad,CuDef*%
%ADD18RotRect,2.600000X2.600000X345.000000*%
%TD*%
%TA.AperFunction,SMDPad,CuDef*%
%ADD19RotRect,2.600000X2.600000X10.000000*%
%TD*%
%TA.AperFunction,ComponentPad*%
%ADD20C,1.400000*%
%TD*%
%TA.AperFunction,SMDPad,CuDef*%
%ADD21FreePoly0,180.000000*%
%TD*%
%TA.AperFunction,SMDPad,CuDef*%
%ADD22FreePoly1,180.000000*%
%TD*%
%TA.AperFunction,SMDPad,CuDef*%
%ADD23FreePoly1,0.000000*%
%TD*%
%TA.AperFunction,SMDPad,CuDef*%
%ADD24FreePoly0,0.000000*%
%TD*%
%TA.AperFunction,ComponentPad*%
%ADD25C,0.800000*%
%TD*%
%TA.AperFunction,SMDPad,CuDef*%
%ADD26FreePoly2,90.000000*%
%TD*%
%TA.AperFunction,SMDPad,CuDef*%
%ADD27FreePoly3,0.000000*%
%TD*%
%TA.AperFunction,SMDPad,CuDef*%
%ADD28FreePoly4,270.000000*%
%TD*%
%TA.AperFunction,SMDPad,CuDef*%
%ADD29FreePoly3,180.000000*%
%TD*%
%TA.AperFunction,SMDPad,CuDef*%
%ADD30FreePoly4,90.000000*%
%TD*%
%TA.AperFunction,SMDPad,CuDef*%
%ADD31FreePoly2,270.000000*%
%TD*%
%TA.AperFunction,SMDPad,CuDef*%
%ADD32R,1.400000X1.000000*%
%TD*%
%TA.AperFunction,SMDPad,CuDef*%
%ADD33RotRect,1.400000X1.000000X330.000000*%
%TD*%
%TA.AperFunction,SMDPad,CuDef*%
%ADD34RotRect,1.400000X1.000000X340.000000*%
%TD*%
%TA.AperFunction,ViaPad*%
%ADD35C,0.800000*%
%TD*%
%TA.AperFunction,Conductor*%
%ADD36C,0.250000*%
%TD*%
G04 APERTURE END LIST*
D10*
%TA.AperFunction,EtchedComponent*%
%TO.C,G\u002A\u002A\u002A*%
G36*
X120027066Y-99519069D02*
G01*
X120202972Y-99527391D01*
X120369411Y-99541609D01*
X120492778Y-99557273D01*
X120643179Y-99587828D01*
X120802466Y-99635493D01*
X120966822Y-99698798D01*
X121132434Y-99776270D01*
X121295484Y-99866438D01*
X121297430Y-99867604D01*
X121367867Y-99915763D01*
X121449563Y-99982397D01*
X121541856Y-100066885D01*
X121644086Y-100168610D01*
X121755592Y-100286952D01*
X121813893Y-100351351D01*
X121886247Y-100432824D01*
X121946467Y-100502509D01*
X121997225Y-100564323D01*
X122041195Y-100622182D01*
X122081049Y-100680000D01*
X122119460Y-100741694D01*
X122159100Y-100811180D01*
X122202642Y-100892372D01*
X122252759Y-100989187D01*
X122263262Y-101009703D01*
X122327363Y-101135853D01*
X122381992Y-101245247D01*
X122428523Y-101340852D01*
X122468330Y-101425633D01*
X122502786Y-101502557D01*
X122533263Y-101574591D01*
X122561136Y-101644702D01*
X122578476Y-101690563D01*
X122603928Y-101759083D01*
X122636830Y-101847594D01*
X122676774Y-101954995D01*
X122723350Y-102080188D01*
X122776148Y-102222071D01*
X122834758Y-102379545D01*
X122898771Y-102551510D01*
X122967777Y-102736867D01*
X123041366Y-102934515D01*
X123119129Y-103143354D01*
X123200656Y-103362285D01*
X123285537Y-103590207D01*
X123373362Y-103826022D01*
X123463723Y-104068628D01*
X123556208Y-104316926D01*
X123650409Y-104569816D01*
X123745916Y-104826199D01*
X123842319Y-105084974D01*
X123939209Y-105345041D01*
X124036175Y-105605301D01*
X124132808Y-105864654D01*
X124228698Y-106122000D01*
X124323436Y-106376238D01*
X124416612Y-106626269D01*
X124507816Y-106870994D01*
X124596639Y-107109312D01*
X124682671Y-107340123D01*
X124765502Y-107562328D01*
X124844722Y-107774826D01*
X124898693Y-107919583D01*
X124977821Y-108131774D01*
X125049482Y-108323910D01*
X125114047Y-108497035D01*
X125171889Y-108652194D01*
X125223377Y-108790430D01*
X125268885Y-108912788D01*
X125308783Y-109020312D01*
X125343443Y-109114046D01*
X125373237Y-109195033D01*
X125398535Y-109264318D01*
X125419709Y-109322946D01*
X125437132Y-109371959D01*
X125451173Y-109412403D01*
X125462206Y-109445321D01*
X125470600Y-109471757D01*
X125476728Y-109492756D01*
X125480962Y-109509361D01*
X125483672Y-109522618D01*
X125485230Y-109533568D01*
X125486007Y-109543258D01*
X125486376Y-109552730D01*
X125486707Y-109563029D01*
X125487282Y-109573903D01*
X125503232Y-109678495D01*
X125535436Y-109777082D01*
X125581772Y-109863210D01*
X125583066Y-109865107D01*
X125613179Y-109910618D01*
X125645122Y-109961279D01*
X125661793Y-109988900D01*
X125687822Y-110030655D01*
X125715727Y-110071690D01*
X125732757Y-110094516D01*
X125756181Y-110128089D01*
X125774509Y-110161551D01*
X125778482Y-110171284D01*
X125795809Y-110199738D01*
X125817975Y-110216178D01*
X125838244Y-110219708D01*
X125876548Y-110222728D01*
X125928416Y-110225020D01*
X125989377Y-110226365D01*
X126031505Y-110226628D01*
X126111040Y-110225888D01*
X126179565Y-110223222D01*
X126244802Y-110217961D01*
X126314473Y-110209434D01*
X126396300Y-110196972D01*
X126421844Y-110192785D01*
X126488639Y-110181638D01*
X126549125Y-110171387D01*
X126599241Y-110162736D01*
X126634923Y-110156383D01*
X126651462Y-110153182D01*
X126676783Y-110147422D01*
X126676783Y-111125610D01*
X126676783Y-112103798D01*
X126465773Y-112154861D01*
X126369273Y-112177812D01*
X126289120Y-112195750D01*
X126219952Y-112209594D01*
X126156404Y-112220263D01*
X126093113Y-112228675D01*
X126024714Y-112235749D01*
X125962162Y-112241106D01*
X125900964Y-112244851D01*
X125825472Y-112247631D01*
X125740091Y-112249458D01*
X125649225Y-112250341D01*
X125557278Y-112250291D01*
X125468656Y-112249318D01*
X125387762Y-112247432D01*
X125319001Y-112244643D01*
X125266778Y-112240963D01*
X125253168Y-112239458D01*
X125162028Y-112224323D01*
X125057670Y-112201113D01*
X124946119Y-112171634D01*
X124833405Y-112137689D01*
X124725553Y-112101083D01*
X124628593Y-112063621D01*
X124555428Y-112030568D01*
X124403018Y-111945091D01*
X124262162Y-111846654D01*
X124136480Y-111738031D01*
X124042184Y-111637267D01*
X123984924Y-111566476D01*
X123923209Y-111485766D01*
X123859521Y-111398762D01*
X123796340Y-111309086D01*
X123736147Y-111220365D01*
X123681423Y-111136223D01*
X123634649Y-111060284D01*
X123598306Y-110996173D01*
X123583847Y-110967655D01*
X123563300Y-110922752D01*
X123537439Y-110863511D01*
X123509104Y-110796573D01*
X123481130Y-110728582D01*
X123471612Y-110704918D01*
X123442205Y-110632324D01*
X123409283Y-110552723D01*
X123376493Y-110474834D01*
X123347478Y-110407376D01*
X123342243Y-110395436D01*
X123331884Y-110370099D01*
X123314261Y-110324766D01*
X123289801Y-110260593D01*
X123258934Y-110178736D01*
X123222086Y-110080353D01*
X123179686Y-109966600D01*
X123132161Y-109838633D01*
X123079940Y-109697609D01*
X123023451Y-109544683D01*
X122963122Y-109381014D01*
X122899379Y-109207756D01*
X122832653Y-109026067D01*
X122763369Y-108837103D01*
X122691957Y-108642021D01*
X122618844Y-108441976D01*
X122580150Y-108335977D01*
X122507225Y-108136160D01*
X122436358Y-107942050D01*
X122367935Y-107754703D01*
X122302342Y-107575170D01*
X122239964Y-107404507D01*
X122181187Y-107243768D01*
X122126398Y-107094006D01*
X122075982Y-106956275D01*
X122030324Y-106831628D01*
X121989811Y-106721121D01*
X121954829Y-106625807D01*
X121925764Y-106546740D01*
X121903001Y-106484974D01*
X121886926Y-106441562D01*
X121877925Y-106417558D01*
X121876051Y-106412864D01*
X121873716Y-106413702D01*
X121869360Y-106419763D01*
X121862705Y-106431707D01*
X121853475Y-106450196D01*
X121841392Y-106475892D01*
X121826180Y-106509455D01*
X121807561Y-106551546D01*
X121785257Y-106602827D01*
X121758992Y-106663960D01*
X121728489Y-106735604D01*
X121693470Y-106818422D01*
X121653658Y-106913074D01*
X121608776Y-107020223D01*
X121558546Y-107140528D01*
X121502693Y-107274652D01*
X121440937Y-107423255D01*
X121373003Y-107586998D01*
X121298613Y-107766544D01*
X121217490Y-107962552D01*
X121129356Y-108175685D01*
X121033935Y-108406604D01*
X120930949Y-108655969D01*
X120820122Y-108924442D01*
X120701175Y-109212684D01*
X120627715Y-109390738D01*
X119479929Y-112172970D01*
X118239038Y-112173259D01*
X116998147Y-112173549D01*
X117013542Y-112136974D01*
X117019449Y-112123098D01*
X117033759Y-112089562D01*
X117056029Y-112037402D01*
X117085817Y-111967654D01*
X117122678Y-111881356D01*
X117166172Y-111779543D01*
X117215853Y-111663253D01*
X117271281Y-111533520D01*
X117332011Y-111391382D01*
X117397601Y-111237876D01*
X117467608Y-111074036D01*
X117541589Y-110900901D01*
X117619101Y-110719506D01*
X117699702Y-110530888D01*
X117782948Y-110336083D01*
X117868396Y-110136127D01*
X117955603Y-109932057D01*
X118044127Y-109724910D01*
X118133525Y-109515722D01*
X118223354Y-109305528D01*
X118313171Y-109095366D01*
X118402532Y-108886273D01*
X118490996Y-108679283D01*
X118578118Y-108475434D01*
X118663457Y-108275763D01*
X118746570Y-108081305D01*
X118827013Y-107893097D01*
X118904343Y-107712176D01*
X118978118Y-107539577D01*
X119047895Y-107376338D01*
X119113230Y-107223494D01*
X119173681Y-107082082D01*
X119228806Y-106953139D01*
X119278160Y-106837700D01*
X119311197Y-106760434D01*
X119351068Y-106667181D01*
X119396779Y-106560253D01*
X119447746Y-106441020D01*
X119503383Y-106310851D01*
X119563106Y-106171114D01*
X119626329Y-106023179D01*
X119692467Y-105868415D01*
X119760936Y-105708191D01*
X119831151Y-105543877D01*
X119902526Y-105376840D01*
X119974477Y-105208452D01*
X120046419Y-105040079D01*
X120117767Y-104873093D01*
X120187935Y-104708861D01*
X120256339Y-104548754D01*
X120322394Y-104394139D01*
X120385514Y-104246387D01*
X120445116Y-104106866D01*
X120500614Y-103976945D01*
X120551422Y-103857994D01*
X120596957Y-103751382D01*
X120636632Y-103658477D01*
X120669864Y-103580649D01*
X120696066Y-103519268D01*
X120714655Y-103475701D01*
X120725045Y-103451319D01*
X120725636Y-103449930D01*
X120747946Y-103397422D01*
X120634325Y-103020316D01*
X120578120Y-102835844D01*
X120526771Y-102671849D01*
X120479767Y-102526949D01*
X120436598Y-102399763D01*
X120396752Y-102288909D01*
X120359719Y-102193006D01*
X120324986Y-102110671D01*
X120292045Y-102040524D01*
X120260382Y-101981183D01*
X120234054Y-101938148D01*
X120207720Y-101902460D01*
X120171156Y-101858981D01*
X120127732Y-101811098D01*
X120080815Y-101762200D01*
X120033773Y-101715676D01*
X119989974Y-101674912D01*
X119952787Y-101643297D01*
X119925580Y-101624220D01*
X119918830Y-101621056D01*
X119839448Y-101594036D01*
X119774435Y-101574715D01*
X119717637Y-101561548D01*
X119662899Y-101552995D01*
X119635719Y-101550091D01*
X119570726Y-101546860D01*
X119492910Y-101547365D01*
X119410046Y-101551174D01*
X119329909Y-101557853D01*
X119260274Y-101566969D01*
X119230028Y-101572697D01*
X119166475Y-101587137D01*
X119093961Y-101604366D01*
X119016046Y-101623461D01*
X118936291Y-101643501D01*
X118858256Y-101663562D01*
X118785502Y-101682723D01*
X118721587Y-101700061D01*
X118670074Y-101714654D01*
X118634522Y-101725578D01*
X118621438Y-101730372D01*
X118596481Y-101739617D01*
X118553735Y-101753596D01*
X118497123Y-101771107D01*
X118430567Y-101790945D01*
X118357989Y-101811908D01*
X118328838Y-101820145D01*
X118257225Y-101840261D01*
X118192129Y-101858564D01*
X118136941Y-101874101D01*
X118095053Y-101885916D01*
X118069856Y-101893053D01*
X118064754Y-101894517D01*
X118061369Y-101894615D01*
X118058394Y-101891902D01*
X118055804Y-101885022D01*
X118053572Y-101872623D01*
X118051671Y-101853351D01*
X118050075Y-101825850D01*
X118048757Y-101788769D01*
X118047691Y-101740751D01*
X118046851Y-101680445D01*
X118046210Y-101606494D01*
X118045741Y-101517547D01*
X118045419Y-101412247D01*
X118045216Y-101289243D01*
X118045107Y-101147179D01*
X118045064Y-100984702D01*
X118045060Y-100886731D01*
X118045060Y-99873186D01*
X118154785Y-99800252D01*
X118202101Y-99769118D01*
X118237118Y-99748002D01*
X118266264Y-99734436D01*
X118295968Y-99725956D01*
X118332661Y-99720096D01*
X118377049Y-99715016D01*
X118438786Y-99707314D01*
X118502054Y-99697278D01*
X118570778Y-99684092D01*
X118648883Y-99666939D01*
X118740292Y-99645002D01*
X118848932Y-99617467D01*
X118860966Y-99614356D01*
X118993036Y-99585256D01*
X119143166Y-99561089D01*
X119307421Y-99541993D01*
X119481871Y-99528106D01*
X119662584Y-99519564D01*
X119845626Y-99516506D01*
X120027066Y-99519069D01*
G37*
%TD.AperFunction*%
%TD*%
D11*
%TO.P,S10,1*%
%TO.N,GP8*%
X157222865Y-80192410D03*
%TO.P,S10,2*%
%TO.N,GND*%
X145672865Y-82392410D03*
%TD*%
D12*
%TO.P,S6,1*%
%TO.N,GP26*%
X117149454Y-46699734D03*
%TO.P,S6,2*%
%TO.N,GND*%
X105835148Y-49898012D03*
%TD*%
D11*
%TO.P,S14,1*%
%TO.N,GP14*%
X175222865Y-65192410D03*
%TO.P,S14,2*%
%TO.N,GND*%
X163672865Y-67392410D03*
%TD*%
D13*
%TO.P,RP2040Zero1,1*%
%TO.N,GP0*%
X200327865Y-47282410D03*
X200327865Y-47282410D03*
%TO.P,RP2040Zero1,2*%
%TO.N,GP1*%
X200327865Y-49822410D03*
X200327865Y-49822410D03*
%TO.P,RP2040Zero1,3*%
%TO.N,GP2*%
X200327865Y-52362410D03*
X200327865Y-52362410D03*
%TO.P,RP2040Zero1,4*%
%TO.N,GP3*%
X200327865Y-54902410D03*
X200327865Y-54902410D03*
%TO.P,RP2040Zero1,5*%
%TO.N,GP4*%
X200327865Y-57442410D03*
X200327865Y-57442410D03*
D14*
%TO.P,RP2040Zero1,6*%
%TO.N,GP5*%
X200327865Y-59982410D03*
X200327865Y-59982410D03*
%TO.P,RP2040Zero1,7*%
%TO.N,GP6*%
X200327865Y-62522410D03*
X200327865Y-62522410D03*
%TO.P,RP2040Zero1,8*%
%TO.N,GP7*%
X200327865Y-65062410D03*
X200327865Y-65062410D03*
%TO.P,RP2040Zero1,9*%
%TO.N,GP8*%
X200327865Y-67602410D03*
X200327865Y-67602410D03*
D15*
%TO.P,RP2040Zero1,10*%
%TO.N,GP9*%
X197187865Y-68412410D03*
X197187865Y-68412410D03*
D16*
%TO.P,RP2040Zero1,11*%
%TO.N,GP10*%
X194647865Y-68412410D03*
X194647865Y-68412410D03*
%TO.P,RP2040Zero1,12*%
%TO.N,GP11*%
X192107865Y-68412410D03*
X192107865Y-68412410D03*
%TO.P,RP2040Zero1,13*%
%TO.N,GP12*%
X189567865Y-68412410D03*
X189567865Y-68412410D03*
%TO.P,RP2040Zero1,14*%
%TO.N,GP13*%
X187027865Y-68412410D03*
X187027865Y-68412410D03*
D14*
%TO.P,RP2040Zero1,15*%
%TO.N,GP14*%
X183887865Y-67602410D03*
X183887865Y-67602410D03*
%TO.P,RP2040Zero1,16*%
%TO.N,GP15*%
X183887865Y-65062410D03*
X183887865Y-65062410D03*
%TO.P,RP2040Zero1,17*%
%TO.N,GP26*%
X183887865Y-62522410D03*
X183887865Y-62522410D03*
%TO.P,RP2040Zero1,18*%
%TO.N,GP27*%
X183887865Y-59982410D03*
X183887865Y-59982410D03*
%TO.P,RP2040Zero1,19*%
%TO.N,P5V*%
X183887865Y-47282410D03*
X183887865Y-47282410D03*
%TO.P,RP2040Zero1,20*%
%TO.N,GND*%
X183887865Y-49822410D03*
X183887865Y-49822410D03*
%TO.P,RP2040Zero1,21*%
%TO.N,P3V3*%
X183887865Y-52362410D03*
X183887865Y-52362410D03*
%TO.P,RP2040Zero1,22*%
%TO.N,GP28*%
X183887865Y-57442410D03*
X183887865Y-57442410D03*
%TO.P,RP2040Zero1,23*%
%TO.N,GP29*%
X183887865Y-54902410D03*
X183887865Y-54902410D03*
%TD*%
D17*
%TO.P,S18,1*%
%TO.N,GP2*%
X192873096Y-116182614D03*
%TO.P,S18,2*%
%TO.N,GND*%
X181770503Y-112312870D03*
%TD*%
D11*
%TO.P,S12,1*%
%TO.N,GP28*%
X157222865Y-46192410D03*
%TO.P,S12,2*%
%TO.N,GND*%
X145672865Y-48392410D03*
%TD*%
%TO.P,S8,1*%
%TO.N,GP12*%
X139222865Y-58192410D03*
%TO.P,S8,2*%
%TO.N,GND*%
X127672865Y-60392410D03*
%TD*%
%TO.P,S11,1*%
%TO.N,GP13*%
X157222865Y-63192410D03*
%TO.P,S11,2*%
%TO.N,GND*%
X145672865Y-65392410D03*
%TD*%
%TO.P,S15,1*%
%TO.N,GP29*%
X175222865Y-48192410D03*
%TO.P,S15,2*%
%TO.N,GND*%
X163672865Y-50392410D03*
%TD*%
D18*
%TO.P,S17,1*%
%TO.N,GP3*%
X172151245Y-107042784D03*
%TO.P,S17,2*%
%TO.N,GND*%
X160425400Y-106178461D03*
%TD*%
D19*
%TO.P,S3,1*%
%TO.N,GP15*%
X96288001Y-60088232D03*
%TO.P,S3,2*%
%TO.N,GND*%
X85295497Y-64260446D03*
%TD*%
D11*
%TO.P,S9,1*%
%TO.N,GP27*%
X139222865Y-41192410D03*
%TO.P,S9,2*%
%TO.N,GND*%
X127672865Y-43392410D03*
%TD*%
D12*
%TO.P,S5,1*%
%TO.N,GP11*%
X118631102Y-63635044D03*
%TO.P,S5,2*%
%TO.N,GND*%
X107316796Y-66833322D03*
%TD*%
D20*
%TO.P,AdamTech-MDJ004FS1,*%
%TO.N,*%
X195407865Y-79642410D03*
X192907865Y-79642410D03*
D21*
X195407865Y-80534410D03*
X192907865Y-80534410D03*
D22*
X195407865Y-81042410D03*
X192907865Y-81042410D03*
D23*
X192915865Y-85034410D03*
X195407865Y-85042410D03*
D24*
X192915865Y-85542410D03*
X195407865Y-85550410D03*
D20*
X195407865Y-86442410D03*
X192907865Y-86442410D03*
D25*
%TO.P,AdamTech-MDJ004FS1,3*%
%TO.N,GND*%
X196407865Y-83042410D03*
D26*
%TO.N,N/C*%
X195407865Y-84026410D03*
D27*
X195407865Y-84026410D03*
D28*
%TO.P,AdamTech-MDJ004FS1,5*%
X195407865Y-82058410D03*
D29*
X195407865Y-82058410D03*
D25*
%TO.N,GND*%
X194907865Y-83042410D03*
%TO.P,AdamTech-MDJ004FS1,6*%
%TO.N,P5V*%
X193407865Y-83042410D03*
D30*
%TO.N,N/C*%
X192915865Y-84018410D03*
D27*
X192915865Y-84018410D03*
D31*
%TO.P,AdamTech-MDJ004FS1,8*%
X192907865Y-82058410D03*
D29*
X192907865Y-82058410D03*
D25*
%TO.N,GP1*%
X191907865Y-83042410D03*
%TD*%
D11*
%TO.P,S7,1*%
%TO.N,GP7*%
X139222865Y-75192410D03*
%TO.P,S7,2*%
%TO.N,GND*%
X127672865Y-77392410D03*
%TD*%
D19*
%TO.P,S1,1*%
%TO.N,GP5*%
X102192039Y-93571696D03*
%TO.P,S1,2*%
%TO.N,GND*%
X91199535Y-97743910D03*
%TD*%
D12*
%TO.P,S4,1*%
%TO.N,GP6*%
X120112750Y-80570354D03*
%TO.P,S4,2*%
%TO.N,GND*%
X108798444Y-83768632D03*
%TD*%
D11*
%TO.P,S16,1*%
%TO.N,GP4*%
X150022865Y-103492410D03*
%TO.P,S16,2*%
%TO.N,GND*%
X138472865Y-105692410D03*
%TD*%
D19*
%TO.P,S2,1*%
%TO.N,GP10*%
X99240020Y-76829964D03*
%TO.P,S2,2*%
%TO.N,GND*%
X88247516Y-81002178D03*
%TD*%
D11*
%TO.P,S13,1*%
%TO.N,GP9*%
X175222865Y-82192410D03*
%TO.P,S13,2*%
%TO.N,GND*%
X163672865Y-84392410D03*
%TD*%
D32*
%TO.P,LED5,1*%
%TO.N,P5V*%
X142247865Y-99942410D03*
%TO.P,LED5,2*%
%TO.N,D3*%
X142247865Y-98542410D03*
%TO.P,LED5,3*%
%TO.N,GND*%
X136847865Y-98542410D03*
%TO.P,LED5,4*%
%TO.N,D2*%
X136847865Y-99942410D03*
%TD*%
D33*
%TO.P,LED4,1*%
%TO.N,P5V*%
X186355903Y-108320724D03*
%TO.P,LED4,2*%
%TO.N,D4*%
X187055903Y-107108288D03*
%TO.P,LED4,3*%
%TO.N,GND*%
X182379365Y-104408288D03*
%TO.P,LED4,4*%
%TO.N,D3*%
X181679365Y-105620724D03*
%TD*%
D32*
%TO.P,LED3,1*%
%TO.N,P5V*%
X181847865Y-78642410D03*
%TO.P,LED3,2*%
%TO.N,D5*%
X181847865Y-77242410D03*
%TO.P,LED3,3*%
%TO.N,GND*%
X176447865Y-77242410D03*
%TO.P,LED3,4*%
%TO.N,D4*%
X176447865Y-78642410D03*
%TD*%
D33*
%TO.P,LED2,1*%
%TO.N,P5V*%
X146936134Y-56648628D03*
%TO.P,LED2,2*%
%TO.N,D1*%
X147636134Y-55436192D03*
%TO.P,LED2,3*%
%TO.N,GND*%
X142959596Y-52736192D03*
%TO.P,LED2,4*%
%TO.N,GP0*%
X142259596Y-53948628D03*
%TD*%
D34*
%TO.P,LED1,1*%
%TO.N,P5V*%
X106585396Y-74068721D03*
%TO.P,LED1,2*%
%TO.N,D2*%
X107064224Y-72753152D03*
%TO.P,LED1,3*%
%TO.N,GND*%
X101989884Y-70906243D03*
%TO.P,LED1,4*%
%TO.N,D1*%
X101511056Y-72221812D03*
%TD*%
D35*
%TO.N,GP5*%
X99500000Y-96500000D03*
X188500000Y-76500000D03*
%TO.N,GND*%
X103000000Y-57500000D03*
X147000000Y-77392410D03*
X141081802Y-53268628D03*
X158500000Y-105692410D03*
X144500000Y-63000000D03*
X175087865Y-78642410D03*
X180501571Y-104940724D03*
X98000000Y-98000000D03*
X123803818Y-62500000D03*
X100000000Y-71000000D03*
X100208892Y-73791108D03*
X108500000Y-78128300D03*
X175250000Y-107750000D03*
X162000000Y-67500000D03*
X101594065Y-65000000D03*
X162222865Y-53500000D03*
X143000000Y-47500000D03*
X138500000Y-101616410D03*
X162222865Y-87000000D03*
X122322170Y-51000000D03*
X135487865Y-99942410D03*
X123229631Y-80270369D03*
%TO.N,GP10*%
X96500000Y-80000000D03*
%TO.N,GP15*%
X93500000Y-63000000D03*
%TO.N,GP6*%
X117000000Y-83000000D03*
X187500000Y-78500000D03*
%TO.N,GP11*%
X115500000Y-66500000D03*
%TO.N,GP26*%
X114000000Y-49500000D03*
%TO.N,GP7*%
X186500000Y-80500000D03*
X136000000Y-77500000D03*
%TO.N,GP12*%
X136000000Y-60500000D03*
%TO.N,GP27*%
X136000000Y-43500000D03*
%TO.N,GP8*%
X185500000Y-82500000D03*
X154000000Y-82500000D03*
%TO.N,GP13*%
X154000000Y-65500000D03*
%TO.N,GP28*%
X154000000Y-48500000D03*
%TO.N,GP9*%
X172000000Y-84500000D03*
%TO.N,GP14*%
X172000000Y-67500000D03*
%TO.N,GP29*%
X172000000Y-50500000D03*
%TO.N,GP4*%
X147000000Y-106000000D03*
%TO.N,GP3*%
X168000000Y-109000000D03*
%TO.N,GP2*%
X188500000Y-116500000D03*
%TO.N,P5V*%
X187533697Y-109000724D03*
X188000000Y-98500000D03*
X148113928Y-57328628D03*
X143607865Y-99942410D03*
X185500000Y-76500000D03*
X188000000Y-105000000D03*
X107863378Y-74533869D03*
X197000000Y-79500000D03*
X183207865Y-78642410D03*
%TO.N,GP0*%
X141011039Y-51611192D03*
%TO.N,D1*%
X149584691Y-56561192D03*
X136500000Y-52000000D03*
X99000000Y-70136698D03*
%TO.N,D2*%
X109178533Y-73522697D03*
X134597865Y-98542410D03*
X95500000Y-69000000D03*
%TO.N,D3*%
X180000000Y-104000000D03*
X146000000Y-112500000D03*
X144497865Y-98542410D03*
%TO.N,D4*%
X174197865Y-77242410D03*
X189004460Y-98504460D03*
X189004460Y-108233288D03*
%TD*%
D36*
%TO.N,D1*%
X101511056Y-72221812D02*
X100195092Y-72221812D01*
X100195092Y-72221812D02*
X99000000Y-71026720D01*
X99000000Y-71026720D02*
X99000000Y-70136698D01*
%TO.N,GND*%
X100000000Y-71000000D02*
X100333171Y-70666829D01*
X101332100Y-70666829D02*
X101989884Y-70906243D01*
X100333171Y-70666829D02*
X101332100Y-70666829D01*
%TO.N,GP10*%
X194647865Y-67812410D02*
X194647865Y-68190222D01*
X194647865Y-68190222D02*
X187338087Y-75500000D01*
X187338087Y-75500000D02*
X150500000Y-75500000D01*
X146500000Y-71500000D02*
X126000000Y-71500000D01*
X100069984Y-76000000D02*
X99240020Y-76829964D01*
X150500000Y-75500000D02*
X146500000Y-71500000D01*
X126000000Y-71500000D02*
X121500000Y-76000000D01*
X121500000Y-76000000D02*
X100069984Y-76000000D01*
%TO.N,P5V*%
X107863378Y-74533869D02*
X107863378Y-75136622D01*
X94138774Y-92165494D02*
X99288010Y-97314730D01*
X107863378Y-75136622D02*
X107500000Y-75500000D01*
X107500000Y-75500000D02*
X105000000Y-75500000D01*
X133500000Y-99000000D02*
X133500000Y-106500000D01*
X105000000Y-75500000D02*
X104497971Y-74997971D01*
X95762400Y-74997971D02*
X94138774Y-76621597D01*
X133500000Y-106500000D02*
X135000000Y-108000000D01*
X104497971Y-74997971D02*
X95762400Y-74997971D01*
X94138774Y-76621597D02*
X94138774Y-92165494D01*
X99288010Y-97314730D02*
X131814730Y-97314730D01*
X131814730Y-97314730D02*
X133500000Y-99000000D01*
X135000000Y-108000000D02*
X143623865Y-108000000D01*
%TO.N,GP5*%
X188480095Y-76519905D02*
X188500000Y-76500000D01*
X102192039Y-93571696D02*
X102192039Y-93807961D01*
X188480095Y-87519905D02*
X188480095Y-82500000D01*
X102773334Y-92990401D02*
X156990401Y-92990401D01*
X159000000Y-95000000D02*
X181000000Y-95000000D01*
X102192039Y-93807961D02*
X99500000Y-96500000D01*
X156990401Y-92990401D02*
X158500000Y-94500000D01*
X102192039Y-93571696D02*
X102773334Y-92990401D01*
X181000000Y-95000000D02*
X188480095Y-87519905D01*
X188480095Y-82500000D02*
X188480095Y-76519905D01*
X158500000Y-94500000D02*
X159000000Y-95000000D01*
%TO.N,GND*%
X123229631Y-80270369D02*
X126107590Y-77392410D01*
X98000000Y-98000000D02*
X96948788Y-99051212D01*
X142959596Y-52736192D02*
X142353379Y-52386192D01*
X127672865Y-45649305D02*
X127672865Y-43392410D01*
X100208892Y-73791108D02*
X95458586Y-73791108D01*
X100928636Y-64334571D02*
X90530985Y-64334571D01*
X138472865Y-101643545D02*
X138472865Y-105692410D01*
X162222865Y-53500000D02*
X163672865Y-52050000D01*
X103000000Y-57500000D02*
X105835148Y-54664852D01*
X176447865Y-77242410D02*
X175747865Y-77242410D01*
X182379366Y-104408288D02*
X181773148Y-104058288D01*
X145672865Y-64172865D02*
X145672865Y-65392410D01*
X147000000Y-77392410D02*
X145672865Y-78719545D01*
X108798444Y-78426744D02*
X108798444Y-83768632D01*
X175747865Y-77242410D02*
X175087865Y-77836494D01*
X101594065Y-65000000D02*
X100928636Y-64334571D01*
X163565275Y-67500000D02*
X163672865Y-67392410D01*
X162222865Y-87000000D02*
X162222865Y-85842410D01*
X159939349Y-105692410D02*
X160425400Y-106178461D01*
X179812870Y-112312870D02*
X181770503Y-112312870D01*
X175250000Y-107750000D02*
X179812870Y-112312870D01*
X138500000Y-101616410D02*
X138472865Y-101643545D01*
X125911408Y-60392410D02*
X127672865Y-60392410D01*
X92506837Y-99051212D02*
X91199535Y-97743910D01*
X108500000Y-78128300D02*
X108798444Y-78426744D01*
X163672865Y-52050000D02*
X163672865Y-50392410D01*
X180904529Y-104242780D02*
X180501571Y-104940724D01*
X123803818Y-62500000D02*
X125911408Y-60392410D01*
X136847865Y-98542410D02*
X136147865Y-98542410D01*
X90530985Y-64334571D02*
X89297808Y-65567748D01*
X96948788Y-99051212D02*
X92506837Y-99051212D01*
X181773148Y-104058288D02*
X180904529Y-104242780D01*
X103427387Y-66833322D02*
X107316796Y-66833322D01*
X162222865Y-85842410D02*
X163672865Y-84392410D01*
X126107590Y-77392410D02*
X127672865Y-77392410D01*
X95458586Y-73791108D02*
X88247516Y-81002178D01*
X143000000Y-47500000D02*
X144780455Y-47500000D01*
X101594065Y-65000000D02*
X103427387Y-66833322D01*
X175087865Y-77836494D02*
X175087865Y-78642410D01*
X162000000Y-67500000D02*
X163565275Y-67500000D01*
X136147865Y-98542410D02*
X135487865Y-99136494D01*
X144780455Y-47500000D02*
X145672865Y-48392410D01*
X105835148Y-54664852D02*
X105835148Y-49898012D01*
X145672865Y-78719545D02*
X145672865Y-82392410D01*
X89297808Y-65567748D02*
X86602799Y-65567748D01*
X142353379Y-52386192D02*
X141484760Y-52570684D01*
X135487865Y-99136494D02*
X135487865Y-99942410D01*
X122322170Y-51000000D02*
X127672865Y-45649305D01*
X144500000Y-63000000D02*
X145672865Y-64172865D01*
X86602799Y-65567748D02*
X85295497Y-64260446D01*
X158500000Y-105692410D02*
X159939349Y-105692410D01*
X141484760Y-52570684D02*
X141081802Y-53268628D01*
%TO.N,GP10*%
X99240020Y-77259980D02*
X96500000Y-80000000D01*
X99240020Y-76829964D02*
X99240020Y-77259980D01*
%TO.N,GP15*%
X181000000Y-59000000D02*
X181000000Y-61961335D01*
X181000000Y-61961335D02*
X184101075Y-65062410D01*
X96288001Y-60088232D02*
X96296967Y-60079266D01*
X124734009Y-60079266D02*
X133928083Y-50885192D01*
X153050219Y-59000000D02*
X181000000Y-59000000D01*
X96296967Y-60079266D02*
X124734009Y-60079266D01*
X184101075Y-65062410D02*
X184487865Y-65062410D01*
X133928083Y-50885192D02*
X144935411Y-50885192D01*
X96288001Y-60211999D02*
X93500000Y-63000000D01*
X96288001Y-60088232D02*
X96288001Y-60211999D01*
X144935411Y-50885192D02*
X153050219Y-59000000D01*
%TO.N,GP6*%
X130000000Y-92539401D02*
X159990401Y-92539401D01*
X159990401Y-92539401D02*
X162000000Y-94549000D01*
X162000000Y-94549000D02*
X180813190Y-94549000D01*
X120112750Y-80570354D02*
X117683104Y-83000000D01*
X117683104Y-83000000D02*
X117000000Y-83000000D01*
X180813190Y-94549000D02*
X185681095Y-89681095D01*
X126000000Y-92539401D02*
X130000000Y-92539401D01*
X185681095Y-89681095D02*
X187500000Y-87862190D01*
X120112750Y-86652151D02*
X126000000Y-92539401D01*
X187500000Y-87862190D02*
X187500000Y-78500000D01*
X120112750Y-80570354D02*
X120112750Y-86652151D01*
%TO.N,GP11*%
X122693727Y-72431095D02*
X118631102Y-68368470D01*
X115766146Y-66500000D02*
X115500000Y-66500000D01*
X118631102Y-68368470D02*
X118631102Y-63635044D01*
X118631102Y-63635044D02*
X115766146Y-66500000D01*
X186451000Y-75049000D02*
X150686810Y-75049000D01*
X125813190Y-71049000D02*
X124431095Y-72431095D01*
X150686810Y-75049000D02*
X146686810Y-71049000D01*
X146686810Y-71049000D02*
X125813190Y-71049000D01*
X124431095Y-72431095D02*
X122693727Y-72431095D01*
X192107865Y-67812410D02*
X192107865Y-69392135D01*
X192107865Y-69392135D02*
X186451000Y-75049000D01*
%TO.N,GP26*%
X117149454Y-46699734D02*
X114349188Y-49500000D01*
X124128266Y-59628266D02*
X124547199Y-59628266D01*
X124547199Y-59628266D02*
X133741273Y-50434192D01*
X156589554Y-58549000D02*
X181186810Y-58549000D01*
X117149454Y-52649454D02*
X124128266Y-59628266D01*
X148474746Y-50434192D02*
X156589554Y-58549000D01*
X182261865Y-60683200D02*
X184101075Y-62522410D01*
X114349188Y-49500000D02*
X114000000Y-49500000D01*
X181186810Y-58549000D02*
X182261865Y-59624055D01*
X133741273Y-50434192D02*
X148474746Y-50434192D01*
X184101075Y-62522410D02*
X184487865Y-62522410D01*
X117149454Y-46699734D02*
X117149454Y-52649454D01*
X182261865Y-59624055D02*
X182261865Y-60683200D01*
%TO.N,GP7*%
X139222865Y-75192410D02*
X136915275Y-77500000D01*
X139071865Y-75343410D02*
X139071865Y-81571865D01*
X149588401Y-92088401D02*
X160177211Y-92088401D01*
X160177211Y-92088401D02*
X162186810Y-94098000D01*
X186500000Y-88224380D02*
X186500000Y-80500000D01*
X136915275Y-77500000D02*
X136000000Y-77500000D01*
X162186810Y-94098000D02*
X180626380Y-94098000D01*
X180626380Y-94098000D02*
X184112190Y-90612190D01*
X184112190Y-90612190D02*
X186500000Y-88224380D01*
X139222865Y-75192410D02*
X139071865Y-75343410D01*
X139071865Y-81571865D02*
X149588401Y-92088401D01*
%TO.N,GP12*%
X139222865Y-58192410D02*
X136915275Y-60500000D01*
X143098000Y-70598000D02*
X139071865Y-66571865D01*
X147098000Y-70598000D02*
X143098000Y-70598000D01*
X189567865Y-67812410D02*
X189567865Y-68190222D01*
X136915275Y-60500000D02*
X136000000Y-60500000D01*
X139071865Y-58343410D02*
X139222865Y-58192410D01*
X139071865Y-66571865D02*
X139071865Y-58343410D01*
X151098000Y-74598000D02*
X147098000Y-70598000D01*
X189567865Y-68190222D02*
X183160087Y-74598000D01*
X183160087Y-74598000D02*
X151098000Y-74598000D01*
%TO.N,GP27*%
X139222865Y-41192410D02*
X144400930Y-41192410D01*
X151857365Y-53008323D02*
X156947042Y-58098000D01*
X144400930Y-41192410D02*
X151857365Y-48648845D01*
X183258030Y-59982410D02*
X184487865Y-59982410D01*
X181373620Y-58098000D02*
X183258030Y-59982410D01*
X151857365Y-48648845D02*
X151857365Y-53008323D01*
X139222865Y-41192410D02*
X136915275Y-43500000D01*
X136915275Y-43500000D02*
X136000000Y-43500000D01*
X156947042Y-58098000D02*
X181373620Y-58098000D01*
%TO.N,GP8*%
X157222865Y-80192410D02*
X157071865Y-80343410D01*
X157071865Y-80343410D02*
X157071865Y-87218865D01*
X180439570Y-93647000D02*
X182793285Y-91293285D01*
X154915275Y-82500000D02*
X154000000Y-82500000D01*
X182793285Y-91293285D02*
X185500000Y-88586570D01*
X185500000Y-88586570D02*
X185500000Y-82500000D01*
X163500000Y-93647000D02*
X180439570Y-93647000D01*
X157222865Y-80192410D02*
X154915275Y-82500000D01*
X157071865Y-87218865D02*
X163500000Y-93647000D01*
%TO.N,GP13*%
X157071865Y-63343410D02*
X157071865Y-71071865D01*
X157071865Y-71071865D02*
X160147000Y-74147000D01*
X157222865Y-63192410D02*
X154915275Y-65500000D01*
X157222865Y-63192410D02*
X157071865Y-63343410D01*
X154915275Y-65500000D02*
X154000000Y-65500000D01*
X180693275Y-74147000D02*
X187027865Y-67812410D01*
X160147000Y-74147000D02*
X180693275Y-74147000D01*
%TO.N,GP28*%
X157071865Y-52071865D02*
X162647000Y-57647000D01*
X162647000Y-57647000D02*
X184283275Y-57647000D01*
X184283275Y-57647000D02*
X184487865Y-57442410D01*
X157071865Y-46343410D02*
X157071865Y-52071865D01*
X157222865Y-46192410D02*
X157071865Y-46343410D01*
X157222865Y-46192410D02*
X154915275Y-48500000D01*
X154915275Y-48500000D02*
X154000000Y-48500000D01*
%TO.N,GP9*%
X197187865Y-69312135D02*
X197187865Y-67812410D01*
X192000000Y-71500000D02*
X195000000Y-71500000D01*
X175222865Y-82192410D02*
X172915275Y-84500000D01*
X175222865Y-82192410D02*
X181307590Y-82192410D01*
X181307590Y-82192410D02*
X192000000Y-71500000D01*
X172915275Y-84500000D02*
X172000000Y-84500000D01*
X195000000Y-71500000D02*
X197187865Y-69312135D01*
%TO.N,GP14*%
X172915275Y-67500000D02*
X172000000Y-67500000D01*
X175500000Y-73696000D02*
X178394275Y-73696000D01*
X175222865Y-65192410D02*
X175071865Y-65343410D01*
X175222865Y-65192410D02*
X172915275Y-67500000D01*
X175071865Y-65343410D02*
X175071865Y-73267865D01*
X175071865Y-73267865D02*
X175500000Y-73696000D01*
X178394275Y-73696000D02*
X184487865Y-67602410D01*
%TO.N,GP29*%
X178196000Y-57196000D02*
X181000000Y-57196000D01*
X172915275Y-50500000D02*
X172000000Y-50500000D01*
X183293590Y-54902410D02*
X184487865Y-54902410D01*
X175071865Y-48343410D02*
X175071865Y-54071865D01*
X181000000Y-57196000D02*
X183293590Y-54902410D01*
X175222865Y-48192410D02*
X172915275Y-50500000D01*
X175222865Y-48192410D02*
X175071865Y-48343410D01*
X175071865Y-54071865D02*
X178196000Y-57196000D01*
%TO.N,GP4*%
X182000000Y-100500000D02*
X185500000Y-97000000D01*
X194690276Y-76647000D02*
X198701865Y-72635411D01*
X185500000Y-97000000D02*
X185500000Y-91137810D01*
X188931095Y-80254766D02*
X192538861Y-76647000D01*
X153015275Y-100500000D02*
X182000000Y-100500000D01*
X198701865Y-72635411D02*
X198701865Y-58468410D01*
X150022865Y-103492410D02*
X147515275Y-106000000D01*
X147515275Y-106000000D02*
X147000000Y-106000000D01*
X198701865Y-58468410D02*
X199727865Y-57442410D01*
X150022865Y-103492410D02*
X153015275Y-100500000D01*
X185500000Y-91137810D02*
X188931095Y-87706715D01*
X192538861Y-76647000D02*
X194690276Y-76647000D01*
X188931095Y-87706715D02*
X188931095Y-80254766D01*
%TO.N,GP3*%
X192725671Y-77098000D02*
X194877086Y-77098000D01*
X202000000Y-56787825D02*
X200114585Y-54902410D01*
X170194029Y-109000000D02*
X168000000Y-109000000D01*
X194877086Y-77098000D02*
X202049000Y-69926086D01*
X202049000Y-69926086D02*
X202049000Y-60549000D01*
X189500000Y-87775620D02*
X189500000Y-80323671D01*
X178243029Y-100951000D02*
X182186810Y-100951000D01*
X202049000Y-60549000D02*
X202000000Y-60500000D01*
X189500000Y-80323671D02*
X192725671Y-77098000D01*
X172151245Y-107042784D02*
X170194029Y-109000000D01*
X200114585Y-54902410D02*
X199727865Y-54902410D01*
X182186810Y-100951000D02*
X186000000Y-97137810D01*
X202000000Y-60500000D02*
X202000000Y-56787825D01*
X186000000Y-91275620D02*
X189500000Y-87775620D01*
X172151245Y-107042784D02*
X178243029Y-100951000D01*
X186000000Y-97137810D02*
X186000000Y-91275620D01*
%TO.N,GP2*%
X190000000Y-87913430D02*
X190000000Y-80461481D01*
X192873096Y-99373096D02*
X187500000Y-94000000D01*
X187500000Y-90413430D02*
X190000000Y-87913430D01*
X187500000Y-94000000D02*
X187500000Y-90413430D01*
X202500000Y-54747825D02*
X200114585Y-52362410D01*
X190000000Y-80461481D02*
X192912481Y-77549000D01*
X189500000Y-117500000D02*
X189000000Y-117000000D01*
X200114585Y-52362410D02*
X199727865Y-52362410D01*
X195063896Y-77549000D02*
X202500000Y-70112896D01*
X192873096Y-116182614D02*
X191555710Y-117500000D01*
X192912481Y-77549000D02*
X195063896Y-77549000D01*
X191555710Y-117500000D02*
X189500000Y-117500000D01*
X192873096Y-116182614D02*
X192873096Y-99373096D01*
X202500000Y-70112896D02*
X202500000Y-54747825D01*
X189000000Y-117000000D02*
X188500000Y-116500000D01*
%TO.N,GP1*%
X199727865Y-49822410D02*
X200322410Y-49822410D01*
X203000000Y-73787654D02*
X198787654Y-78000000D01*
X191881865Y-79217426D02*
X191881865Y-82423251D01*
X200322410Y-49822410D02*
X203000000Y-52500000D01*
X191881865Y-82423251D02*
X191585285Y-82719831D01*
X203000000Y-52500000D02*
X203000000Y-73787654D01*
X193099291Y-78000000D02*
X191881865Y-79217426D01*
X198787654Y-78000000D02*
X193099291Y-78000000D01*
%TO.N,P5V*%
X198809054Y-78616410D02*
X197000000Y-78616410D01*
X147473280Y-115000000D02*
X143623865Y-111150585D01*
X174500000Y-107473280D02*
X174500000Y-108213152D01*
X181847865Y-78642410D02*
X183207865Y-78642410D01*
X185901865Y-48696410D02*
X201528585Y-48696410D01*
X186008288Y-103008288D02*
X178964992Y-103008288D01*
X203500000Y-50667825D02*
X203500000Y-73925464D01*
X143623865Y-108000000D02*
X143623865Y-99958410D01*
X146936134Y-56648628D02*
X148113928Y-57328628D01*
X173376399Y-112139015D02*
X170207673Y-112139015D01*
X193933865Y-79665426D02*
X193933865Y-82209096D01*
X203500000Y-73925464D02*
X198809054Y-78616410D01*
X201528585Y-48696410D02*
X203500000Y-50667825D01*
X175124066Y-108837218D02*
X175124066Y-110391348D01*
X143623865Y-99958410D02*
X143607865Y-99942410D01*
X174500000Y-108213152D02*
X175124066Y-108837218D01*
X188000000Y-103500000D02*
X188000000Y-98500000D01*
X193933865Y-82209096D02*
X193558037Y-82584924D01*
X170207673Y-112139015D02*
X167346688Y-115000000D01*
X167346688Y-115000000D02*
X147473280Y-115000000D01*
X183207865Y-78642410D02*
X183357590Y-78642410D01*
X197000000Y-78616410D02*
X197000000Y-79500000D01*
X142247865Y-99942410D02*
X143607865Y-99942410D01*
X193558037Y-82584924D02*
X193407865Y-82584924D01*
X143623865Y-111150585D02*
X143623865Y-108000000D01*
X175124066Y-110391348D02*
X173376399Y-112139015D01*
X106585396Y-74068721D02*
X107863378Y-74533869D01*
X188000000Y-105000000D02*
X188000000Y-103500000D01*
X197000000Y-78616410D02*
X194982881Y-78616410D01*
X178964992Y-103008288D02*
X174500000Y-107473280D01*
X183357590Y-78642410D02*
X185500000Y-76500000D01*
X184487865Y-47282410D02*
X185901865Y-48696410D01*
X186355903Y-108320724D02*
X187533697Y-109000724D01*
X188000000Y-105000000D02*
X186008288Y-103008288D01*
X194982881Y-78616410D02*
X193933865Y-79665426D01*
%TO.N,GP0*%
X140131039Y-53135397D02*
X141011039Y-51611192D01*
X140283136Y-53713958D02*
X140131039Y-53135397D01*
X141190731Y-54237958D02*
X140283136Y-53713958D01*
X142259596Y-53948628D02*
X141190731Y-54237958D01*
%TO.N,D1*%
X149584691Y-56561192D02*
X149584691Y-56884585D01*
X143000000Y-58500000D02*
X138250000Y-53750000D01*
X147969276Y-58500000D02*
X146000000Y-58500000D01*
X149584691Y-56884585D02*
X147969276Y-58500000D01*
X138250000Y-53750000D02*
X136500000Y-52000000D01*
X149584691Y-56561192D02*
X147636134Y-55436192D01*
X146000000Y-58500000D02*
X143000000Y-58500000D01*
%TO.N,D2*%
X135018865Y-100727410D02*
X134597865Y-100302410D01*
X136066865Y-100727410D02*
X135018865Y-100727410D01*
X109178533Y-73522697D02*
X109181170Y-73520060D01*
X105500000Y-69000000D02*
X95500000Y-69000000D01*
X134597865Y-100302410D02*
X134597865Y-98542410D01*
X136847865Y-99942410D02*
X136066865Y-100727410D01*
X107500000Y-71000000D02*
X105500000Y-69000000D01*
X109181170Y-72681170D02*
X107500000Y-71000000D01*
X109178533Y-73522697D02*
X107064225Y-72753152D01*
X109181170Y-73520060D02*
X109181170Y-72681170D01*
%TO.N,D3*%
X144497865Y-110997865D02*
X146000000Y-112500000D01*
X144497865Y-98542410D02*
X142247865Y-98542410D01*
X179702905Y-105386053D02*
X180610500Y-105910053D01*
X144497865Y-98542410D02*
X144497865Y-110997865D01*
X179550809Y-104807493D02*
X179702905Y-105386053D01*
X180610500Y-105910053D02*
X181679366Y-105620724D01*
X179550809Y-104449191D02*
X180000000Y-104000000D01*
X179550809Y-104807493D02*
X179550809Y-104449191D01*
%TO.N,D4*%
X176447865Y-78642410D02*
X175666865Y-79427410D01*
X189004460Y-98504460D02*
X189000000Y-98500000D01*
X189004460Y-108233288D02*
X187055903Y-107108288D01*
X175666865Y-79427410D02*
X174618865Y-79427410D01*
X174618865Y-79427410D02*
X174197865Y-79002410D01*
X174197865Y-79002410D02*
X174197865Y-77242410D01*
X189004460Y-108233288D02*
X189004460Y-103995540D01*
X189004460Y-103995540D02*
X189004460Y-98504460D01*
%TO.N,D5*%
X184097865Y-77242410D02*
X181847865Y-77242410D01*
%TD*%
M02*
