M48
; DRILL file {KiCad 9.0.3} date 2025-07-20T18:48:34+0200
; FORMAT={-:-/ absolute / metric / decimal}
; #@! TF.CreationDate,2025-07-20T18:48:34+02:00
; #@! TF.GenerationSoftware,Kicad,Pcbnew,9.0.3
; #@! TF.FileFunction,Plated,1,2,PTH
FMAT,2
METRIC
; #@! TA.AperFunction,Plated,PTH,ViaDrill
T1C0.400
; #@! TA.AperFunction,Plated,PTH,ComponentDrill
T2C0.400
; #@! TA.AperFunction,Plated,PTH,ComponentDrill
T3C0.900
; #@! TA.AperFunction,Plated,PTH,ComponentDrill
T4C1.092
%
G90
G05
T1
X93.5Y-63.0
X95.5Y-69.0
X96.5Y-80.0
X98.0Y-98.0
X99.0Y-70.137
X99.5Y-96.5
X100.0Y-71.0
X100.209Y-73.791
X101.594Y-65.0
X103.0Y-57.5
X107.863Y-74.534
X108.5Y-78.128
X109.179Y-73.523
X114.0Y-49.5
X115.5Y-66.5
X117.0Y-83.0
X122.322Y-51.0
X123.23Y-80.27
X123.804Y-62.5
X134.598Y-98.542
X135.488Y-99.942
X136.0Y-43.5
X136.0Y-60.5
X136.0Y-77.5
X136.5Y-52.0
X138.5Y-101.616
X141.011Y-51.611
X141.082Y-53.269
X143.0Y-47.5
X143.608Y-99.942
X144.498Y-98.542
X144.5Y-63.0
X146.0Y-112.5
X147.0Y-77.392
X147.0Y-106.0
X148.114Y-57.329
X149.585Y-56.561
X154.0Y-48.5
X154.0Y-65.5
X154.0Y-82.5
X158.5Y-105.692
X162.0Y-67.5
X162.223Y-53.5
X162.223Y-87.0
X168.0Y-109.0
X172.0Y-50.5
X172.0Y-67.5
X172.0Y-84.5
X174.198Y-77.242
X175.088Y-78.642
X175.25Y-107.75
X180.0Y-104.0
X180.502Y-104.941
X183.208Y-78.642
X185.5Y-76.5
X185.5Y-82.5
X186.5Y-80.5
X187.5Y-78.5
X187.534Y-109.001
X188.0Y-98.5
X188.0Y-105.0
X188.5Y-76.5
X188.5Y-116.5
X189.004Y-98.504
X189.004Y-108.233
X197.0Y-79.5
T2
X191.908Y-83.042
X193.408Y-83.042
X194.908Y-83.042
X196.408Y-83.042
T3
X192.908Y-79.642
X192.908Y-86.442
X195.408Y-79.642
X195.408Y-86.442
T4
X184.488Y-47.282
X184.488Y-47.282
X184.488Y-49.822
X184.488Y-49.822
X184.488Y-52.362
X184.488Y-52.362
X184.488Y-54.902
X184.488Y-54.902
X184.488Y-57.442
X184.488Y-57.442
X184.488Y-59.982
X184.488Y-59.982
X184.488Y-62.522
X184.488Y-62.522
X184.488Y-65.062
X184.488Y-65.062
X184.488Y-67.602
X184.488Y-67.602
X187.028Y-67.812
X187.028Y-67.812
X189.568Y-67.812
X189.568Y-67.812
X192.108Y-67.812
X192.108Y-67.812
X194.648Y-67.812
X194.648Y-67.812
X197.188Y-67.812
X197.188Y-67.812
X199.728Y-47.282
X199.728Y-47.282
X199.728Y-49.822
X199.728Y-49.822
X199.728Y-52.362
X199.728Y-52.362
X199.728Y-54.902
X199.728Y-54.902
X199.728Y-57.442
X199.728Y-57.442
X199.728Y-59.982
X199.728Y-59.982
X199.728Y-62.522
X199.728Y-62.522
X199.728Y-65.062
X199.728Y-65.062
X199.728Y-67.602
X199.728Y-67.602
M30
