%TF.GenerationSoftware,KiCad,Pcbnew,9.0.3*%
%TF.CreationDate,2025-07-20T18:48:36+02:00*%
%TF.ProjectId,kdb-v1,6b64622d-7631-42e6-9b69-6361645f7063,v1.0.0*%
%TF.SameCoordinates,Original*%
%TF.FileFunction,Legend,Bot*%
%TF.FilePolarity,Positive*%
%FSLAX46Y46*%
G04 Gerber Fmt 4.6, Leading zero omitted, Abs format (unit mm)*
G04 Created by KiCad (PCBNEW 9.0.3) date 2025-07-20 18:48:36*
%MOMM*%
%LPD*%
G01*
G04 APERTURE LIST*
%ADD10C,0.125000*%
%ADD11C,0.150000*%
%ADD12C,0.100000*%
%ADD13C,0.120000*%
G04 APERTURE END LIST*
D10*
X203036811Y-91094508D02*
X203274906Y-91761175D01*
X203274906Y-90761175D02*
X203179668Y-90761175D01*
X203179668Y-90761175D02*
X203132049Y-90808794D01*
X203132049Y-90808794D02*
X203036811Y-91094508D01*
X203036811Y-91094508D02*
X202798716Y-91761175D01*
X201655858Y-91761175D02*
X201655858Y-90761175D01*
X201084430Y-91761175D02*
X201513001Y-91189746D01*
X201084430Y-90761175D02*
X201655858Y-91332603D01*
X200227287Y-91761175D02*
X200227287Y-90761175D01*
X200227287Y-91713556D02*
X200322525Y-91761175D01*
X200322525Y-91761175D02*
X200513001Y-91761175D01*
X200513001Y-91761175D02*
X200608239Y-91713556D01*
X200608239Y-91713556D02*
X200655858Y-91665936D01*
X200655858Y-91665936D02*
X200703477Y-91570698D01*
X200703477Y-91570698D02*
X200703477Y-91284984D01*
X200703477Y-91284984D02*
X200655858Y-91189746D01*
X200655858Y-91189746D02*
X200608239Y-91142127D01*
X200608239Y-91142127D02*
X200513001Y-91094508D01*
X200513001Y-91094508D02*
X200322525Y-91094508D01*
X200322525Y-91094508D02*
X200227287Y-91142127D01*
X199751096Y-91761175D02*
X199751096Y-90761175D01*
X199751096Y-91142127D02*
X199655858Y-91094508D01*
X199655858Y-91094508D02*
X199465382Y-91094508D01*
X199465382Y-91094508D02*
X199370144Y-91142127D01*
X199370144Y-91142127D02*
X199322525Y-91189746D01*
X199322525Y-91189746D02*
X199274906Y-91284984D01*
X199274906Y-91284984D02*
X199274906Y-91570698D01*
X199274906Y-91570698D02*
X199322525Y-91665936D01*
X199322525Y-91665936D02*
X199370144Y-91713556D01*
X199370144Y-91713556D02*
X199465382Y-91761175D01*
X199465382Y-91761175D02*
X199655858Y-91761175D01*
X199655858Y-91761175D02*
X199751096Y-91713556D01*
X198846334Y-91665936D02*
X198798715Y-91713556D01*
X198798715Y-91713556D02*
X198846334Y-91761175D01*
X198846334Y-91761175D02*
X198893953Y-91713556D01*
X198893953Y-91713556D02*
X198846334Y-91665936D01*
X198846334Y-91665936D02*
X198846334Y-91761175D01*
X203036811Y-93371119D02*
X203132049Y-93323500D01*
X203132049Y-93323500D02*
X203179668Y-93228261D01*
X203179668Y-93228261D02*
X203179668Y-92371119D01*
X202274906Y-93323500D02*
X202370144Y-93371119D01*
X202370144Y-93371119D02*
X202560620Y-93371119D01*
X202560620Y-93371119D02*
X202655858Y-93323500D01*
X202655858Y-93323500D02*
X202703477Y-93228261D01*
X202703477Y-93228261D02*
X202703477Y-92847309D01*
X202703477Y-92847309D02*
X202655858Y-92752071D01*
X202655858Y-92752071D02*
X202560620Y-92704452D01*
X202560620Y-92704452D02*
X202370144Y-92704452D01*
X202370144Y-92704452D02*
X202274906Y-92752071D01*
X202274906Y-92752071D02*
X202227287Y-92847309D01*
X202227287Y-92847309D02*
X202227287Y-92942547D01*
X202227287Y-92942547D02*
X202703477Y-93037785D01*
X201655858Y-93371119D02*
X201751096Y-93323500D01*
X201751096Y-93323500D02*
X201798715Y-93275880D01*
X201798715Y-93275880D02*
X201846334Y-93180642D01*
X201846334Y-93180642D02*
X201846334Y-92894928D01*
X201846334Y-92894928D02*
X201798715Y-92799690D01*
X201798715Y-92799690D02*
X201751096Y-92752071D01*
X201751096Y-92752071D02*
X201655858Y-92704452D01*
X201655858Y-92704452D02*
X201513001Y-92704452D01*
X201513001Y-92704452D02*
X201417763Y-92752071D01*
X201417763Y-92752071D02*
X201370144Y-92799690D01*
X201370144Y-92799690D02*
X201322525Y-92894928D01*
X201322525Y-92894928D02*
X201322525Y-93180642D01*
X201322525Y-93180642D02*
X201370144Y-93275880D01*
X201370144Y-93275880D02*
X201417763Y-93323500D01*
X201417763Y-93323500D02*
X201513001Y-93371119D01*
X201513001Y-93371119D02*
X201655858Y-93371119D01*
X200893953Y-92990166D02*
X200132049Y-92990166D01*
X199703477Y-92466357D02*
X199655858Y-92418738D01*
X199655858Y-92418738D02*
X199560620Y-92371119D01*
X199560620Y-92371119D02*
X199322525Y-92371119D01*
X199322525Y-92371119D02*
X199227287Y-92418738D01*
X199227287Y-92418738D02*
X199179668Y-92466357D01*
X199179668Y-92466357D02*
X199132049Y-92561595D01*
X199132049Y-92561595D02*
X199132049Y-92656833D01*
X199132049Y-92656833D02*
X199179668Y-92799690D01*
X199179668Y-92799690D02*
X199751096Y-93371119D01*
X199751096Y-93371119D02*
X199132049Y-93371119D01*
X198179668Y-93371119D02*
X198751096Y-93371119D01*
X198465382Y-93371119D02*
X198465382Y-92371119D01*
X198465382Y-92371119D02*
X198560620Y-92513976D01*
X198560620Y-92513976D02*
X198655858Y-92609214D01*
X198655858Y-92609214D02*
X198751096Y-92656833D01*
X197560620Y-92371119D02*
X197465382Y-92371119D01*
X197465382Y-92371119D02*
X197370144Y-92418738D01*
X197370144Y-92418738D02*
X197322525Y-92466357D01*
X197322525Y-92466357D02*
X197274906Y-92561595D01*
X197274906Y-92561595D02*
X197227287Y-92752071D01*
X197227287Y-92752071D02*
X197227287Y-92990166D01*
X197227287Y-92990166D02*
X197274906Y-93180642D01*
X197274906Y-93180642D02*
X197322525Y-93275880D01*
X197322525Y-93275880D02*
X197370144Y-93323500D01*
X197370144Y-93323500D02*
X197465382Y-93371119D01*
X197465382Y-93371119D02*
X197560620Y-93371119D01*
X197560620Y-93371119D02*
X197655858Y-93323500D01*
X197655858Y-93323500D02*
X197703477Y-93275880D01*
X197703477Y-93275880D02*
X197751096Y-93180642D01*
X197751096Y-93180642D02*
X197798715Y-92990166D01*
X197798715Y-92990166D02*
X197798715Y-92752071D01*
X197798715Y-92752071D02*
X197751096Y-92561595D01*
X197751096Y-92561595D02*
X197703477Y-92466357D01*
X197703477Y-92466357D02*
X197655858Y-92418738D01*
X197655858Y-92418738D02*
X197560620Y-92371119D01*
X195893953Y-93371119D02*
X195989191Y-93323500D01*
X195989191Y-93323500D02*
X196036810Y-93275880D01*
X196036810Y-93275880D02*
X196084429Y-93180642D01*
X196084429Y-93180642D02*
X196084429Y-92894928D01*
X196084429Y-92894928D02*
X196036810Y-92799690D01*
X196036810Y-92799690D02*
X195989191Y-92752071D01*
X195989191Y-92752071D02*
X195893953Y-92704452D01*
X195893953Y-92704452D02*
X195751096Y-92704452D01*
X195751096Y-92704452D02*
X195655858Y-92752071D01*
X195655858Y-92752071D02*
X195608239Y-92799690D01*
X195608239Y-92799690D02*
X195560620Y-92894928D01*
X195560620Y-92894928D02*
X195560620Y-93180642D01*
X195560620Y-93180642D02*
X195608239Y-93275880D01*
X195608239Y-93275880D02*
X195655858Y-93323500D01*
X195655858Y-93323500D02*
X195751096Y-93371119D01*
X195751096Y-93371119D02*
X195893953Y-93371119D01*
X195132048Y-92704452D02*
X195132048Y-93371119D01*
X195132048Y-92799690D02*
X195084429Y-92752071D01*
X195084429Y-92752071D02*
X194989191Y-92704452D01*
X194989191Y-92704452D02*
X194846334Y-92704452D01*
X194846334Y-92704452D02*
X194751096Y-92752071D01*
X194751096Y-92752071D02*
X194703477Y-92847309D01*
X194703477Y-92847309D02*
X194703477Y-93371119D01*
X193036810Y-92704452D02*
X193036810Y-93513976D01*
X193036810Y-93513976D02*
X193084429Y-93609214D01*
X193084429Y-93609214D02*
X193132048Y-93656833D01*
X193132048Y-93656833D02*
X193227286Y-93704452D01*
X193227286Y-93704452D02*
X193370143Y-93704452D01*
X193370143Y-93704452D02*
X193465381Y-93656833D01*
X193036810Y-93323500D02*
X193132048Y-93371119D01*
X193132048Y-93371119D02*
X193322524Y-93371119D01*
X193322524Y-93371119D02*
X193417762Y-93323500D01*
X193417762Y-93323500D02*
X193465381Y-93275880D01*
X193465381Y-93275880D02*
X193513000Y-93180642D01*
X193513000Y-93180642D02*
X193513000Y-92894928D01*
X193513000Y-92894928D02*
X193465381Y-92799690D01*
X193465381Y-92799690D02*
X193417762Y-92752071D01*
X193417762Y-92752071D02*
X193322524Y-92704452D01*
X193322524Y-92704452D02*
X193132048Y-92704452D01*
X193132048Y-92704452D02*
X193036810Y-92752071D01*
X192560619Y-93371119D02*
X192560619Y-92704452D01*
X192560619Y-92371119D02*
X192608238Y-92418738D01*
X192608238Y-92418738D02*
X192560619Y-92466357D01*
X192560619Y-92466357D02*
X192513000Y-92418738D01*
X192513000Y-92418738D02*
X192560619Y-92371119D01*
X192560619Y-92371119D02*
X192560619Y-92466357D01*
X192227286Y-92704452D02*
X191846334Y-92704452D01*
X192084429Y-92371119D02*
X192084429Y-93228261D01*
X192084429Y-93228261D02*
X192036810Y-93323500D01*
X192036810Y-93323500D02*
X191941572Y-93371119D01*
X191941572Y-93371119D02*
X191846334Y-93371119D01*
X191513000Y-93371119D02*
X191513000Y-92371119D01*
X191084429Y-93371119D02*
X191084429Y-92847309D01*
X191084429Y-92847309D02*
X191132048Y-92752071D01*
X191132048Y-92752071D02*
X191227286Y-92704452D01*
X191227286Y-92704452D02*
X191370143Y-92704452D01*
X191370143Y-92704452D02*
X191465381Y-92752071D01*
X191465381Y-92752071D02*
X191513000Y-92799690D01*
X190179667Y-92704452D02*
X190179667Y-93371119D01*
X190608238Y-92704452D02*
X190608238Y-93228261D01*
X190608238Y-93228261D02*
X190560619Y-93323500D01*
X190560619Y-93323500D02*
X190465381Y-93371119D01*
X190465381Y-93371119D02*
X190322524Y-93371119D01*
X190322524Y-93371119D02*
X190227286Y-93323500D01*
X190227286Y-93323500D02*
X190179667Y-93275880D01*
X189703476Y-93371119D02*
X189703476Y-92371119D01*
X189703476Y-92752071D02*
X189608238Y-92704452D01*
X189608238Y-92704452D02*
X189417762Y-92704452D01*
X189417762Y-92704452D02*
X189322524Y-92752071D01*
X189322524Y-92752071D02*
X189274905Y-92799690D01*
X189274905Y-92799690D02*
X189227286Y-92894928D01*
X189227286Y-92894928D02*
X189227286Y-93180642D01*
X189227286Y-93180642D02*
X189274905Y-93275880D01*
X189274905Y-93275880D02*
X189322524Y-93323500D01*
X189322524Y-93323500D02*
X189417762Y-93371119D01*
X189417762Y-93371119D02*
X189608238Y-93371119D01*
X189608238Y-93371119D02*
X189703476Y-93323500D01*
D11*
X130411934Y-94631045D02*
X130324778Y-93634850D01*
X130324778Y-93634850D02*
X130054967Y-94375470D01*
X130054967Y-94375470D02*
X129660648Y-93692954D01*
X129660648Y-93692954D02*
X129747804Y-94689149D01*
X129242008Y-93825182D02*
X129190420Y-93781895D01*
X129190420Y-93781895D02*
X129091394Y-93742758D01*
X129091394Y-93742758D02*
X128854205Y-93763509D01*
X128854205Y-93763509D02*
X128763480Y-93819247D01*
X128763480Y-93819247D02*
X128720192Y-93870835D01*
X128720192Y-93870835D02*
X128681055Y-93969861D01*
X128681055Y-93969861D02*
X128689355Y-94064737D01*
X128689355Y-94064737D02*
X128749244Y-94202900D01*
X128749244Y-94202900D02*
X129368301Y-94722351D01*
X129368301Y-94722351D02*
X128751610Y-94776305D01*
D10*
X188155859Y-49418738D02*
X188251097Y-49371119D01*
X188251097Y-49371119D02*
X188393954Y-49371119D01*
X188393954Y-49371119D02*
X188536811Y-49418738D01*
X188536811Y-49418738D02*
X188632049Y-49513976D01*
X188632049Y-49513976D02*
X188679668Y-49609214D01*
X188679668Y-49609214D02*
X188727287Y-49799690D01*
X188727287Y-49799690D02*
X188727287Y-49942547D01*
X188727287Y-49942547D02*
X188679668Y-50133023D01*
X188679668Y-50133023D02*
X188632049Y-50228261D01*
X188632049Y-50228261D02*
X188536811Y-50323500D01*
X188536811Y-50323500D02*
X188393954Y-50371119D01*
X188393954Y-50371119D02*
X188298716Y-50371119D01*
X188298716Y-50371119D02*
X188155859Y-50323500D01*
X188155859Y-50323500D02*
X188108240Y-50275880D01*
X188108240Y-50275880D02*
X188108240Y-49942547D01*
X188108240Y-49942547D02*
X188298716Y-49942547D01*
X187679668Y-50371119D02*
X187679668Y-49371119D01*
X187679668Y-49371119D02*
X187108240Y-50371119D01*
X187108240Y-50371119D02*
X187108240Y-49371119D01*
X186632049Y-50371119D02*
X186632049Y-49371119D01*
X186632049Y-49371119D02*
X186393954Y-49371119D01*
X186393954Y-49371119D02*
X186251097Y-49418738D01*
X186251097Y-49418738D02*
X186155859Y-49513976D01*
X186155859Y-49513976D02*
X186108240Y-49609214D01*
X186108240Y-49609214D02*
X186060621Y-49799690D01*
X186060621Y-49799690D02*
X186060621Y-49942547D01*
X186060621Y-49942547D02*
X186108240Y-50133023D01*
X186108240Y-50133023D02*
X186155859Y-50228261D01*
X186155859Y-50228261D02*
X186251097Y-50323500D01*
X186251097Y-50323500D02*
X186393954Y-50371119D01*
X186393954Y-50371119D02*
X186632049Y-50371119D01*
D11*
X184257388Y-97097229D02*
X184257388Y-96097229D01*
X184257388Y-96097229D02*
X183924055Y-96811514D01*
X183924055Y-96811514D02*
X183590722Y-96097229D01*
X183590722Y-96097229D02*
X183590722Y-97097229D01*
X183162150Y-96192467D02*
X183114531Y-96144848D01*
X183114531Y-96144848D02*
X183019293Y-96097229D01*
X183019293Y-96097229D02*
X182781198Y-96097229D01*
X182781198Y-96097229D02*
X182685960Y-96144848D01*
X182685960Y-96144848D02*
X182638341Y-96192467D01*
X182638341Y-96192467D02*
X182590722Y-96287705D01*
X182590722Y-96287705D02*
X182590722Y-96382943D01*
X182590722Y-96382943D02*
X182638341Y-96525800D01*
X182638341Y-96525800D02*
X183209769Y-97097229D01*
X183209769Y-97097229D02*
X182590722Y-97097229D01*
X109146723Y-58095401D02*
X109059567Y-57099206D01*
X109059567Y-57099206D02*
X108789756Y-57839826D01*
X108789756Y-57839826D02*
X108395437Y-57157310D01*
X108395437Y-57157310D02*
X108482593Y-58153505D01*
X107976797Y-57289538D02*
X107925209Y-57246251D01*
X107925209Y-57246251D02*
X107826183Y-57207114D01*
X107826183Y-57207114D02*
X107588994Y-57227865D01*
X107588994Y-57227865D02*
X107498269Y-57283603D01*
X107498269Y-57283603D02*
X107454981Y-57335191D01*
X107454981Y-57335191D02*
X107415844Y-57434217D01*
X107415844Y-57434217D02*
X107424144Y-57529093D01*
X107424144Y-57529093D02*
X107484033Y-57667256D01*
X107484033Y-57667256D02*
X108103090Y-58186707D01*
X108103090Y-58186707D02*
X107486399Y-58240661D01*
X166257388Y-61097229D02*
X166257388Y-60097229D01*
X166257388Y-60097229D02*
X165924055Y-60811514D01*
X165924055Y-60811514D02*
X165590722Y-60097229D01*
X165590722Y-60097229D02*
X165590722Y-61097229D01*
X165162150Y-60192467D02*
X165114531Y-60144848D01*
X165114531Y-60144848D02*
X165019293Y-60097229D01*
X165019293Y-60097229D02*
X164781198Y-60097229D01*
X164781198Y-60097229D02*
X164685960Y-60144848D01*
X164685960Y-60144848D02*
X164638341Y-60192467D01*
X164638341Y-60192467D02*
X164590722Y-60287705D01*
X164590722Y-60287705D02*
X164590722Y-60382943D01*
X164590722Y-60382943D02*
X164638341Y-60525800D01*
X164638341Y-60525800D02*
X165209769Y-61097229D01*
X165209769Y-61097229D02*
X164590722Y-61097229D01*
D10*
X189179668Y-52871119D02*
X189179668Y-51871119D01*
X189179668Y-51871119D02*
X188798716Y-51871119D01*
X188798716Y-51871119D02*
X188703478Y-51918738D01*
X188703478Y-51918738D02*
X188655859Y-51966357D01*
X188655859Y-51966357D02*
X188608240Y-52061595D01*
X188608240Y-52061595D02*
X188608240Y-52204452D01*
X188608240Y-52204452D02*
X188655859Y-52299690D01*
X188655859Y-52299690D02*
X188703478Y-52347309D01*
X188703478Y-52347309D02*
X188798716Y-52394928D01*
X188798716Y-52394928D02*
X189179668Y-52394928D01*
X188274906Y-51871119D02*
X187655859Y-51871119D01*
X187655859Y-51871119D02*
X187989192Y-52252071D01*
X187989192Y-52252071D02*
X187846335Y-52252071D01*
X187846335Y-52252071D02*
X187751097Y-52299690D01*
X187751097Y-52299690D02*
X187703478Y-52347309D01*
X187703478Y-52347309D02*
X187655859Y-52442547D01*
X187655859Y-52442547D02*
X187655859Y-52680642D01*
X187655859Y-52680642D02*
X187703478Y-52775880D01*
X187703478Y-52775880D02*
X187751097Y-52823500D01*
X187751097Y-52823500D02*
X187846335Y-52871119D01*
X187846335Y-52871119D02*
X188132049Y-52871119D01*
X188132049Y-52871119D02*
X188227287Y-52823500D01*
X188227287Y-52823500D02*
X188274906Y-52775880D01*
X187370144Y-51871119D02*
X187036811Y-52871119D01*
X187036811Y-52871119D02*
X186703478Y-51871119D01*
X186465382Y-51871119D02*
X185846335Y-51871119D01*
X185846335Y-51871119D02*
X186179668Y-52252071D01*
X186179668Y-52252071D02*
X186036811Y-52252071D01*
X186036811Y-52252071D02*
X185941573Y-52299690D01*
X185941573Y-52299690D02*
X185893954Y-52347309D01*
X185893954Y-52347309D02*
X185846335Y-52442547D01*
X185846335Y-52442547D02*
X185846335Y-52680642D01*
X185846335Y-52680642D02*
X185893954Y-52775880D01*
X185893954Y-52775880D02*
X185941573Y-52823500D01*
X185941573Y-52823500D02*
X186036811Y-52871119D01*
X186036811Y-52871119D02*
X186322525Y-52871119D01*
X186322525Y-52871119D02*
X186417763Y-52823500D01*
X186417763Y-52823500D02*
X186465382Y-52775880D01*
X188179668Y-47871119D02*
X188179668Y-46871119D01*
X188179668Y-46871119D02*
X187798716Y-46871119D01*
X187798716Y-46871119D02*
X187703478Y-46918738D01*
X187703478Y-46918738D02*
X187655859Y-46966357D01*
X187655859Y-46966357D02*
X187608240Y-47061595D01*
X187608240Y-47061595D02*
X187608240Y-47204452D01*
X187608240Y-47204452D02*
X187655859Y-47299690D01*
X187655859Y-47299690D02*
X187703478Y-47347309D01*
X187703478Y-47347309D02*
X187798716Y-47394928D01*
X187798716Y-47394928D02*
X188179668Y-47394928D01*
X187322525Y-46871119D02*
X186989192Y-47871119D01*
X186989192Y-47871119D02*
X186655859Y-46871119D01*
X185846335Y-46871119D02*
X186322525Y-46871119D01*
X186322525Y-46871119D02*
X186370144Y-47347309D01*
X186370144Y-47347309D02*
X186322525Y-47299690D01*
X186322525Y-47299690D02*
X186227287Y-47252071D01*
X186227287Y-47252071D02*
X185989192Y-47252071D01*
X185989192Y-47252071D02*
X185893954Y-47299690D01*
X185893954Y-47299690D02*
X185846335Y-47347309D01*
X185846335Y-47347309D02*
X185798716Y-47442547D01*
X185798716Y-47442547D02*
X185798716Y-47680642D01*
X185798716Y-47680642D02*
X185846335Y-47775880D01*
X185846335Y-47775880D02*
X185893954Y-47823500D01*
X185893954Y-47823500D02*
X185989192Y-47871119D01*
X185989192Y-47871119D02*
X186227287Y-47871119D01*
X186227287Y-47871119D02*
X186322525Y-47823500D01*
X186322525Y-47823500D02*
X186370144Y-47775880D01*
D11*
X197138093Y-85299551D02*
X197738093Y-85299551D01*
X197738093Y-85299551D02*
X197309522Y-85099551D01*
X197309522Y-85099551D02*
X197738093Y-84899551D01*
X197738093Y-84899551D02*
X197138093Y-84899551D01*
X197138093Y-84613837D02*
X197538093Y-84613837D01*
X197738093Y-84613837D02*
X197709522Y-84642409D01*
X197709522Y-84642409D02*
X197680950Y-84613837D01*
X197680950Y-84613837D02*
X197709522Y-84585266D01*
X197709522Y-84585266D02*
X197738093Y-84613837D01*
X197738093Y-84613837D02*
X197680950Y-84613837D01*
X197538093Y-84328123D02*
X197138093Y-84328123D01*
X197480950Y-84328123D02*
X197509522Y-84299552D01*
X197509522Y-84299552D02*
X197538093Y-84242409D01*
X197538093Y-84242409D02*
X197538093Y-84156695D01*
X197538093Y-84156695D02*
X197509522Y-84099552D01*
X197509522Y-84099552D02*
X197452379Y-84070981D01*
X197452379Y-84070981D02*
X197138093Y-84070981D01*
X197138093Y-83785266D02*
X197538093Y-83785266D01*
X197738093Y-83785266D02*
X197709522Y-83813838D01*
X197709522Y-83813838D02*
X197680950Y-83785266D01*
X197680950Y-83785266D02*
X197709522Y-83756695D01*
X197709522Y-83756695D02*
X197738093Y-83785266D01*
X197738093Y-83785266D02*
X197680950Y-83785266D01*
X197138093Y-83042409D02*
X197738093Y-83042409D01*
X197738093Y-83042409D02*
X197738093Y-82899552D01*
X197738093Y-82899552D02*
X197709522Y-82813838D01*
X197709522Y-82813838D02*
X197652379Y-82756695D01*
X197652379Y-82756695D02*
X197595236Y-82728124D01*
X197595236Y-82728124D02*
X197480950Y-82699552D01*
X197480950Y-82699552D02*
X197395236Y-82699552D01*
X197395236Y-82699552D02*
X197280950Y-82728124D01*
X197280950Y-82728124D02*
X197223807Y-82756695D01*
X197223807Y-82756695D02*
X197166665Y-82813838D01*
X197166665Y-82813838D02*
X197138093Y-82899552D01*
X197138093Y-82899552D02*
X197138093Y-83042409D01*
X197138093Y-82442409D02*
X197738093Y-82442409D01*
X197138093Y-82156695D02*
X197738093Y-82156695D01*
X197738093Y-82156695D02*
X197138093Y-81813838D01*
X197138093Y-81813838D02*
X197738093Y-81813838D01*
X197538093Y-80813839D02*
X197138093Y-80813839D01*
X197766665Y-80956696D02*
X197338093Y-81099553D01*
X197338093Y-81099553D02*
X197338093Y-80728124D01*
X200489093Y-87215154D02*
X200517665Y-87272297D01*
X200517665Y-87272297D02*
X200546236Y-87300868D01*
X200546236Y-87300868D02*
X200603379Y-87329440D01*
X200603379Y-87329440D02*
X200774807Y-87329440D01*
X200774807Y-87329440D02*
X200831950Y-87300868D01*
X200831950Y-87300868D02*
X200860522Y-87272297D01*
X200860522Y-87272297D02*
X200889093Y-87215154D01*
X200889093Y-87215154D02*
X200889093Y-87129440D01*
X200889093Y-87129440D02*
X200860522Y-87072297D01*
X200860522Y-87072297D02*
X200831950Y-87043726D01*
X200831950Y-87043726D02*
X200774807Y-87015154D01*
X200774807Y-87015154D02*
X200603379Y-87015154D01*
X200603379Y-87015154D02*
X200546236Y-87043726D01*
X200546236Y-87043726D02*
X200517665Y-87072297D01*
X200517665Y-87072297D02*
X200489093Y-87129440D01*
X200489093Y-87129440D02*
X200489093Y-87215154D01*
X200889093Y-86758011D02*
X200489093Y-86758011D01*
X200831950Y-86758011D02*
X200860522Y-86729440D01*
X200860522Y-86729440D02*
X200889093Y-86672297D01*
X200889093Y-86672297D02*
X200889093Y-86586583D01*
X200889093Y-86586583D02*
X200860522Y-86529440D01*
X200860522Y-86529440D02*
X200803379Y-86500869D01*
X200803379Y-86500869D02*
X200489093Y-86500869D01*
X200889093Y-85843726D02*
X200889093Y-85615154D01*
X201089093Y-85758011D02*
X200574807Y-85758011D01*
X200574807Y-85758011D02*
X200517665Y-85729440D01*
X200517665Y-85729440D02*
X200489093Y-85672297D01*
X200489093Y-85672297D02*
X200489093Y-85615154D01*
X200489093Y-85415154D02*
X201089093Y-85415154D01*
X200489093Y-85158012D02*
X200803379Y-85158012D01*
X200803379Y-85158012D02*
X200860522Y-85186583D01*
X200860522Y-85186583D02*
X200889093Y-85243726D01*
X200889093Y-85243726D02*
X200889093Y-85329440D01*
X200889093Y-85329440D02*
X200860522Y-85386583D01*
X200860522Y-85386583D02*
X200831950Y-85415154D01*
X200517665Y-84643726D02*
X200489093Y-84700869D01*
X200489093Y-84700869D02*
X200489093Y-84815155D01*
X200489093Y-84815155D02*
X200517665Y-84872297D01*
X200517665Y-84872297D02*
X200574807Y-84900869D01*
X200574807Y-84900869D02*
X200803379Y-84900869D01*
X200803379Y-84900869D02*
X200860522Y-84872297D01*
X200860522Y-84872297D02*
X200889093Y-84815155D01*
X200889093Y-84815155D02*
X200889093Y-84700869D01*
X200889093Y-84700869D02*
X200860522Y-84643726D01*
X200860522Y-84643726D02*
X200803379Y-84615155D01*
X200803379Y-84615155D02*
X200746236Y-84615155D01*
X200746236Y-84615155D02*
X200689093Y-84900869D01*
X201089093Y-83786583D02*
X201089093Y-83672297D01*
X201089093Y-83672297D02*
X201060522Y-83615154D01*
X201060522Y-83615154D02*
X201003379Y-83558011D01*
X201003379Y-83558011D02*
X200889093Y-83529440D01*
X200889093Y-83529440D02*
X200689093Y-83529440D01*
X200689093Y-83529440D02*
X200574807Y-83558011D01*
X200574807Y-83558011D02*
X200517665Y-83615154D01*
X200517665Y-83615154D02*
X200489093Y-83672297D01*
X200489093Y-83672297D02*
X200489093Y-83786583D01*
X200489093Y-83786583D02*
X200517665Y-83843726D01*
X200517665Y-83843726D02*
X200574807Y-83900868D01*
X200574807Y-83900868D02*
X200689093Y-83929440D01*
X200689093Y-83929440D02*
X200889093Y-83929440D01*
X200889093Y-83929440D02*
X201003379Y-83900868D01*
X201003379Y-83900868D02*
X201060522Y-83843726D01*
X201060522Y-83843726D02*
X201089093Y-83786583D01*
X200489093Y-83272297D02*
X201089093Y-83272297D01*
X201089093Y-83272297D02*
X201089093Y-83043726D01*
X201089093Y-83043726D02*
X201060522Y-82986583D01*
X201060522Y-82986583D02*
X201031950Y-82958012D01*
X201031950Y-82958012D02*
X200974807Y-82929440D01*
X200974807Y-82929440D02*
X200889093Y-82929440D01*
X200889093Y-82929440D02*
X200831950Y-82958012D01*
X200831950Y-82958012D02*
X200803379Y-82986583D01*
X200803379Y-82986583D02*
X200774807Y-83043726D01*
X200774807Y-83043726D02*
X200774807Y-83272297D01*
X200489093Y-82672297D02*
X201089093Y-82672297D01*
X201089093Y-82672297D02*
X201089093Y-82443726D01*
X201089093Y-82443726D02*
X201060522Y-82386583D01*
X201060522Y-82386583D02*
X201031950Y-82358012D01*
X201031950Y-82358012D02*
X200974807Y-82329440D01*
X200974807Y-82329440D02*
X200889093Y-82329440D01*
X200889093Y-82329440D02*
X200831950Y-82358012D01*
X200831950Y-82358012D02*
X200803379Y-82386583D01*
X200803379Y-82386583D02*
X200774807Y-82443726D01*
X200774807Y-82443726D02*
X200774807Y-82672297D01*
X201089093Y-81958012D02*
X201089093Y-81843726D01*
X201089093Y-81843726D02*
X201060522Y-81786583D01*
X201060522Y-81786583D02*
X201003379Y-81729440D01*
X201003379Y-81729440D02*
X200889093Y-81700869D01*
X200889093Y-81700869D02*
X200689093Y-81700869D01*
X200689093Y-81700869D02*
X200574807Y-81729440D01*
X200574807Y-81729440D02*
X200517665Y-81786583D01*
X200517665Y-81786583D02*
X200489093Y-81843726D01*
X200489093Y-81843726D02*
X200489093Y-81958012D01*
X200489093Y-81958012D02*
X200517665Y-82015155D01*
X200517665Y-82015155D02*
X200574807Y-82072297D01*
X200574807Y-82072297D02*
X200689093Y-82100869D01*
X200689093Y-82100869D02*
X200889093Y-82100869D01*
X200889093Y-82100869D02*
X201003379Y-82072297D01*
X201003379Y-82072297D02*
X201060522Y-82015155D01*
X201060522Y-82015155D02*
X201089093Y-81958012D01*
X200517665Y-81472298D02*
X200489093Y-81386584D01*
X200489093Y-81386584D02*
X200489093Y-81243726D01*
X200489093Y-81243726D02*
X200517665Y-81186584D01*
X200517665Y-81186584D02*
X200546236Y-81158012D01*
X200546236Y-81158012D02*
X200603379Y-81129441D01*
X200603379Y-81129441D02*
X200660522Y-81129441D01*
X200660522Y-81129441D02*
X200717665Y-81158012D01*
X200717665Y-81158012D02*
X200746236Y-81186584D01*
X200746236Y-81186584D02*
X200774807Y-81243726D01*
X200774807Y-81243726D02*
X200803379Y-81358012D01*
X200803379Y-81358012D02*
X200831950Y-81415155D01*
X200831950Y-81415155D02*
X200860522Y-81443726D01*
X200860522Y-81443726D02*
X200917665Y-81472298D01*
X200917665Y-81472298D02*
X200974807Y-81472298D01*
X200974807Y-81472298D02*
X201031950Y-81443726D01*
X201031950Y-81443726D02*
X201060522Y-81415155D01*
X201060522Y-81415155D02*
X201089093Y-81358012D01*
X201089093Y-81358012D02*
X201089093Y-81215155D01*
X201089093Y-81215155D02*
X201060522Y-81129441D01*
X200489093Y-80872297D02*
X201089093Y-80872297D01*
X201089093Y-80672298D02*
X201089093Y-80329441D01*
X200489093Y-80500869D02*
X201089093Y-80500869D01*
X200803379Y-80129440D02*
X200803379Y-79929440D01*
X200489093Y-79843726D02*
X200489093Y-80129440D01*
X200489093Y-80129440D02*
X201089093Y-80129440D01*
X201089093Y-80129440D02*
X201089093Y-79843726D01*
X200517665Y-79158012D02*
X200489093Y-79072298D01*
X200489093Y-79072298D02*
X200489093Y-78929440D01*
X200489093Y-78929440D02*
X200517665Y-78872298D01*
X200517665Y-78872298D02*
X200546236Y-78843726D01*
X200546236Y-78843726D02*
X200603379Y-78815155D01*
X200603379Y-78815155D02*
X200660522Y-78815155D01*
X200660522Y-78815155D02*
X200717665Y-78843726D01*
X200717665Y-78843726D02*
X200746236Y-78872298D01*
X200746236Y-78872298D02*
X200774807Y-78929440D01*
X200774807Y-78929440D02*
X200803379Y-79043726D01*
X200803379Y-79043726D02*
X200831950Y-79100869D01*
X200831950Y-79100869D02*
X200860522Y-79129440D01*
X200860522Y-79129440D02*
X200917665Y-79158012D01*
X200917665Y-79158012D02*
X200974807Y-79158012D01*
X200974807Y-79158012D02*
X201031950Y-79129440D01*
X201031950Y-79129440D02*
X201060522Y-79100869D01*
X201060522Y-79100869D02*
X201089093Y-79043726D01*
X201089093Y-79043726D02*
X201089093Y-78900869D01*
X201089093Y-78900869D02*
X201060522Y-78815155D01*
X200489093Y-78558011D02*
X201089093Y-78558011D01*
X200489093Y-78272297D02*
X201089093Y-78272297D01*
X201089093Y-78272297D02*
X201089093Y-78129440D01*
X201089093Y-78129440D02*
X201060522Y-78043726D01*
X201060522Y-78043726D02*
X201003379Y-77986583D01*
X201003379Y-77986583D02*
X200946236Y-77958012D01*
X200946236Y-77958012D02*
X200831950Y-77929440D01*
X200831950Y-77929440D02*
X200746236Y-77929440D01*
X200746236Y-77929440D02*
X200631950Y-77958012D01*
X200631950Y-77958012D02*
X200574807Y-77986583D01*
X200574807Y-77986583D02*
X200517665Y-78043726D01*
X200517665Y-78043726D02*
X200489093Y-78129440D01*
X200489093Y-78129440D02*
X200489093Y-78272297D01*
X200803379Y-77672297D02*
X200803379Y-77472297D01*
X200489093Y-77386583D02*
X200489093Y-77672297D01*
X200489093Y-77672297D02*
X201089093Y-77672297D01*
X201089093Y-77672297D02*
X201089093Y-77386583D01*
X202739093Y-88486583D02*
X202739093Y-88829440D01*
X202739093Y-88658011D02*
X203339093Y-88658011D01*
X203339093Y-88658011D02*
X203253379Y-88715154D01*
X203253379Y-88715154D02*
X203196236Y-88772297D01*
X203196236Y-88772297D02*
X203167665Y-88829440D01*
X202510522Y-88286582D02*
X202539093Y-88258011D01*
X202539093Y-88258011D02*
X202624807Y-88200868D01*
X202624807Y-88200868D02*
X202681950Y-88172297D01*
X202681950Y-88172297D02*
X202767665Y-88143725D01*
X202767665Y-88143725D02*
X202910522Y-88115154D01*
X202910522Y-88115154D02*
X203024807Y-88115154D01*
X203024807Y-88115154D02*
X203167665Y-88143725D01*
X203167665Y-88143725D02*
X203253379Y-88172297D01*
X203253379Y-88172297D02*
X203310522Y-88200868D01*
X203310522Y-88200868D02*
X203396236Y-88258011D01*
X203396236Y-88258011D02*
X203424807Y-88286582D01*
X202739093Y-87372296D02*
X203339093Y-87372296D01*
X203339093Y-87372296D02*
X203339093Y-87143725D01*
X203339093Y-87143725D02*
X203310522Y-87086582D01*
X203310522Y-87086582D02*
X203281950Y-87058011D01*
X203281950Y-87058011D02*
X203224807Y-87029439D01*
X203224807Y-87029439D02*
X203139093Y-87029439D01*
X203139093Y-87029439D02*
X203081950Y-87058011D01*
X203081950Y-87058011D02*
X203053379Y-87086582D01*
X203053379Y-87086582D02*
X203024807Y-87143725D01*
X203024807Y-87143725D02*
X203024807Y-87372296D01*
X202739093Y-86686582D02*
X202767665Y-86743725D01*
X202767665Y-86743725D02*
X202824807Y-86772296D01*
X202824807Y-86772296D02*
X203339093Y-86772296D01*
X202739093Y-86200868D02*
X203053379Y-86200868D01*
X203053379Y-86200868D02*
X203110522Y-86229439D01*
X203110522Y-86229439D02*
X203139093Y-86286582D01*
X203139093Y-86286582D02*
X203139093Y-86400868D01*
X203139093Y-86400868D02*
X203110522Y-86458010D01*
X202767665Y-86200868D02*
X202739093Y-86258010D01*
X202739093Y-86258010D02*
X202739093Y-86400868D01*
X202739093Y-86400868D02*
X202767665Y-86458010D01*
X202767665Y-86458010D02*
X202824807Y-86486582D01*
X202824807Y-86486582D02*
X202881950Y-86486582D01*
X202881950Y-86486582D02*
X202939093Y-86458010D01*
X202939093Y-86458010D02*
X202967665Y-86400868D01*
X202967665Y-86400868D02*
X202967665Y-86258010D01*
X202967665Y-86258010D02*
X202996236Y-86200868D01*
X202767665Y-85658011D02*
X202739093Y-85715153D01*
X202739093Y-85715153D02*
X202739093Y-85829439D01*
X202739093Y-85829439D02*
X202767665Y-85886582D01*
X202767665Y-85886582D02*
X202796236Y-85915153D01*
X202796236Y-85915153D02*
X202853379Y-85943725D01*
X202853379Y-85943725D02*
X203024807Y-85943725D01*
X203024807Y-85943725D02*
X203081950Y-85915153D01*
X203081950Y-85915153D02*
X203110522Y-85886582D01*
X203110522Y-85886582D02*
X203139093Y-85829439D01*
X203139093Y-85829439D02*
X203139093Y-85715153D01*
X203139093Y-85715153D02*
X203110522Y-85658011D01*
X202767665Y-85172296D02*
X202739093Y-85229439D01*
X202739093Y-85229439D02*
X202739093Y-85343725D01*
X202739093Y-85343725D02*
X202767665Y-85400867D01*
X202767665Y-85400867D02*
X202824807Y-85429439D01*
X202824807Y-85429439D02*
X203053379Y-85429439D01*
X203053379Y-85429439D02*
X203110522Y-85400867D01*
X203110522Y-85400867D02*
X203139093Y-85343725D01*
X203139093Y-85343725D02*
X203139093Y-85229439D01*
X203139093Y-85229439D02*
X203110522Y-85172296D01*
X203110522Y-85172296D02*
X203053379Y-85143725D01*
X203053379Y-85143725D02*
X202996236Y-85143725D01*
X202996236Y-85143725D02*
X202939093Y-85429439D01*
X202796236Y-84086581D02*
X202767665Y-84115153D01*
X202767665Y-84115153D02*
X202739093Y-84200867D01*
X202739093Y-84200867D02*
X202739093Y-84258010D01*
X202739093Y-84258010D02*
X202767665Y-84343724D01*
X202767665Y-84343724D02*
X202824807Y-84400867D01*
X202824807Y-84400867D02*
X202881950Y-84429438D01*
X202881950Y-84429438D02*
X202996236Y-84458010D01*
X202996236Y-84458010D02*
X203081950Y-84458010D01*
X203081950Y-84458010D02*
X203196236Y-84429438D01*
X203196236Y-84429438D02*
X203253379Y-84400867D01*
X203253379Y-84400867D02*
X203310522Y-84343724D01*
X203310522Y-84343724D02*
X203339093Y-84258010D01*
X203339093Y-84258010D02*
X203339093Y-84200867D01*
X203339093Y-84200867D02*
X203310522Y-84115153D01*
X203310522Y-84115153D02*
X203281950Y-84086581D01*
X202739093Y-83743724D02*
X202767665Y-83800867D01*
X202767665Y-83800867D02*
X202796236Y-83829438D01*
X202796236Y-83829438D02*
X202853379Y-83858010D01*
X202853379Y-83858010D02*
X203024807Y-83858010D01*
X203024807Y-83858010D02*
X203081950Y-83829438D01*
X203081950Y-83829438D02*
X203110522Y-83800867D01*
X203110522Y-83800867D02*
X203139093Y-83743724D01*
X203139093Y-83743724D02*
X203139093Y-83658010D01*
X203139093Y-83658010D02*
X203110522Y-83600867D01*
X203110522Y-83600867D02*
X203081950Y-83572296D01*
X203081950Y-83572296D02*
X203024807Y-83543724D01*
X203024807Y-83543724D02*
X202853379Y-83543724D01*
X202853379Y-83543724D02*
X202796236Y-83572296D01*
X202796236Y-83572296D02*
X202767665Y-83600867D01*
X202767665Y-83600867D02*
X202739093Y-83658010D01*
X202739093Y-83658010D02*
X202739093Y-83743724D01*
X202739093Y-83286581D02*
X203139093Y-83286581D01*
X203081950Y-83286581D02*
X203110522Y-83258010D01*
X203110522Y-83258010D02*
X203139093Y-83200867D01*
X203139093Y-83200867D02*
X203139093Y-83115153D01*
X203139093Y-83115153D02*
X203110522Y-83058010D01*
X203110522Y-83058010D02*
X203053379Y-83029439D01*
X203053379Y-83029439D02*
X202739093Y-83029439D01*
X203053379Y-83029439D02*
X203110522Y-83000867D01*
X203110522Y-83000867D02*
X203139093Y-82943724D01*
X203139093Y-82943724D02*
X203139093Y-82858010D01*
X203139093Y-82858010D02*
X203110522Y-82800867D01*
X203110522Y-82800867D02*
X203053379Y-82772296D01*
X203053379Y-82772296D02*
X202739093Y-82772296D01*
X203139093Y-82486581D02*
X202539093Y-82486581D01*
X203110522Y-82486581D02*
X203139093Y-82429439D01*
X203139093Y-82429439D02*
X203139093Y-82315153D01*
X203139093Y-82315153D02*
X203110522Y-82258010D01*
X203110522Y-82258010D02*
X203081950Y-82229439D01*
X203081950Y-82229439D02*
X203024807Y-82200867D01*
X203024807Y-82200867D02*
X202853379Y-82200867D01*
X202853379Y-82200867D02*
X202796236Y-82229439D01*
X202796236Y-82229439D02*
X202767665Y-82258010D01*
X202767665Y-82258010D02*
X202739093Y-82315153D01*
X202739093Y-82315153D02*
X202739093Y-82429439D01*
X202739093Y-82429439D02*
X202767665Y-82486581D01*
X202739093Y-81858010D02*
X202767665Y-81915153D01*
X202767665Y-81915153D02*
X202796236Y-81943724D01*
X202796236Y-81943724D02*
X202853379Y-81972296D01*
X202853379Y-81972296D02*
X203024807Y-81972296D01*
X203024807Y-81972296D02*
X203081950Y-81943724D01*
X203081950Y-81943724D02*
X203110522Y-81915153D01*
X203110522Y-81915153D02*
X203139093Y-81858010D01*
X203139093Y-81858010D02*
X203139093Y-81772296D01*
X203139093Y-81772296D02*
X203110522Y-81715153D01*
X203110522Y-81715153D02*
X203081950Y-81686582D01*
X203081950Y-81686582D02*
X203024807Y-81658010D01*
X203024807Y-81658010D02*
X202853379Y-81658010D01*
X202853379Y-81658010D02*
X202796236Y-81686582D01*
X202796236Y-81686582D02*
X202767665Y-81715153D01*
X202767665Y-81715153D02*
X202739093Y-81772296D01*
X202739093Y-81772296D02*
X202739093Y-81858010D01*
X203139093Y-81400867D02*
X202739093Y-81400867D01*
X203081950Y-81400867D02*
X203110522Y-81372296D01*
X203110522Y-81372296D02*
X203139093Y-81315153D01*
X203139093Y-81315153D02*
X203139093Y-81229439D01*
X203139093Y-81229439D02*
X203110522Y-81172296D01*
X203110522Y-81172296D02*
X203053379Y-81143725D01*
X203053379Y-81143725D02*
X202739093Y-81143725D01*
X202767665Y-80629439D02*
X202739093Y-80686582D01*
X202739093Y-80686582D02*
X202739093Y-80800868D01*
X202739093Y-80800868D02*
X202767665Y-80858010D01*
X202767665Y-80858010D02*
X202824807Y-80886582D01*
X202824807Y-80886582D02*
X203053379Y-80886582D01*
X203053379Y-80886582D02*
X203110522Y-80858010D01*
X203110522Y-80858010D02*
X203139093Y-80800868D01*
X203139093Y-80800868D02*
X203139093Y-80686582D01*
X203139093Y-80686582D02*
X203110522Y-80629439D01*
X203110522Y-80629439D02*
X203053379Y-80600868D01*
X203053379Y-80600868D02*
X202996236Y-80600868D01*
X202996236Y-80600868D02*
X202939093Y-80886582D01*
X203139093Y-80343724D02*
X202739093Y-80343724D01*
X203081950Y-80343724D02*
X203110522Y-80315153D01*
X203110522Y-80315153D02*
X203139093Y-80258010D01*
X203139093Y-80258010D02*
X203139093Y-80172296D01*
X203139093Y-80172296D02*
X203110522Y-80115153D01*
X203110522Y-80115153D02*
X203053379Y-80086582D01*
X203053379Y-80086582D02*
X202739093Y-80086582D01*
X203139093Y-79886582D02*
X203139093Y-79658010D01*
X203339093Y-79800867D02*
X202824807Y-79800867D01*
X202824807Y-79800867D02*
X202767665Y-79772296D01*
X202767665Y-79772296D02*
X202739093Y-79715153D01*
X202739093Y-79715153D02*
X202739093Y-79658010D01*
X202031950Y-88829440D02*
X202060522Y-88800868D01*
X202060522Y-88800868D02*
X202089093Y-88743726D01*
X202089093Y-88743726D02*
X202089093Y-88600868D01*
X202089093Y-88600868D02*
X202060522Y-88543726D01*
X202060522Y-88543726D02*
X202031950Y-88515154D01*
X202031950Y-88515154D02*
X201974807Y-88486583D01*
X201974807Y-88486583D02*
X201917665Y-88486583D01*
X201917665Y-88486583D02*
X201831950Y-88515154D01*
X201831950Y-88515154D02*
X201489093Y-88858011D01*
X201489093Y-88858011D02*
X201489093Y-88486583D01*
X201260522Y-88286582D02*
X201289093Y-88258011D01*
X201289093Y-88258011D02*
X201374807Y-88200868D01*
X201374807Y-88200868D02*
X201431950Y-88172297D01*
X201431950Y-88172297D02*
X201517665Y-88143725D01*
X201517665Y-88143725D02*
X201660522Y-88115154D01*
X201660522Y-88115154D02*
X201774807Y-88115154D01*
X201774807Y-88115154D02*
X201917665Y-88143725D01*
X201917665Y-88143725D02*
X202003379Y-88172297D01*
X202003379Y-88172297D02*
X202060522Y-88200868D01*
X202060522Y-88200868D02*
X202146236Y-88258011D01*
X202146236Y-88258011D02*
X202174807Y-88286582D01*
X201546236Y-87029439D02*
X201517665Y-87058011D01*
X201517665Y-87058011D02*
X201489093Y-87143725D01*
X201489093Y-87143725D02*
X201489093Y-87200868D01*
X201489093Y-87200868D02*
X201517665Y-87286582D01*
X201517665Y-87286582D02*
X201574807Y-87343725D01*
X201574807Y-87343725D02*
X201631950Y-87372296D01*
X201631950Y-87372296D02*
X201746236Y-87400868D01*
X201746236Y-87400868D02*
X201831950Y-87400868D01*
X201831950Y-87400868D02*
X201946236Y-87372296D01*
X201946236Y-87372296D02*
X202003379Y-87343725D01*
X202003379Y-87343725D02*
X202060522Y-87286582D01*
X202060522Y-87286582D02*
X202089093Y-87200868D01*
X202089093Y-87200868D02*
X202089093Y-87143725D01*
X202089093Y-87143725D02*
X202060522Y-87058011D01*
X202060522Y-87058011D02*
X202031950Y-87029439D01*
X201489093Y-86686582D02*
X201517665Y-86743725D01*
X201517665Y-86743725D02*
X201574807Y-86772296D01*
X201574807Y-86772296D02*
X202089093Y-86772296D01*
X201489093Y-86372296D02*
X201517665Y-86429439D01*
X201517665Y-86429439D02*
X201546236Y-86458010D01*
X201546236Y-86458010D02*
X201603379Y-86486582D01*
X201603379Y-86486582D02*
X201774807Y-86486582D01*
X201774807Y-86486582D02*
X201831950Y-86458010D01*
X201831950Y-86458010D02*
X201860522Y-86429439D01*
X201860522Y-86429439D02*
X201889093Y-86372296D01*
X201889093Y-86372296D02*
X201889093Y-86286582D01*
X201889093Y-86286582D02*
X201860522Y-86229439D01*
X201860522Y-86229439D02*
X201831950Y-86200868D01*
X201831950Y-86200868D02*
X201774807Y-86172296D01*
X201774807Y-86172296D02*
X201603379Y-86172296D01*
X201603379Y-86172296D02*
X201546236Y-86200868D01*
X201546236Y-86200868D02*
X201517665Y-86229439D01*
X201517665Y-86229439D02*
X201489093Y-86286582D01*
X201489093Y-86286582D02*
X201489093Y-86372296D01*
X201517665Y-85943725D02*
X201489093Y-85886582D01*
X201489093Y-85886582D02*
X201489093Y-85772296D01*
X201489093Y-85772296D02*
X201517665Y-85715153D01*
X201517665Y-85715153D02*
X201574807Y-85686582D01*
X201574807Y-85686582D02*
X201603379Y-85686582D01*
X201603379Y-85686582D02*
X201660522Y-85715153D01*
X201660522Y-85715153D02*
X201689093Y-85772296D01*
X201689093Y-85772296D02*
X201689093Y-85858011D01*
X201689093Y-85858011D02*
X201717665Y-85915153D01*
X201717665Y-85915153D02*
X201774807Y-85943725D01*
X201774807Y-85943725D02*
X201803379Y-85943725D01*
X201803379Y-85943725D02*
X201860522Y-85915153D01*
X201860522Y-85915153D02*
X201889093Y-85858011D01*
X201889093Y-85858011D02*
X201889093Y-85772296D01*
X201889093Y-85772296D02*
X201860522Y-85715153D01*
X201517665Y-85200868D02*
X201489093Y-85258011D01*
X201489093Y-85258011D02*
X201489093Y-85372297D01*
X201489093Y-85372297D02*
X201517665Y-85429439D01*
X201517665Y-85429439D02*
X201574807Y-85458011D01*
X201574807Y-85458011D02*
X201803379Y-85458011D01*
X201803379Y-85458011D02*
X201860522Y-85429439D01*
X201860522Y-85429439D02*
X201889093Y-85372297D01*
X201889093Y-85372297D02*
X201889093Y-85258011D01*
X201889093Y-85258011D02*
X201860522Y-85200868D01*
X201860522Y-85200868D02*
X201803379Y-85172297D01*
X201803379Y-85172297D02*
X201746236Y-85172297D01*
X201746236Y-85172297D02*
X201689093Y-85458011D01*
X202089093Y-84286582D02*
X201660522Y-84286582D01*
X201660522Y-84286582D02*
X201574807Y-84315153D01*
X201574807Y-84315153D02*
X201517665Y-84372296D01*
X201517665Y-84372296D02*
X201489093Y-84458010D01*
X201489093Y-84458010D02*
X201489093Y-84515153D01*
X202089093Y-84000867D02*
X201603379Y-84000867D01*
X201603379Y-84000867D02*
X201546236Y-83972296D01*
X201546236Y-83972296D02*
X201517665Y-83943725D01*
X201517665Y-83943725D02*
X201489093Y-83886582D01*
X201489093Y-83886582D02*
X201489093Y-83772296D01*
X201489093Y-83772296D02*
X201517665Y-83715153D01*
X201517665Y-83715153D02*
X201546236Y-83686582D01*
X201546236Y-83686582D02*
X201603379Y-83658010D01*
X201603379Y-83658010D02*
X202089093Y-83658010D01*
X201489093Y-83372296D02*
X202089093Y-83372296D01*
X202089093Y-83372296D02*
X201660522Y-83172296D01*
X201660522Y-83172296D02*
X202089093Y-82972296D01*
X202089093Y-82972296D02*
X201489093Y-82972296D01*
X201489093Y-82686582D02*
X202089093Y-82686582D01*
X202089093Y-82686582D02*
X202089093Y-82458011D01*
X202089093Y-82458011D02*
X202060522Y-82400868D01*
X202060522Y-82400868D02*
X202031950Y-82372297D01*
X202031950Y-82372297D02*
X201974807Y-82343725D01*
X201974807Y-82343725D02*
X201889093Y-82343725D01*
X201889093Y-82343725D02*
X201831950Y-82372297D01*
X201831950Y-82372297D02*
X201803379Y-82400868D01*
X201803379Y-82400868D02*
X201774807Y-82458011D01*
X201774807Y-82458011D02*
X201774807Y-82686582D01*
X201803379Y-82086582D02*
X201803379Y-81886582D01*
X201489093Y-81800868D02*
X201489093Y-82086582D01*
X201489093Y-82086582D02*
X202089093Y-82086582D01*
X202089093Y-82086582D02*
X202089093Y-81800868D01*
X201489093Y-81200868D02*
X201774807Y-81400868D01*
X201489093Y-81543725D02*
X202089093Y-81543725D01*
X202089093Y-81543725D02*
X202089093Y-81315154D01*
X202089093Y-81315154D02*
X202060522Y-81258011D01*
X202060522Y-81258011D02*
X202031950Y-81229440D01*
X202031950Y-81229440D02*
X201974807Y-81200868D01*
X201974807Y-81200868D02*
X201889093Y-81200868D01*
X201889093Y-81200868D02*
X201831950Y-81229440D01*
X201831950Y-81229440D02*
X201803379Y-81258011D01*
X201803379Y-81258011D02*
X201774807Y-81315154D01*
X201774807Y-81315154D02*
X201774807Y-81543725D01*
X201489093Y-80486582D02*
X202089093Y-80486582D01*
X202089093Y-80486582D02*
X202089093Y-80258011D01*
X202089093Y-80258011D02*
X202060522Y-80200868D01*
X202060522Y-80200868D02*
X202031950Y-80172297D01*
X202031950Y-80172297D02*
X201974807Y-80143725D01*
X201974807Y-80143725D02*
X201889093Y-80143725D01*
X201889093Y-80143725D02*
X201831950Y-80172297D01*
X201831950Y-80172297D02*
X201803379Y-80200868D01*
X201803379Y-80200868D02*
X201774807Y-80258011D01*
X201774807Y-80258011D02*
X201774807Y-80486582D01*
X201660522Y-79915154D02*
X201660522Y-79629440D01*
X201489093Y-79972297D02*
X202089093Y-79772297D01*
X202089093Y-79772297D02*
X201489093Y-79572297D01*
X201489093Y-79372296D02*
X202089093Y-79372296D01*
X202089093Y-79372296D02*
X202089093Y-79229439D01*
X202089093Y-79229439D02*
X202060522Y-79143725D01*
X202060522Y-79143725D02*
X202003379Y-79086582D01*
X202003379Y-79086582D02*
X201946236Y-79058011D01*
X201946236Y-79058011D02*
X201831950Y-79029439D01*
X201831950Y-79029439D02*
X201746236Y-79029439D01*
X201746236Y-79029439D02*
X201631950Y-79058011D01*
X201631950Y-79058011D02*
X201574807Y-79086582D01*
X201574807Y-79086582D02*
X201517665Y-79143725D01*
X201517665Y-79143725D02*
X201489093Y-79229439D01*
X201489093Y-79229439D02*
X201489093Y-79372296D01*
X201517665Y-78800868D02*
X201489093Y-78715154D01*
X201489093Y-78715154D02*
X201489093Y-78572296D01*
X201489093Y-78572296D02*
X201517665Y-78515154D01*
X201517665Y-78515154D02*
X201546236Y-78486582D01*
X201546236Y-78486582D02*
X201603379Y-78458011D01*
X201603379Y-78458011D02*
X201660522Y-78458011D01*
X201660522Y-78458011D02*
X201717665Y-78486582D01*
X201717665Y-78486582D02*
X201746236Y-78515154D01*
X201746236Y-78515154D02*
X201774807Y-78572296D01*
X201774807Y-78572296D02*
X201803379Y-78686582D01*
X201803379Y-78686582D02*
X201831950Y-78743725D01*
X201831950Y-78743725D02*
X201860522Y-78772296D01*
X201860522Y-78772296D02*
X201917665Y-78800868D01*
X201917665Y-78800868D02*
X201974807Y-78800868D01*
X201974807Y-78800868D02*
X202031950Y-78772296D01*
X202031950Y-78772296D02*
X202060522Y-78743725D01*
X202060522Y-78743725D02*
X202089093Y-78686582D01*
X202089093Y-78686582D02*
X202089093Y-78543725D01*
X202089093Y-78543725D02*
X202060522Y-78458011D01*
%TO.C,AdamTech-MDJ004FS1*%
D12*
X203907865Y-76042410D02*
X190957865Y-76042410D01*
X190957865Y-90042410D01*
X203907865Y-90042410D01*
X203907865Y-76042410D01*
D13*
%TO.C,LED5*%
X135747865Y-99242410D02*
X135747865Y-100842410D01*
X135747865Y-100842410D02*
X137347865Y-100842410D01*
%TO.C,LED4*%
X180276737Y-105850148D02*
X181662378Y-106650147D01*
X181076737Y-104464506D02*
X180276737Y-105850148D01*
%TO.C,LED3*%
X175347865Y-77942410D02*
X175347865Y-79542410D01*
X175347865Y-79542410D02*
X176947865Y-79542410D01*
%TO.C,LED2*%
X140856968Y-54178052D02*
X142242609Y-54978051D01*
X141656968Y-52792410D02*
X140856968Y-54178052D01*
%TO.C,LED1*%
X100169576Y-72691314D02*
X101673084Y-73238546D01*
X100716808Y-71187805D02*
X100169576Y-72691314D01*
%TD*%
M02*
