M48
; DRILL file {KiCad 9.0.3} date 2025-07-20T18:48:34+0200
; FORMAT={-:-/ absolute / metric / decimal}
; #@! TF.CreationDate,2025-07-20T18:48:34+02:00
; #@! TF.GenerationSoftware,Kicad,Pcbnew,9.0.3
; #@! TF.FileFunction,NonPlated,1,2,NPTH
FMAT,2
METRIC
; #@! TA.AperFunction,NonPlated,NPTH,ComponentDrill
T1C1.702
; #@! TA.AperFunction,NonPlated,NPTH,ComponentDrill
T2C2.200
; #@! TA.AperFunction,NonPlated,NPTH,ComponentDrill
T3C3.000
; #@! TA.AperFunction,NonPlated,NPTH,ComponentDrill
T4C3.429
%
G90
G05
T1
X88.68Y-67.472
X91.632Y-84.213
X94.584Y-100.955
X99.512Y-65.561
X102.464Y-82.303
X105.416Y-99.045
X108.926Y-53.392
X110.408Y-70.327
X111.89Y-87.263
X119.885Y-52.433
X121.366Y-69.368
X122.848Y-86.304
X130.448Y-47.142
X130.448Y-64.142
X130.448Y-81.142
X141.248Y-109.442
X141.448Y-47.142
X141.448Y-64.142
X141.448Y-81.142
X148.448Y-52.142
X148.448Y-69.142
X148.448Y-86.142
X152.248Y-109.442
X159.448Y-52.142
X159.448Y-69.142
X159.448Y-86.142
X162.135Y-110.519
X166.448Y-54.142
X166.448Y-71.142
X166.448Y-88.142
X172.76Y-113.366
X177.448Y-54.142
X177.448Y-71.142
X177.448Y-88.142
X182.299Y-116.948
X191.825Y-122.448
T2
X105.81Y-57.931
X127.075Y-94.466
X162.948Y-60.642
X180.948Y-96.642
X198.408Y-76.292
X198.408Y-89.792
X199.208Y-83.042
T3
X88.521Y-63.692
X91.473Y-80.433
X93.063Y-60.657
X93.063Y-60.657
X94.425Y-97.175
X96.015Y-77.399
X96.015Y-77.399
X98.369Y-61.955
X98.967Y-94.14
X98.967Y-94.14
X101.321Y-78.697
X104.273Y-95.439
X109.098Y-49.613
X110.579Y-66.548
X112.061Y-83.483
X113.887Y-46.985
X113.887Y-46.985
X115.369Y-63.92
X115.369Y-63.92
X116.85Y-80.856
X116.85Y-80.856
X119.06Y-48.741
X120.541Y-65.676
X122.023Y-82.612
X130.948Y-43.392
X130.948Y-60.392
X130.948Y-77.392
X135.948Y-41.192
X135.948Y-41.192
X135.948Y-58.192
X135.948Y-58.192
X135.948Y-75.192
X135.948Y-75.192
X140.948Y-43.392
X140.948Y-60.392
X140.948Y-77.392
X141.748Y-105.692
X146.748Y-103.492
X146.748Y-103.492
X148.948Y-48.392
X148.948Y-65.392
X148.948Y-82.392
X151.748Y-105.692
X153.948Y-46.192
X153.948Y-46.192
X153.948Y-63.192
X153.948Y-63.192
X153.948Y-80.192
X153.948Y-80.192
X158.948Y-48.392
X158.948Y-65.392
X158.948Y-82.392
X163.589Y-107.026
X166.948Y-50.392
X166.948Y-67.392
X166.948Y-84.392
X168.988Y-106.195
X168.988Y-106.195
X171.948Y-48.192
X171.948Y-48.192
X171.948Y-65.192
X171.948Y-65.192
X171.948Y-82.192
X171.948Y-82.192
X173.248Y-109.614
X176.948Y-50.392
X176.948Y-67.392
X176.948Y-84.392
X184.607Y-113.95
X190.037Y-114.545
X190.037Y-114.545
X193.267Y-118.95
T4
X94.096Y-66.517
X97.048Y-83.258
X100.0Y-100.0
X114.405Y-52.913
X115.887Y-69.848
X117.369Y-86.783
X135.948Y-47.142
X135.948Y-64.142
X135.948Y-81.142
X146.748Y-109.442
X153.948Y-52.142
X153.948Y-69.142
X153.948Y-86.142
X167.448Y-111.942
X171.948Y-54.142
X171.948Y-71.142
X171.948Y-88.142
X187.062Y-119.698
M30
