%TF.GenerationSoftware,KiCad,Pcbnew,9.0.3*%
%TF.CreationDate,2025-07-20T18:48:35+02:00*%
%TF.ProjectId,kdb-v1,6b64622d-7631-42e6-9b69-6361645f7063,v1.0.0*%
%TF.SameCoordinates,Original*%
%TF.FileFunction,Paste,Bot*%
%TF.FilePolarity,Positive*%
%FSLAX46Y46*%
G04 Gerber Fmt 4.6, Leading zero omitted, Abs format (unit mm)*
G04 Created by KiCad (PCBNEW 9.0.3) date 2025-07-20 18:48:35*
%MOMM*%
%LPD*%
G01*
G04 APERTURE LIST*
G04 Aperture macros list*
%AMRotRect*
0 Rectangle, with rotation*
0 The origin of the aperture is its center*
0 $1 length*
0 $2 width*
0 $3 Rotation angle, in degrees counterclockwise*
0 Add horizontal line*
21,1,$1,$2,0,0,$3*%
G04 Aperture macros list end*
%ADD10R,2.600000X2.600000*%
%ADD11RotRect,2.600000X2.600000X5.000000*%
%ADD12RotRect,2.600000X2.600000X330.000000*%
%ADD13RotRect,2.600000X2.600000X345.000000*%
%ADD14RotRect,2.600000X2.600000X10.000000*%
%ADD15R,1.400000X1.000000*%
%ADD16RotRect,1.400000X1.000000X330.000000*%
%ADD17RotRect,1.400000X1.000000X340.000000*%
G04 APERTURE END LIST*
D10*
%TO.C,S10*%
X150672865Y-80192410D03*
X162222865Y-82392410D03*
%TD*%
D11*
%TO.C,S6*%
X110624379Y-47270605D03*
X122322170Y-48455584D03*
%TD*%
D10*
%TO.C,S14*%
X168672865Y-65192410D03*
X180222865Y-67392410D03*
%TD*%
D12*
%TO.C,S18*%
X187200630Y-112907614D03*
X196103223Y-120587870D03*
%TD*%
D10*
%TO.C,S12*%
X150672865Y-46192410D03*
X162222865Y-48392410D03*
%TD*%
%TO.C,S8*%
X132672865Y-58192410D03*
X144222865Y-60392410D03*
%TD*%
%TO.C,S11*%
X150672865Y-63192410D03*
X162222865Y-65392410D03*
%TD*%
%TO.C,S15*%
X168672865Y-48192410D03*
X180222865Y-50392410D03*
%TD*%
D13*
%TO.C,S17*%
X165824431Y-105347519D03*
X176411473Y-110461916D03*
%TD*%
D14*
%TO.C,S3*%
X89837510Y-61225628D03*
X101594065Y-61386568D03*
%TD*%
D10*
%TO.C,S9*%
X132672865Y-41192410D03*
X144222865Y-43392410D03*
%TD*%
D11*
%TO.C,S5*%
X112106027Y-64205915D03*
X123803818Y-65390894D03*
%TD*%
D10*
%TO.C,S7*%
X132672865Y-75192410D03*
X144222865Y-77392410D03*
%TD*%
D14*
%TO.C,S1*%
X95741548Y-94709092D03*
X107498103Y-94870032D03*
%TD*%
D11*
%TO.C,S4*%
X113587675Y-81141225D03*
X125285466Y-82326204D03*
%TD*%
D10*
%TO.C,S16*%
X143472865Y-103492410D03*
X155022865Y-105692410D03*
%TD*%
D14*
%TO.C,S2*%
X92789529Y-77967360D03*
X104546084Y-78128300D03*
%TD*%
D10*
%TO.C,S13*%
X168672865Y-82192410D03*
X180222865Y-84392410D03*
%TD*%
D15*
%TO.C,LED5*%
X142247865Y-98542410D03*
X142247865Y-99942410D03*
X136847865Y-99942410D03*
X136847865Y-98542410D03*
%TD*%
D16*
%TO.C,LED4*%
X187055903Y-107108288D03*
X186355903Y-108320724D03*
X181679365Y-105620724D03*
X182379365Y-104408288D03*
%TD*%
D15*
%TO.C,LED3*%
X181847865Y-77242410D03*
X181847865Y-78642410D03*
X176447865Y-78642410D03*
X176447865Y-77242410D03*
%TD*%
D16*
%TO.C,LED2*%
X147636134Y-55436192D03*
X146936134Y-56648628D03*
X142259596Y-53948628D03*
X142959596Y-52736192D03*
%TD*%
D17*
%TO.C,LED1*%
X107064224Y-72753152D03*
X106585396Y-74068721D03*
X101511056Y-72221812D03*
X101989884Y-70906243D03*
%TD*%
M02*
