%TF.GenerationSoftware,KiCad,Pcbnew,9.0.3*%
%TF.CreationDate,2025-07-20T18:48:36+02:00*%
%TF.ProjectId,kdb-v1,6b64622d-7631-42e6-9b69-6361645f7063,v1.0.0*%
%TF.SameCoordinates,Original*%
%TF.FileFunction,Profile,NP*%
%FSLAX46Y46*%
G04 Gerber Fmt 4.6, Leading zero omitted, Abs format (unit mm)*
G04 Created by KiCad (PCBNEW 9.0.3) date 2025-07-20 18:48:36*
%MOMM*%
%LPD*%
G01*
G04 APERTURE LIST*
%TA.AperFunction,Profile*%
%ADD10C,0.150000*%
%TD*%
%TA.AperFunction,Profile*%
%ADD11C,0.120000*%
%TD*%
G04 APERTURE END LIST*
D10*
X146136964Y-37679179D02*
X181758766Y-44605641D01*
X126240485Y-37642410D02*
X145755224Y-37642410D01*
X103353859Y-44501750D02*
G75*
G02*
X103920709Y-44228980I1139841J-1643350D01*
G01*
X182140505Y-44642410D02*
G75*
G02*
X181758765Y-44605644I-5J2000110D01*
G01*
X145755225Y-37642410D02*
G75*
G02*
X146136963Y-37679182I-25J-2000090D01*
G01*
X136943515Y-118938073D02*
G75*
G02*
X136555085Y-118908739I-44315J1999573D01*
G01*
X201947865Y-44642410D02*
G75*
G02*
X203947890Y-46642410I35J-1999990D01*
G01*
X174403365Y-123641254D02*
G75*
G02*
X174869178Y-123831613I-517665J-1931846D01*
G01*
X125667511Y-37726242D02*
G75*
G02*
X126240485Y-37642406I572989J-1916158D01*
G01*
X155044010Y-118536850D02*
X136943515Y-118938073D01*
X83650358Y-58167612D02*
X103353858Y-44501750D01*
X203947865Y-46642410D02*
X203947865Y-110591861D01*
X174403365Y-123641254D02*
X155605970Y-118604507D01*
X103920712Y-44228991D02*
X125667510Y-37726242D01*
X203947865Y-110591861D02*
G75*
G02*
X203666124Y-111615407I-1999965J-39D01*
G01*
X155044010Y-118536851D02*
G75*
G02*
X155605968Y-118604516I44290J-1999549D01*
G01*
X93183489Y-111333517D02*
G75*
G02*
X91557950Y-109710645I344111J1970217D01*
G01*
X91557982Y-109710639D02*
X82820570Y-60158317D01*
X203666111Y-111615399D02*
X191972209Y-131246319D01*
X189270510Y-131964280D02*
X174869181Y-123831607D01*
X136555085Y-118908739D02*
X93183489Y-111333518D01*
X182140506Y-44642410D02*
X201947865Y-44642410D01*
X82820570Y-60158317D02*
G75*
G02*
X83650343Y-58167590I1969630J347317D01*
G01*
X191972209Y-131246319D02*
G75*
G02*
X189270531Y-131964243I-1718209J1023519D01*
G01*
D11*
%TO.C,RP2040Zero1*%
X186947865Y-65012410D02*
X186947865Y-59642410D01*
X186947865Y-65012410D02*
X197447865Y-65012410D01*
X197447865Y-59642410D02*
X186947865Y-59642410D01*
X197447865Y-59642410D02*
X197447865Y-65012410D01*
%TO.C,LED5*%
X137747865Y-97692410D02*
X141347865Y-97692410D01*
X141347865Y-100792410D01*
X137747865Y-100792410D01*
X137747865Y-97692410D01*
%TO.C,LED4*%
X186701480Y-105922167D02*
X185151480Y-108606845D01*
X182033788Y-106806845D01*
X183583788Y-104122167D01*
X186701480Y-105922167D01*
%TO.C,LED3*%
X177347865Y-76392410D02*
X180947865Y-76392410D01*
X180947865Y-79492410D01*
X177347865Y-79492410D01*
X177347865Y-76392410D01*
%TO.C,LED2*%
X147281711Y-54250071D02*
X145731711Y-56934749D01*
X142614019Y-55134749D01*
X144164019Y-52450071D01*
X147281711Y-54250071D01*
%TO.C,LED1*%
X106509218Y-71646595D02*
X105448955Y-74559642D01*
X102066062Y-73328369D01*
X103126325Y-70415322D01*
X106509218Y-71646595D01*
%TD*%
M02*
