%TF.GenerationSoftware,KiCad,Pcbnew,9.0.3*%
%TF.CreationDate,2025-07-20T18:48:36+02:00*%
%TF.ProjectId,kdb-v1,6b64622d-7631-42e6-9b69-6361645f7063,v1.0.0*%
%TF.SameCoordinates,Original*%
%TF.FileFunction,Soldermask,Bot*%
%TF.FilePolarity,Negative*%
%FSLAX46Y46*%
G04 Gerber Fmt 4.6, Leading zero omitted, Abs format (unit mm)*
G04 Created by KiCad (PCBNEW 9.0.3) date 2025-07-20 18:48:36*
%MOMM*%
%LPD*%
G01*
G04 APERTURE LIST*
G04 Aperture macros list*
%AMRoundRect*
0 Rectangle with rounded corners*
0 $1 Rounding radius*
0 $2 $3 $4 $5 $6 $7 $8 $9 X,Y pos of 4 corners*
0 Add a 4 corners polygon primitive as box body*
4,1,4,$2,$3,$4,$5,$6,$7,$8,$9,$2,$3,0*
0 Add four circle primitives for the rounded corners*
1,1,$1+$1,$2,$3*
1,1,$1+$1,$4,$5*
1,1,$1+$1,$6,$7*
1,1,$1+$1,$8,$9*
0 Add four rect primitives between the rounded corners*
20,1,$1+$1,$2,$3,$4,$5,0*
20,1,$1+$1,$4,$5,$6,$7,0*
20,1,$1+$1,$6,$7,$8,$9,0*
20,1,$1+$1,$8,$9,$2,$3,0*%
%AMFreePoly0*
4,1,14,0.035355,0.435355,0.635355,-0.164645,0.650000,-0.200000,0.650000,-0.400000,0.635355,-0.435355,0.600000,-0.450000,-0.600000,-0.450000,-0.635355,-0.435355,-0.650000,-0.400000,-0.650000,-0.200000,-0.635355,-0.164645,-0.035355,0.435355,0.000000,0.450000,0.035355,0.435355,0.035355,0.435355,$1*%
%AMFreePoly1*
4,1,16,0.635355,0.285355,0.650000,0.250000,0.650000,-1.000000,0.635355,-1.035355,0.600000,-1.050000,0.564645,-1.035355,0.000000,-0.470710,-0.564645,-1.035355,-0.600000,-1.050000,-0.635355,-1.035355,-0.650000,-1.000000,-0.650000,0.250000,-0.635355,0.285355,-0.600000,0.300000,0.600000,0.300000,0.635355,0.285355,0.635355,0.285355,$1*%
G04 Aperture macros list end*
%ADD10C,0.000000*%
%ADD11C,0.250000*%
%ADD12C,0.100000*%
%ADD13C,1.801800*%
%ADD14C,3.100000*%
%ADD15C,3.529000*%
%ADD16RoundRect,0.050000X-1.300000X-1.300000X1.300000X-1.300000X1.300000X1.300000X-1.300000X1.300000X0*%
%ADD17RoundRect,0.050000X-1.181751X-1.408356X1.408356X-1.181751X1.181751X1.408356X-1.408356X1.181751X0*%
%ADD18RoundRect,0.425000X-0.925000X-0.425000X0.925000X-0.425000X0.925000X0.425000X-0.925000X0.425000X0*%
%ADD19RoundRect,0.425050X-0.924950X-0.425050X0.924950X-0.425050X0.924950X0.425050X-0.924950X0.425050X0*%
%ADD20RoundRect,0.425000X-0.425000X-0.925000X0.425000X-0.925000X0.425000X0.925000X-0.425000X0.925000X0*%
%ADD21RoundRect,0.418700X-0.418700X-0.931300X0.418700X-0.931300X0.418700X0.931300X-0.418700X0.931300X0*%
%ADD22C,2.300000*%
%ADD23RoundRect,0.050000X-1.775833X-0.475833X0.475833X-1.775833X1.775833X0.475833X-0.475833X1.775833X0*%
%ADD24RoundRect,0.050000X-1.592168X-0.919239X0.919239X-1.592168X1.592168X0.919239X-0.919239X1.592168X0*%
%ADD25RoundRect,0.050000X-1.054507X-1.505993X1.505993X-1.054507X1.054507X1.505993X-1.505993X1.054507X0*%
%ADD26C,1.500000*%
%ADD27FreePoly0,180.000000*%
%ADD28FreePoly0,0.000000*%
%ADD29FreePoly1,180.000000*%
%ADD30FreePoly1,0.000000*%
%ADD31RoundRect,0.050000X-0.700000X-0.500000X0.700000X-0.500000X0.700000X0.500000X-0.700000X0.500000X0*%
%ADD32RoundRect,0.050000X-0.856218X-0.083013X0.356218X-0.783013X0.856218X0.083013X-0.356218X0.783013X0*%
%ADD33RoundRect,0.050000X-0.828795X-0.230432X0.486775X-0.709260X0.828795X0.230432X-0.486775X0.709260X0*%
G04 APERTURE END LIST*
D10*
%TO.C,G\u002A\u002A\u002A*%
G36*
X124174881Y-99636141D02*
G01*
X124355594Y-99644683D01*
X124530044Y-99658570D01*
X124694299Y-99677666D01*
X124844429Y-99701833D01*
X124976499Y-99730933D01*
X124988533Y-99734044D01*
X125097173Y-99761579D01*
X125188582Y-99783516D01*
X125266687Y-99800669D01*
X125335411Y-99813855D01*
X125398679Y-99823891D01*
X125460416Y-99831593D01*
X125504804Y-99836673D01*
X125541497Y-99842533D01*
X125571201Y-99851013D01*
X125600347Y-99864579D01*
X125635364Y-99885695D01*
X125682680Y-99916829D01*
X125792405Y-99989763D01*
X125792405Y-101003308D01*
X125792401Y-101101279D01*
X125792358Y-101263756D01*
X125792249Y-101405820D01*
X125792046Y-101528824D01*
X125791724Y-101634124D01*
X125791255Y-101723071D01*
X125790614Y-101797022D01*
X125789774Y-101857328D01*
X125788708Y-101905346D01*
X125787390Y-101942427D01*
X125785794Y-101969928D01*
X125783893Y-101989200D01*
X125781661Y-102001599D01*
X125779071Y-102008479D01*
X125776096Y-102011192D01*
X125772711Y-102011094D01*
X125767609Y-102009630D01*
X125742412Y-102002493D01*
X125700524Y-101990678D01*
X125645336Y-101975141D01*
X125580240Y-101956838D01*
X125508627Y-101936722D01*
X125479476Y-101928485D01*
X125406898Y-101907522D01*
X125340342Y-101887684D01*
X125283730Y-101870173D01*
X125240984Y-101856194D01*
X125216027Y-101846949D01*
X125202943Y-101842155D01*
X125167391Y-101831231D01*
X125115878Y-101816638D01*
X125051963Y-101799300D01*
X124979209Y-101780139D01*
X124901174Y-101760078D01*
X124821419Y-101740038D01*
X124743504Y-101720943D01*
X124670990Y-101703714D01*
X124607437Y-101689274D01*
X124577191Y-101683546D01*
X124507556Y-101674430D01*
X124427419Y-101667751D01*
X124344555Y-101663942D01*
X124266739Y-101663437D01*
X124201746Y-101666668D01*
X124174566Y-101669572D01*
X124119828Y-101678125D01*
X124063030Y-101691292D01*
X123998017Y-101710613D01*
X123918635Y-101737633D01*
X123911885Y-101740797D01*
X123884678Y-101759874D01*
X123847491Y-101791489D01*
X123803692Y-101832253D01*
X123756650Y-101878777D01*
X123709733Y-101927675D01*
X123666309Y-101975558D01*
X123629745Y-102019037D01*
X123603411Y-102054725D01*
X123577083Y-102097760D01*
X123545420Y-102157101D01*
X123512479Y-102227248D01*
X123477746Y-102309583D01*
X123440713Y-102405486D01*
X123400867Y-102516340D01*
X123357698Y-102643526D01*
X123310694Y-102788426D01*
X123259345Y-102952421D01*
X123203140Y-103136893D01*
X123089519Y-103513999D01*
X123111829Y-103566507D01*
X123112420Y-103567896D01*
X123122810Y-103592278D01*
X123141399Y-103635845D01*
X123167601Y-103697226D01*
X123200833Y-103775054D01*
X123240508Y-103867959D01*
X123286043Y-103974571D01*
X123336851Y-104093522D01*
X123392349Y-104223443D01*
X123451951Y-104362964D01*
X123515071Y-104510716D01*
X123581126Y-104665331D01*
X123649530Y-104825438D01*
X123719698Y-104989670D01*
X123791046Y-105156656D01*
X123862988Y-105325029D01*
X123934939Y-105493417D01*
X124006314Y-105660454D01*
X124076529Y-105824768D01*
X124144998Y-105984992D01*
X124211136Y-106139756D01*
X124274359Y-106287691D01*
X124334082Y-106427428D01*
X124389719Y-106557597D01*
X124440686Y-106676830D01*
X124486397Y-106783758D01*
X124526268Y-106877011D01*
X124559305Y-106954277D01*
X124608659Y-107069716D01*
X124663784Y-107198659D01*
X124724235Y-107340071D01*
X124789570Y-107492915D01*
X124859347Y-107656154D01*
X124933122Y-107828753D01*
X125010452Y-108009674D01*
X125090895Y-108197882D01*
X125174008Y-108392340D01*
X125259347Y-108592011D01*
X125346469Y-108795860D01*
X125434933Y-109002850D01*
X125524294Y-109211943D01*
X125614111Y-109422105D01*
X125703940Y-109632299D01*
X125793338Y-109841487D01*
X125881862Y-110048634D01*
X125969069Y-110252704D01*
X126054517Y-110452660D01*
X126137763Y-110647465D01*
X126218364Y-110836083D01*
X126295876Y-111017478D01*
X126369857Y-111190613D01*
X126439864Y-111354453D01*
X126505454Y-111507959D01*
X126566184Y-111650097D01*
X126621612Y-111779830D01*
X126671293Y-111896120D01*
X126714787Y-111997933D01*
X126751648Y-112084231D01*
X126781436Y-112153979D01*
X126803706Y-112206139D01*
X126818016Y-112239675D01*
X126823923Y-112253551D01*
X126839318Y-112290126D01*
X125598427Y-112289836D01*
X124357536Y-112289547D01*
X123209750Y-109507315D01*
X123136290Y-109329261D01*
X123017343Y-109041019D01*
X122906516Y-108772546D01*
X122803530Y-108523181D01*
X122708109Y-108292262D01*
X122619975Y-108079129D01*
X122538852Y-107883121D01*
X122464462Y-107703575D01*
X122396528Y-107539832D01*
X122334772Y-107391229D01*
X122278919Y-107257105D01*
X122228689Y-107136800D01*
X122183807Y-107029651D01*
X122143995Y-106934999D01*
X122108976Y-106852181D01*
X122078473Y-106780537D01*
X122052208Y-106719404D01*
X122029904Y-106668123D01*
X122011285Y-106626032D01*
X121996073Y-106592469D01*
X121983990Y-106566773D01*
X121974760Y-106548284D01*
X121968105Y-106536340D01*
X121963749Y-106530279D01*
X121961414Y-106529441D01*
X121959540Y-106534135D01*
X121950539Y-106558139D01*
X121934464Y-106601551D01*
X121911701Y-106663317D01*
X121882636Y-106742384D01*
X121847654Y-106837698D01*
X121807141Y-106948205D01*
X121761483Y-107072852D01*
X121711067Y-107210583D01*
X121656278Y-107360345D01*
X121597501Y-107521084D01*
X121535123Y-107691747D01*
X121469530Y-107871280D01*
X121401107Y-108058627D01*
X121330240Y-108252737D01*
X121257315Y-108452554D01*
X121218621Y-108558553D01*
X121145508Y-108758598D01*
X121074096Y-108953680D01*
X121004812Y-109142644D01*
X120938086Y-109324333D01*
X120874343Y-109497591D01*
X120814014Y-109661260D01*
X120757525Y-109814186D01*
X120705304Y-109955210D01*
X120657779Y-110083177D01*
X120615379Y-110196930D01*
X120578531Y-110295313D01*
X120547664Y-110377170D01*
X120523204Y-110441343D01*
X120505581Y-110486676D01*
X120495222Y-110512013D01*
X120489987Y-110523953D01*
X120460972Y-110591411D01*
X120428182Y-110669300D01*
X120395260Y-110748901D01*
X120365853Y-110821495D01*
X120356335Y-110845159D01*
X120328361Y-110913150D01*
X120300026Y-110980088D01*
X120274165Y-111039329D01*
X120253618Y-111084232D01*
X120239159Y-111112750D01*
X120202816Y-111176861D01*
X120156042Y-111252800D01*
X120101318Y-111336942D01*
X120041125Y-111425663D01*
X119977944Y-111515339D01*
X119914256Y-111602343D01*
X119852541Y-111683053D01*
X119795281Y-111753844D01*
X119700985Y-111854608D01*
X119575303Y-111963231D01*
X119434447Y-112061668D01*
X119282037Y-112147145D01*
X119208872Y-112180198D01*
X119111912Y-112217660D01*
X119004060Y-112254266D01*
X118891346Y-112288211D01*
X118779795Y-112317690D01*
X118675437Y-112340900D01*
X118584297Y-112356035D01*
X118570687Y-112357540D01*
X118518464Y-112361220D01*
X118449703Y-112364009D01*
X118368809Y-112365895D01*
X118280187Y-112366868D01*
X118188240Y-112366918D01*
X118097374Y-112366035D01*
X118011993Y-112364208D01*
X117936501Y-112361428D01*
X117875303Y-112357683D01*
X117812751Y-112352326D01*
X117744352Y-112345252D01*
X117681061Y-112336840D01*
X117617513Y-112326171D01*
X117548345Y-112312327D01*
X117468192Y-112294389D01*
X117371692Y-112271438D01*
X117160682Y-112220375D01*
X117160682Y-111242187D01*
X117160682Y-110263999D01*
X117186003Y-110269759D01*
X117202542Y-110272960D01*
X117238224Y-110279313D01*
X117288340Y-110287964D01*
X117348826Y-110298215D01*
X117415621Y-110309362D01*
X117441165Y-110313549D01*
X117522992Y-110326011D01*
X117592663Y-110334538D01*
X117657900Y-110339799D01*
X117726425Y-110342465D01*
X117805960Y-110343205D01*
X117848088Y-110342942D01*
X117909049Y-110341597D01*
X117960917Y-110339305D01*
X117999221Y-110336285D01*
X118019490Y-110332755D01*
X118041656Y-110316315D01*
X118058983Y-110287861D01*
X118062956Y-110278128D01*
X118081284Y-110244666D01*
X118104708Y-110211093D01*
X118121738Y-110188267D01*
X118149643Y-110147232D01*
X118175672Y-110105477D01*
X118192343Y-110077856D01*
X118224286Y-110027195D01*
X118254399Y-109981684D01*
X118255693Y-109979787D01*
X118302029Y-109893659D01*
X118334233Y-109795072D01*
X118350183Y-109690480D01*
X118350758Y-109679606D01*
X118351089Y-109669307D01*
X118351458Y-109659835D01*
X118352235Y-109650145D01*
X118353793Y-109639195D01*
X118356503Y-109625938D01*
X118360737Y-109609333D01*
X118366865Y-109588334D01*
X118375259Y-109561898D01*
X118386292Y-109528980D01*
X118400333Y-109488536D01*
X118417756Y-109439523D01*
X118438930Y-109380895D01*
X118464228Y-109311610D01*
X118494022Y-109230623D01*
X118528682Y-109136889D01*
X118568580Y-109029365D01*
X118614088Y-108907007D01*
X118665576Y-108768771D01*
X118723418Y-108613612D01*
X118787983Y-108440487D01*
X118859644Y-108248351D01*
X118938772Y-108036160D01*
X118992743Y-107891403D01*
X119071963Y-107678905D01*
X119154794Y-107456700D01*
X119240826Y-107225889D01*
X119329649Y-106987571D01*
X119420853Y-106742846D01*
X119514029Y-106492815D01*
X119608767Y-106238577D01*
X119704657Y-105981231D01*
X119801290Y-105721878D01*
X119898256Y-105461618D01*
X119995146Y-105201551D01*
X120091549Y-104942776D01*
X120187056Y-104686393D01*
X120281257Y-104433503D01*
X120373742Y-104185205D01*
X120464103Y-103942599D01*
X120551928Y-103706784D01*
X120636809Y-103478862D01*
X120718336Y-103259931D01*
X120796099Y-103051092D01*
X120869688Y-102853444D01*
X120938694Y-102668087D01*
X121002707Y-102496122D01*
X121061317Y-102338648D01*
X121114115Y-102196765D01*
X121160691Y-102071572D01*
X121200635Y-101964171D01*
X121233537Y-101875660D01*
X121258989Y-101807140D01*
X121276329Y-101761279D01*
X121304202Y-101691168D01*
X121334679Y-101619134D01*
X121369135Y-101542210D01*
X121408942Y-101457429D01*
X121455473Y-101361824D01*
X121510102Y-101252430D01*
X121574203Y-101126280D01*
X121584706Y-101105764D01*
X121634823Y-101008949D01*
X121678365Y-100927757D01*
X121718005Y-100858271D01*
X121756416Y-100796577D01*
X121796270Y-100738759D01*
X121840240Y-100680900D01*
X121890998Y-100619086D01*
X121951218Y-100549401D01*
X122023572Y-100467928D01*
X122081873Y-100403529D01*
X122193379Y-100285187D01*
X122295609Y-100183462D01*
X122387902Y-100098974D01*
X122469598Y-100032340D01*
X122540035Y-99984181D01*
X122541981Y-99983015D01*
X122705031Y-99892847D01*
X122870643Y-99815375D01*
X123034999Y-99752070D01*
X123194286Y-99704405D01*
X123344687Y-99673850D01*
X123468054Y-99658186D01*
X123634493Y-99643968D01*
X123810399Y-99635646D01*
X123991839Y-99633083D01*
X124174881Y-99636141D01*
G37*
D11*
%TO.C,AdamTech-MDJ004FS1*%
X192032865Y-83042410D02*
G75*
G02*
X191782865Y-83042410I-125000J0D01*
G01*
X191782865Y-83042410D02*
G75*
G02*
X192032865Y-83042410I125000J0D01*
G01*
X193532865Y-83042410D02*
G75*
G02*
X193282865Y-83042410I-125000J0D01*
G01*
X193282865Y-83042410D02*
G75*
G02*
X193532865Y-83042410I125000J0D01*
G01*
X195032865Y-83042410D02*
G75*
G02*
X194782865Y-83042410I-125000J0D01*
G01*
X194782865Y-83042410D02*
G75*
G02*
X195032865Y-83042410I125000J0D01*
G01*
X196532865Y-83042410D02*
G75*
G02*
X196282865Y-83042410I-125000J0D01*
G01*
X196282865Y-83042410D02*
G75*
G02*
X196532865Y-83042410I125000J0D01*
G01*
D12*
X193415865Y-81804410D02*
X192399865Y-81804410D01*
X192399865Y-80788410D01*
X193415865Y-80788410D01*
X193415865Y-81804410D01*
G36*
X193415865Y-81804410D02*
G01*
X192399865Y-81804410D01*
X192399865Y-80788410D01*
X193415865Y-80788410D01*
X193415865Y-81804410D01*
G37*
X193423865Y-85288410D02*
X192407865Y-85288410D01*
X192407865Y-84272410D01*
X193423865Y-84272410D01*
X193423865Y-85288410D01*
G36*
X193423865Y-85288410D02*
G01*
X192407865Y-85288410D01*
X192407865Y-84272410D01*
X193423865Y-84272410D01*
X193423865Y-85288410D01*
G37*
X195915865Y-81804410D02*
X194899865Y-81804410D01*
X194899865Y-80788410D01*
X195915865Y-80788410D01*
X195915865Y-81804410D01*
G36*
X195915865Y-81804410D02*
G01*
X194899865Y-81804410D01*
X194899865Y-80788410D01*
X195915865Y-80788410D01*
X195915865Y-81804410D01*
G37*
X195915865Y-85296410D02*
X194899865Y-85296410D01*
X194899865Y-84280410D01*
X195915865Y-84280410D01*
X195915865Y-85296410D01*
G36*
X195915865Y-85296410D02*
G01*
X194899865Y-85296410D01*
X194899865Y-84280410D01*
X195915865Y-84280410D01*
X195915865Y-85296410D01*
G37*
%TD*%
D13*
%TO.C,S10*%
X148447865Y-86142410D03*
D14*
X148947865Y-82392410D03*
X153947865Y-80192410D03*
X153947865Y-80192410D03*
D15*
X153947865Y-86142410D03*
D14*
X158947865Y-82392410D03*
D13*
X159447865Y-86142410D03*
D16*
X150672865Y-80192410D03*
X162222865Y-82392410D03*
%TD*%
D13*
%TO.C,S6*%
X108926422Y-53391885D03*
D14*
X109097683Y-49612577D03*
X113886916Y-46985170D03*
X113886916Y-46985170D03*
D15*
X114405493Y-52912528D03*
D14*
X119059632Y-48741019D03*
D13*
X119884564Y-52433171D03*
D17*
X110624379Y-47270605D03*
X122322170Y-48455584D03*
%TD*%
D13*
%TO.C,S14*%
X166447865Y-71142410D03*
D14*
X166947865Y-67392410D03*
X171947865Y-65192410D03*
X171947865Y-65192410D03*
D15*
X171947865Y-71142410D03*
D14*
X176947865Y-67392410D03*
D13*
X177447865Y-71142410D03*
D16*
X168672865Y-65192410D03*
X180222865Y-67392410D03*
%TD*%
D18*
%TO.C,RP2040Zero1*%
X200327865Y-47282410D03*
X200327865Y-47282410D03*
X200327865Y-49822410D03*
X200327865Y-49822410D03*
X200327865Y-52362410D03*
X200327865Y-52362410D03*
X200327865Y-54902410D03*
X200327865Y-54902410D03*
X200327865Y-57442410D03*
X200327865Y-57442410D03*
D19*
X200327865Y-59982410D03*
X200327865Y-59982410D03*
X200327865Y-62522410D03*
X200327865Y-62522410D03*
X200327865Y-65062410D03*
X200327865Y-65062410D03*
X200327865Y-67602410D03*
X200327865Y-67602410D03*
D20*
X197187865Y-68412410D03*
X197187865Y-68412410D03*
D21*
X194647865Y-68412410D03*
X194647865Y-68412410D03*
X192107865Y-68412410D03*
X192107865Y-68412410D03*
X189567865Y-68412410D03*
X189567865Y-68412410D03*
X187027865Y-68412410D03*
X187027865Y-68412410D03*
D19*
X183887865Y-67602410D03*
X183887865Y-67602410D03*
X183887865Y-65062410D03*
X183887865Y-65062410D03*
X183887865Y-62522410D03*
X183887865Y-62522410D03*
X183887865Y-59982410D03*
X183887865Y-59982410D03*
X183887865Y-47282410D03*
X183887865Y-47282410D03*
X183887865Y-49822410D03*
X183887865Y-49822410D03*
X183887865Y-52362410D03*
X183887865Y-52362410D03*
X183887865Y-57442410D03*
X183887865Y-57442410D03*
X183887865Y-54902410D03*
X183887865Y-54902410D03*
%TD*%
D22*
%TO.C,MH2*%
X127075365Y-94466401D03*
%TD*%
D13*
%TO.C,S18*%
X182298723Y-116947965D03*
D14*
X184606736Y-113950370D03*
X190036863Y-114545114D03*
X190036863Y-114545114D03*
D15*
X187061863Y-119697965D03*
D14*
X193266990Y-118950370D03*
D13*
X191825003Y-122447965D03*
D23*
X187200630Y-112907614D03*
X196103223Y-120587870D03*
%TD*%
D13*
%TO.C,S12*%
X148447865Y-52142410D03*
D14*
X148947865Y-48392410D03*
X153947865Y-46192410D03*
X153947865Y-46192410D03*
D15*
X153947865Y-52142410D03*
D14*
X158947865Y-48392410D03*
D13*
X159447865Y-52142410D03*
D16*
X150672865Y-46192410D03*
X162222865Y-48392410D03*
%TD*%
D22*
%TO.C,MH1*%
X105810153Y-57930757D03*
%TD*%
D13*
%TO.C,S8*%
X130447865Y-64142410D03*
D14*
X130947865Y-60392410D03*
X135947865Y-58192410D03*
X135947865Y-58192410D03*
D15*
X135947865Y-64142410D03*
D14*
X140947865Y-60392410D03*
D13*
X141447865Y-64142410D03*
D16*
X132672865Y-58192410D03*
X144222865Y-60392410D03*
%TD*%
D13*
%TO.C,S11*%
X148447865Y-69142410D03*
D14*
X148947865Y-65392410D03*
X153947865Y-63192410D03*
X153947865Y-63192410D03*
D15*
X153947865Y-69142410D03*
D14*
X158947865Y-65392410D03*
D13*
X159447865Y-69142410D03*
D16*
X150672865Y-63192410D03*
X162222865Y-65392410D03*
%TD*%
D13*
%TO.C,S15*%
X166447865Y-54142410D03*
D14*
X166947865Y-50392410D03*
X171947865Y-48192410D03*
X171947865Y-48192410D03*
D15*
X171947865Y-54142410D03*
D14*
X176947865Y-50392410D03*
D13*
X177447865Y-54142410D03*
D16*
X168672865Y-48192410D03*
X180222865Y-50392410D03*
%TD*%
D13*
%TO.C,S17*%
X162135273Y-110518905D03*
D14*
X163588807Y-107026093D03*
X168987838Y-106195151D03*
X168987838Y-106195151D03*
D15*
X167447865Y-111942410D03*
D14*
X173248066Y-109614283D03*
D13*
X172760457Y-113365915D03*
D24*
X165824431Y-105347519D03*
X176411473Y-110461916D03*
%TD*%
D13*
%TO.C,S3*%
X88679519Y-67471601D03*
D14*
X88520743Y-63691748D03*
X93062755Y-60656930D03*
X93062755Y-60656930D03*
D15*
X94095962Y-66516536D03*
D14*
X98368820Y-61955266D03*
D13*
X99512405Y-65561471D03*
D25*
X89837510Y-61225628D03*
X101594065Y-61386568D03*
%TD*%
D13*
%TO.C,S9*%
X130447865Y-47142410D03*
D14*
X130947865Y-43392410D03*
X135947865Y-41192410D03*
X135947865Y-41192410D03*
D15*
X135947865Y-47142410D03*
D14*
X140947865Y-43392410D03*
D13*
X141447865Y-47142410D03*
D16*
X132672865Y-41192410D03*
X144222865Y-43392410D03*
%TD*%
D13*
%TO.C,S5*%
X110408070Y-70327195D03*
D14*
X110579331Y-66547887D03*
X115368564Y-63920480D03*
X115368564Y-63920480D03*
D15*
X115887141Y-69847838D03*
D14*
X120541280Y-65676329D03*
D13*
X121366212Y-69368481D03*
D17*
X112106027Y-64205915D03*
X123803818Y-65390894D03*
%TD*%
D22*
%TO.C,AdamTech-MDJ004FS1*%
X198407865Y-76292410D03*
D26*
X195407865Y-79642410D03*
X192907865Y-79642410D03*
D27*
X195407865Y-81042410D03*
X192907865Y-81042410D03*
D22*
X199207865Y-83042410D03*
D28*
X192915865Y-85034410D03*
X195407865Y-85042410D03*
D26*
X195407865Y-86442410D03*
X192907865Y-86442410D03*
D22*
X198407865Y-89792410D03*
D29*
X195407865Y-82058410D03*
D30*
X195407865Y-84026410D03*
D29*
X192907865Y-82058410D03*
D30*
X192915865Y-84018410D03*
%TD*%
D13*
%TO.C,S7*%
X130447865Y-81142410D03*
D14*
X130947865Y-77392410D03*
X135947865Y-75192410D03*
X135947865Y-75192410D03*
D15*
X135947865Y-81142410D03*
D14*
X140947865Y-77392410D03*
D13*
X141447865Y-81142410D03*
D16*
X132672865Y-75192410D03*
X144222865Y-77392410D03*
%TD*%
D22*
%TO.C,MH4*%
X162947865Y-60642410D03*
%TD*%
D13*
%TO.C,S1*%
X94583557Y-100955065D03*
D14*
X94424781Y-97175212D03*
X98966793Y-94140394D03*
X98966793Y-94140394D03*
D15*
X100000000Y-100000000D03*
D14*
X104272858Y-95438730D03*
D13*
X105416443Y-99044935D03*
D25*
X95741548Y-94709092D03*
X107498103Y-94870032D03*
%TD*%
D13*
%TO.C,S4*%
X111889718Y-87262505D03*
D14*
X112060979Y-83483197D03*
X116850212Y-80855790D03*
X116850212Y-80855790D03*
D15*
X117368789Y-86783148D03*
D14*
X122022928Y-82611639D03*
D13*
X122847860Y-86303791D03*
D17*
X113587675Y-81141225D03*
X125285466Y-82326204D03*
%TD*%
D22*
%TO.C,MH3*%
X180947865Y-96642410D03*
%TD*%
D13*
%TO.C,S16*%
X141247865Y-109442410D03*
D14*
X141747865Y-105692410D03*
X146747865Y-103492410D03*
X146747865Y-103492410D03*
D15*
X146747865Y-109442410D03*
D14*
X151747865Y-105692410D03*
D13*
X152247865Y-109442410D03*
D16*
X143472865Y-103492410D03*
X155022865Y-105692410D03*
%TD*%
D13*
%TO.C,S2*%
X91631538Y-84213333D03*
D14*
X91472762Y-80433480D03*
X96014774Y-77398662D03*
X96014774Y-77398662D03*
D15*
X97047981Y-83258268D03*
D14*
X101320839Y-78696998D03*
D13*
X102464424Y-82303203D03*
D25*
X92789529Y-77967360D03*
X104546084Y-78128300D03*
%TD*%
D13*
%TO.C,S13*%
X166447865Y-88142410D03*
D14*
X166947865Y-84392410D03*
X171947865Y-82192410D03*
X171947865Y-82192410D03*
D15*
X171947865Y-88142410D03*
D14*
X176947865Y-84392410D03*
D13*
X177447865Y-88142410D03*
D16*
X168672865Y-82192410D03*
X180222865Y-84392410D03*
%TD*%
D31*
%TO.C,LED5*%
X142247865Y-98542410D03*
X142247865Y-99942410D03*
X136847865Y-99942410D03*
X136847865Y-98542410D03*
%TD*%
D32*
%TO.C,LED4*%
X187055903Y-107108288D03*
X186355903Y-108320724D03*
X181679365Y-105620724D03*
X182379365Y-104408288D03*
%TD*%
D31*
%TO.C,LED3*%
X181847865Y-77242410D03*
X181847865Y-78642410D03*
X176447865Y-78642410D03*
X176447865Y-77242410D03*
%TD*%
D32*
%TO.C,LED2*%
X147636134Y-55436192D03*
X146936134Y-56648628D03*
X142259596Y-53948628D03*
X142959596Y-52736192D03*
%TD*%
D33*
%TO.C,LED1*%
X107064224Y-72753152D03*
X106585396Y-74068721D03*
X101511056Y-72221812D03*
X101989884Y-70906243D03*
%TD*%
M02*
