%TF.GenerationSoftware,KiCad,Pcbnew,9.0.3*%
%TF.CreationDate,2025-07-20T18:48:36+02:00*%
%TF.ProjectId,kdb-v1,6b64622d-7631-42e6-9b69-6361645f7063,v1.0.0*%
%TF.SameCoordinates,Original*%
%TF.FileFunction,Soldermask,Top*%
%TF.FilePolarity,Negative*%
%FSLAX46Y46*%
G04 Gerber Fmt 4.6, Leading zero omitted, Abs format (unit mm)*
G04 Created by KiCad (PCBNEW 9.0.3) date 2025-07-20 18:48:36*
%MOMM*%
%LPD*%
G01*
G04 APERTURE LIST*
G04 Aperture macros list*
%AMRoundRect*
0 Rectangle with rounded corners*
0 $1 Rounding radius*
0 $2 $3 $4 $5 $6 $7 $8 $9 X,Y pos of 4 corners*
0 Add a 4 corners polygon primitive as box body*
4,1,4,$2,$3,$4,$5,$6,$7,$8,$9,$2,$3,0*
0 Add four circle primitives for the rounded corners*
1,1,$1+$1,$2,$3*
1,1,$1+$1,$4,$5*
1,1,$1+$1,$6,$7*
1,1,$1+$1,$8,$9*
0 Add four rect primitives between the rounded corners*
20,1,$1+$1,$2,$3,$4,$5,0*
20,1,$1+$1,$4,$5,$6,$7,0*
20,1,$1+$1,$6,$7,$8,$9,0*
20,1,$1+$1,$8,$9,$2,$3,0*%
%AMFreePoly0*
4,1,14,0.035355,0.435355,0.635355,-0.164645,0.650000,-0.200000,0.650000,-0.400000,0.635355,-0.435355,0.600000,-0.450000,-0.600000,-0.450000,-0.635355,-0.435355,-0.650000,-0.400000,-0.650000,-0.200000,-0.635355,-0.164645,-0.035355,0.435355,0.000000,0.450000,0.035355,0.435355,0.035355,0.435355,$1*%
%AMFreePoly1*
4,1,16,0.635355,0.285355,0.650000,0.250000,0.650000,-1.000000,0.635355,-1.035355,0.600000,-1.050000,0.564645,-1.035355,0.000000,-0.470710,-0.564645,-1.035355,-0.600000,-1.050000,-0.635355,-1.035355,-0.650000,-1.000000,-0.650000,0.250000,-0.635355,0.285355,-0.600000,0.300000,0.600000,0.300000,0.635355,0.285355,0.635355,0.285355,$1*%
G04 Aperture macros list end*
%ADD10C,0.100000*%
%ADD11C,0.000000*%
%ADD12C,1.801800*%
%ADD13C,3.100000*%
%ADD14C,3.529000*%
%ADD15RoundRect,0.050000X-1.300000X-1.300000X1.300000X-1.300000X1.300000X1.300000X-1.300000X1.300000X0*%
%ADD16RoundRect,0.050000X-1.181751X-1.408356X1.408356X-1.181751X1.181751X1.408356X-1.408356X1.181751X0*%
%ADD17RoundRect,0.425000X-0.925000X-0.425000X0.925000X-0.425000X0.925000X0.425000X-0.925000X0.425000X0*%
%ADD18RoundRect,0.425050X-0.924950X-0.425050X0.924950X-0.425050X0.924950X0.425050X-0.924950X0.425050X0*%
%ADD19RoundRect,0.425000X-0.425000X-0.925000X0.425000X-0.925000X0.425000X0.925000X-0.425000X0.925000X0*%
%ADD20RoundRect,0.418700X-0.418700X-0.931300X0.418700X-0.931300X0.418700X0.931300X-0.418700X0.931300X0*%
%ADD21C,2.300000*%
%ADD22RoundRect,0.050000X-1.775833X-0.475833X0.475833X-1.775833X1.775833X0.475833X-0.475833X1.775833X0*%
%ADD23RoundRect,0.050000X-1.592168X-0.919239X0.919239X-1.592168X1.592168X0.919239X-0.919239X1.592168X0*%
%ADD24RoundRect,0.050000X-1.054507X-1.505993X1.505993X-1.054507X1.054507X1.505993X-1.505993X1.054507X0*%
%ADD25C,1.500000*%
%ADD26FreePoly0,180.000000*%
%ADD27FreePoly0,0.000000*%
%ADD28FreePoly1,0.000000*%
%ADD29FreePoly1,180.000000*%
%ADD30RoundRect,0.050000X-0.700000X-0.500000X0.700000X-0.500000X0.700000X0.500000X-0.700000X0.500000X0*%
%ADD31RoundRect,0.050000X-0.856218X-0.083013X0.356218X-0.783013X0.856218X0.083013X-0.356218X0.783013X0*%
%ADD32RoundRect,0.050000X-0.828795X-0.230432X0.486775X-0.709260X0.828795X0.230432X-0.486775X0.709260X0*%
G04 APERTURE END LIST*
D10*
%TO.C,AdamTech-MDJ004FS1*%
X193415865Y-81804410D02*
X192399865Y-81804410D01*
X192399865Y-80788410D01*
X193415865Y-80788410D01*
X193415865Y-81804410D01*
G36*
X193415865Y-81804410D02*
G01*
X192399865Y-81804410D01*
X192399865Y-80788410D01*
X193415865Y-80788410D01*
X193415865Y-81804410D01*
G37*
X193423865Y-85288410D02*
X192407865Y-85288410D01*
X192407865Y-84272410D01*
X193423865Y-84272410D01*
X193423865Y-85288410D01*
G36*
X193423865Y-85288410D02*
G01*
X192407865Y-85288410D01*
X192407865Y-84272410D01*
X193423865Y-84272410D01*
X193423865Y-85288410D01*
G37*
X195915865Y-81804410D02*
X194899865Y-81804410D01*
X194899865Y-80788410D01*
X195915865Y-80788410D01*
X195915865Y-81804410D01*
G36*
X195915865Y-81804410D02*
G01*
X194899865Y-81804410D01*
X194899865Y-80788410D01*
X195915865Y-80788410D01*
X195915865Y-81804410D01*
G37*
X195915865Y-85296410D02*
X194899865Y-85296410D01*
X194899865Y-84280410D01*
X195915865Y-84280410D01*
X195915865Y-85296410D01*
G36*
X195915865Y-85296410D02*
G01*
X194899865Y-85296410D01*
X194899865Y-84280410D01*
X195915865Y-84280410D01*
X195915865Y-85296410D01*
G37*
D11*
%TO.C,G\u002A\u002A\u002A*%
G36*
X120027066Y-99519069D02*
G01*
X120202972Y-99527391D01*
X120369411Y-99541609D01*
X120492778Y-99557273D01*
X120643179Y-99587828D01*
X120802466Y-99635493D01*
X120966822Y-99698798D01*
X121132434Y-99776270D01*
X121295484Y-99866438D01*
X121297430Y-99867604D01*
X121367867Y-99915763D01*
X121449563Y-99982397D01*
X121541856Y-100066885D01*
X121644086Y-100168610D01*
X121755592Y-100286952D01*
X121813893Y-100351351D01*
X121886247Y-100432824D01*
X121946467Y-100502509D01*
X121997225Y-100564323D01*
X122041195Y-100622182D01*
X122081049Y-100680000D01*
X122119460Y-100741694D01*
X122159100Y-100811180D01*
X122202642Y-100892372D01*
X122252759Y-100989187D01*
X122263262Y-101009703D01*
X122327363Y-101135853D01*
X122381992Y-101245247D01*
X122428523Y-101340852D01*
X122468330Y-101425633D01*
X122502786Y-101502557D01*
X122533263Y-101574591D01*
X122561136Y-101644702D01*
X122578476Y-101690563D01*
X122603928Y-101759083D01*
X122636830Y-101847594D01*
X122676774Y-101954995D01*
X122723350Y-102080188D01*
X122776148Y-102222071D01*
X122834758Y-102379545D01*
X122898771Y-102551510D01*
X122967777Y-102736867D01*
X123041366Y-102934515D01*
X123119129Y-103143354D01*
X123200656Y-103362285D01*
X123285537Y-103590207D01*
X123373362Y-103826022D01*
X123463723Y-104068628D01*
X123556208Y-104316926D01*
X123650409Y-104569816D01*
X123745916Y-104826199D01*
X123842319Y-105084974D01*
X123939209Y-105345041D01*
X124036175Y-105605301D01*
X124132808Y-105864654D01*
X124228698Y-106122000D01*
X124323436Y-106376238D01*
X124416612Y-106626269D01*
X124507816Y-106870994D01*
X124596639Y-107109312D01*
X124682671Y-107340123D01*
X124765502Y-107562328D01*
X124844722Y-107774826D01*
X124898693Y-107919583D01*
X124977821Y-108131774D01*
X125049482Y-108323910D01*
X125114047Y-108497035D01*
X125171889Y-108652194D01*
X125223377Y-108790430D01*
X125268885Y-108912788D01*
X125308783Y-109020312D01*
X125343443Y-109114046D01*
X125373237Y-109195033D01*
X125398535Y-109264318D01*
X125419709Y-109322946D01*
X125437132Y-109371959D01*
X125451173Y-109412403D01*
X125462206Y-109445321D01*
X125470600Y-109471757D01*
X125476728Y-109492756D01*
X125480962Y-109509361D01*
X125483672Y-109522618D01*
X125485230Y-109533568D01*
X125486007Y-109543258D01*
X125486376Y-109552730D01*
X125486707Y-109563029D01*
X125487282Y-109573903D01*
X125503232Y-109678495D01*
X125535436Y-109777082D01*
X125581772Y-109863210D01*
X125583066Y-109865107D01*
X125613179Y-109910618D01*
X125645122Y-109961279D01*
X125661793Y-109988900D01*
X125687822Y-110030655D01*
X125715727Y-110071690D01*
X125732757Y-110094516D01*
X125756181Y-110128089D01*
X125774509Y-110161551D01*
X125778482Y-110171284D01*
X125795809Y-110199738D01*
X125817975Y-110216178D01*
X125838244Y-110219708D01*
X125876548Y-110222728D01*
X125928416Y-110225020D01*
X125989377Y-110226365D01*
X126031505Y-110226628D01*
X126111040Y-110225888D01*
X126179565Y-110223222D01*
X126244802Y-110217961D01*
X126314473Y-110209434D01*
X126396300Y-110196972D01*
X126421844Y-110192785D01*
X126488639Y-110181638D01*
X126549125Y-110171387D01*
X126599241Y-110162736D01*
X126634923Y-110156383D01*
X126651462Y-110153182D01*
X126676783Y-110147422D01*
X126676783Y-111125610D01*
X126676783Y-112103798D01*
X126465773Y-112154861D01*
X126369273Y-112177812D01*
X126289120Y-112195750D01*
X126219952Y-112209594D01*
X126156404Y-112220263D01*
X126093113Y-112228675D01*
X126024714Y-112235749D01*
X125962162Y-112241106D01*
X125900964Y-112244851D01*
X125825472Y-112247631D01*
X125740091Y-112249458D01*
X125649225Y-112250341D01*
X125557278Y-112250291D01*
X125468656Y-112249318D01*
X125387762Y-112247432D01*
X125319001Y-112244643D01*
X125266778Y-112240963D01*
X125253168Y-112239458D01*
X125162028Y-112224323D01*
X125057670Y-112201113D01*
X124946119Y-112171634D01*
X124833405Y-112137689D01*
X124725553Y-112101083D01*
X124628593Y-112063621D01*
X124555428Y-112030568D01*
X124403018Y-111945091D01*
X124262162Y-111846654D01*
X124136480Y-111738031D01*
X124042184Y-111637267D01*
X123984924Y-111566476D01*
X123923209Y-111485766D01*
X123859521Y-111398762D01*
X123796340Y-111309086D01*
X123736147Y-111220365D01*
X123681423Y-111136223D01*
X123634649Y-111060284D01*
X123598306Y-110996173D01*
X123583847Y-110967655D01*
X123563300Y-110922752D01*
X123537439Y-110863511D01*
X123509104Y-110796573D01*
X123481130Y-110728582D01*
X123471612Y-110704918D01*
X123442205Y-110632324D01*
X123409283Y-110552723D01*
X123376493Y-110474834D01*
X123347478Y-110407376D01*
X123342243Y-110395436D01*
X123331884Y-110370099D01*
X123314261Y-110324766D01*
X123289801Y-110260593D01*
X123258934Y-110178736D01*
X123222086Y-110080353D01*
X123179686Y-109966600D01*
X123132161Y-109838633D01*
X123079940Y-109697609D01*
X123023451Y-109544683D01*
X122963122Y-109381014D01*
X122899379Y-109207756D01*
X122832653Y-109026067D01*
X122763369Y-108837103D01*
X122691957Y-108642021D01*
X122618844Y-108441976D01*
X122580150Y-108335977D01*
X122507225Y-108136160D01*
X122436358Y-107942050D01*
X122367935Y-107754703D01*
X122302342Y-107575170D01*
X122239964Y-107404507D01*
X122181187Y-107243768D01*
X122126398Y-107094006D01*
X122075982Y-106956275D01*
X122030324Y-106831628D01*
X121989811Y-106721121D01*
X121954829Y-106625807D01*
X121925764Y-106546740D01*
X121903001Y-106484974D01*
X121886926Y-106441562D01*
X121877925Y-106417558D01*
X121876051Y-106412864D01*
X121873716Y-106413702D01*
X121869360Y-106419763D01*
X121862705Y-106431707D01*
X121853475Y-106450196D01*
X121841392Y-106475892D01*
X121826180Y-106509455D01*
X121807561Y-106551546D01*
X121785257Y-106602827D01*
X121758992Y-106663960D01*
X121728489Y-106735604D01*
X121693470Y-106818422D01*
X121653658Y-106913074D01*
X121608776Y-107020223D01*
X121558546Y-107140528D01*
X121502693Y-107274652D01*
X121440937Y-107423255D01*
X121373003Y-107586998D01*
X121298613Y-107766544D01*
X121217490Y-107962552D01*
X121129356Y-108175685D01*
X121033935Y-108406604D01*
X120930949Y-108655969D01*
X120820122Y-108924442D01*
X120701175Y-109212684D01*
X120627715Y-109390738D01*
X119479929Y-112172970D01*
X118239038Y-112173259D01*
X116998147Y-112173549D01*
X117013542Y-112136974D01*
X117019449Y-112123098D01*
X117033759Y-112089562D01*
X117056029Y-112037402D01*
X117085817Y-111967654D01*
X117122678Y-111881356D01*
X117166172Y-111779543D01*
X117215853Y-111663253D01*
X117271281Y-111533520D01*
X117332011Y-111391382D01*
X117397601Y-111237876D01*
X117467608Y-111074036D01*
X117541589Y-110900901D01*
X117619101Y-110719506D01*
X117699702Y-110530888D01*
X117782948Y-110336083D01*
X117868396Y-110136127D01*
X117955603Y-109932057D01*
X118044127Y-109724910D01*
X118133525Y-109515722D01*
X118223354Y-109305528D01*
X118313171Y-109095366D01*
X118402532Y-108886273D01*
X118490996Y-108679283D01*
X118578118Y-108475434D01*
X118663457Y-108275763D01*
X118746570Y-108081305D01*
X118827013Y-107893097D01*
X118904343Y-107712176D01*
X118978118Y-107539577D01*
X119047895Y-107376338D01*
X119113230Y-107223494D01*
X119173681Y-107082082D01*
X119228806Y-106953139D01*
X119278160Y-106837700D01*
X119311197Y-106760434D01*
X119351068Y-106667181D01*
X119396779Y-106560253D01*
X119447746Y-106441020D01*
X119503383Y-106310851D01*
X119563106Y-106171114D01*
X119626329Y-106023179D01*
X119692467Y-105868415D01*
X119760936Y-105708191D01*
X119831151Y-105543877D01*
X119902526Y-105376840D01*
X119974477Y-105208452D01*
X120046419Y-105040079D01*
X120117767Y-104873093D01*
X120187935Y-104708861D01*
X120256339Y-104548754D01*
X120322394Y-104394139D01*
X120385514Y-104246387D01*
X120445116Y-104106866D01*
X120500614Y-103976945D01*
X120551422Y-103857994D01*
X120596957Y-103751382D01*
X120636632Y-103658477D01*
X120669864Y-103580649D01*
X120696066Y-103519268D01*
X120714655Y-103475701D01*
X120725045Y-103451319D01*
X120725636Y-103449930D01*
X120747946Y-103397422D01*
X120634325Y-103020316D01*
X120578120Y-102835844D01*
X120526771Y-102671849D01*
X120479767Y-102526949D01*
X120436598Y-102399763D01*
X120396752Y-102288909D01*
X120359719Y-102193006D01*
X120324986Y-102110671D01*
X120292045Y-102040524D01*
X120260382Y-101981183D01*
X120234054Y-101938148D01*
X120207720Y-101902460D01*
X120171156Y-101858981D01*
X120127732Y-101811098D01*
X120080815Y-101762200D01*
X120033773Y-101715676D01*
X119989974Y-101674912D01*
X119952787Y-101643297D01*
X119925580Y-101624220D01*
X119918830Y-101621056D01*
X119839448Y-101594036D01*
X119774435Y-101574715D01*
X119717637Y-101561548D01*
X119662899Y-101552995D01*
X119635719Y-101550091D01*
X119570726Y-101546860D01*
X119492910Y-101547365D01*
X119410046Y-101551174D01*
X119329909Y-101557853D01*
X119260274Y-101566969D01*
X119230028Y-101572697D01*
X119166475Y-101587137D01*
X119093961Y-101604366D01*
X119016046Y-101623461D01*
X118936291Y-101643501D01*
X118858256Y-101663562D01*
X118785502Y-101682723D01*
X118721587Y-101700061D01*
X118670074Y-101714654D01*
X118634522Y-101725578D01*
X118621438Y-101730372D01*
X118596481Y-101739617D01*
X118553735Y-101753596D01*
X118497123Y-101771107D01*
X118430567Y-101790945D01*
X118357989Y-101811908D01*
X118328838Y-101820145D01*
X118257225Y-101840261D01*
X118192129Y-101858564D01*
X118136941Y-101874101D01*
X118095053Y-101885916D01*
X118069856Y-101893053D01*
X118064754Y-101894517D01*
X118061369Y-101894615D01*
X118058394Y-101891902D01*
X118055804Y-101885022D01*
X118053572Y-101872623D01*
X118051671Y-101853351D01*
X118050075Y-101825850D01*
X118048757Y-101788769D01*
X118047691Y-101740751D01*
X118046851Y-101680445D01*
X118046210Y-101606494D01*
X118045741Y-101517547D01*
X118045419Y-101412247D01*
X118045216Y-101289243D01*
X118045107Y-101147179D01*
X118045064Y-100984702D01*
X118045060Y-100886731D01*
X118045060Y-99873186D01*
X118154785Y-99800252D01*
X118202101Y-99769118D01*
X118237118Y-99748002D01*
X118266264Y-99734436D01*
X118295968Y-99725956D01*
X118332661Y-99720096D01*
X118377049Y-99715016D01*
X118438786Y-99707314D01*
X118502054Y-99697278D01*
X118570778Y-99684092D01*
X118648883Y-99666939D01*
X118740292Y-99645002D01*
X118848932Y-99617467D01*
X118860966Y-99614356D01*
X118993036Y-99585256D01*
X119143166Y-99561089D01*
X119307421Y-99541993D01*
X119481871Y-99528106D01*
X119662584Y-99519564D01*
X119845626Y-99516506D01*
X120027066Y-99519069D01*
G37*
%TD*%
D12*
%TO.C,S10*%
X148447865Y-86142410D03*
D13*
X148947865Y-82392410D03*
X153947865Y-80192410D03*
X153947865Y-80192410D03*
D14*
X153947865Y-86142410D03*
D13*
X158947865Y-82392410D03*
D12*
X159447865Y-86142410D03*
D15*
X157222865Y-80192410D03*
X145672865Y-82392410D03*
%TD*%
D12*
%TO.C,S6*%
X108926422Y-53391885D03*
D13*
X109097683Y-49612577D03*
X113886916Y-46985170D03*
X113886916Y-46985170D03*
D14*
X114405493Y-52912528D03*
D13*
X119059632Y-48741019D03*
D12*
X119884564Y-52433171D03*
D16*
X117149454Y-46699734D03*
X105835148Y-49898012D03*
%TD*%
D12*
%TO.C,S14*%
X166447865Y-71142410D03*
D13*
X166947865Y-67392410D03*
X171947865Y-65192410D03*
X171947865Y-65192410D03*
D14*
X171947865Y-71142410D03*
D13*
X176947865Y-67392410D03*
D12*
X177447865Y-71142410D03*
D15*
X175222865Y-65192410D03*
X163672865Y-67392410D03*
%TD*%
D17*
%TO.C,RP2040Zero1*%
X200327865Y-47282410D03*
X200327865Y-47282410D03*
X200327865Y-49822410D03*
X200327865Y-49822410D03*
X200327865Y-52362410D03*
X200327865Y-52362410D03*
X200327865Y-54902410D03*
X200327865Y-54902410D03*
X200327865Y-57442410D03*
X200327865Y-57442410D03*
D18*
X200327865Y-59982410D03*
X200327865Y-59982410D03*
X200327865Y-62522410D03*
X200327865Y-62522410D03*
X200327865Y-65062410D03*
X200327865Y-65062410D03*
X200327865Y-67602410D03*
X200327865Y-67602410D03*
D19*
X197187865Y-68412410D03*
X197187865Y-68412410D03*
D20*
X194647865Y-68412410D03*
X194647865Y-68412410D03*
X192107865Y-68412410D03*
X192107865Y-68412410D03*
X189567865Y-68412410D03*
X189567865Y-68412410D03*
X187027865Y-68412410D03*
X187027865Y-68412410D03*
D18*
X183887865Y-67602410D03*
X183887865Y-67602410D03*
X183887865Y-65062410D03*
X183887865Y-65062410D03*
X183887865Y-62522410D03*
X183887865Y-62522410D03*
X183887865Y-59982410D03*
X183887865Y-59982410D03*
X183887865Y-47282410D03*
X183887865Y-47282410D03*
X183887865Y-49822410D03*
X183887865Y-49822410D03*
X183887865Y-52362410D03*
X183887865Y-52362410D03*
X183887865Y-57442410D03*
X183887865Y-57442410D03*
X183887865Y-54902410D03*
X183887865Y-54902410D03*
%TD*%
D21*
%TO.C,MH2*%
X127075365Y-94466401D03*
%TD*%
D12*
%TO.C,S18*%
X182298723Y-116947965D03*
D13*
X184606736Y-113950370D03*
X190036863Y-114545114D03*
X190036863Y-114545114D03*
D14*
X187061863Y-119697965D03*
D13*
X193266990Y-118950370D03*
D12*
X191825003Y-122447965D03*
D22*
X192873096Y-116182614D03*
X181770503Y-112312870D03*
%TD*%
D12*
%TO.C,S12*%
X148447865Y-52142410D03*
D13*
X148947865Y-48392410D03*
X153947865Y-46192410D03*
X153947865Y-46192410D03*
D14*
X153947865Y-52142410D03*
D13*
X158947865Y-48392410D03*
D12*
X159447865Y-52142410D03*
D15*
X157222865Y-46192410D03*
X145672865Y-48392410D03*
%TD*%
D21*
%TO.C,MH1*%
X105810153Y-57930757D03*
%TD*%
D12*
%TO.C,S8*%
X130447865Y-64142410D03*
D13*
X130947865Y-60392410D03*
X135947865Y-58192410D03*
X135947865Y-58192410D03*
D14*
X135947865Y-64142410D03*
D13*
X140947865Y-60392410D03*
D12*
X141447865Y-64142410D03*
D15*
X139222865Y-58192410D03*
X127672865Y-60392410D03*
%TD*%
D12*
%TO.C,S11*%
X148447865Y-69142410D03*
D13*
X148947865Y-65392410D03*
X153947865Y-63192410D03*
X153947865Y-63192410D03*
D14*
X153947865Y-69142410D03*
D13*
X158947865Y-65392410D03*
D12*
X159447865Y-69142410D03*
D15*
X157222865Y-63192410D03*
X145672865Y-65392410D03*
%TD*%
D12*
%TO.C,S15*%
X166447865Y-54142410D03*
D13*
X166947865Y-50392410D03*
X171947865Y-48192410D03*
X171947865Y-48192410D03*
D14*
X171947865Y-54142410D03*
D13*
X176947865Y-50392410D03*
D12*
X177447865Y-54142410D03*
D15*
X175222865Y-48192410D03*
X163672865Y-50392410D03*
%TD*%
D12*
%TO.C,S17*%
X162135273Y-110518905D03*
D13*
X163588807Y-107026093D03*
X168987838Y-106195151D03*
X168987838Y-106195151D03*
D14*
X167447865Y-111942410D03*
D13*
X173248066Y-109614283D03*
D12*
X172760457Y-113365915D03*
D23*
X172151245Y-107042784D03*
X160425400Y-106178461D03*
%TD*%
D12*
%TO.C,S3*%
X88679519Y-67471601D03*
D13*
X88520743Y-63691748D03*
X93062755Y-60656930D03*
X93062755Y-60656930D03*
D14*
X94095962Y-66516536D03*
D13*
X98368820Y-61955266D03*
D12*
X99512405Y-65561471D03*
D24*
X96288001Y-60088232D03*
X85295497Y-64260446D03*
%TD*%
D12*
%TO.C,S9*%
X130447865Y-47142410D03*
D13*
X130947865Y-43392410D03*
X135947865Y-41192410D03*
X135947865Y-41192410D03*
D14*
X135947865Y-47142410D03*
D13*
X140947865Y-43392410D03*
D12*
X141447865Y-47142410D03*
D15*
X139222865Y-41192410D03*
X127672865Y-43392410D03*
%TD*%
D12*
%TO.C,S5*%
X110408070Y-70327195D03*
D13*
X110579331Y-66547887D03*
X115368564Y-63920480D03*
X115368564Y-63920480D03*
D14*
X115887141Y-69847838D03*
D13*
X120541280Y-65676329D03*
D12*
X121366212Y-69368481D03*
D16*
X118631102Y-63635044D03*
X107316796Y-66833322D03*
%TD*%
D21*
%TO.C,AdamTech-MDJ004FS1*%
X198407865Y-76292410D03*
D25*
X195407865Y-79642410D03*
X192907865Y-79642410D03*
D26*
X195407865Y-81042410D03*
X192907865Y-81042410D03*
D21*
X199207865Y-83042410D03*
D27*
X192915865Y-85034410D03*
X195407865Y-85042410D03*
D25*
X195407865Y-86442410D03*
X192907865Y-86442410D03*
D21*
X198407865Y-89792410D03*
D28*
X195407865Y-84026410D03*
D29*
X195407865Y-82058410D03*
D28*
X192915865Y-84018410D03*
D29*
X192907865Y-82058410D03*
%TD*%
D12*
%TO.C,S7*%
X130447865Y-81142410D03*
D13*
X130947865Y-77392410D03*
X135947865Y-75192410D03*
X135947865Y-75192410D03*
D14*
X135947865Y-81142410D03*
D13*
X140947865Y-77392410D03*
D12*
X141447865Y-81142410D03*
D15*
X139222865Y-75192410D03*
X127672865Y-77392410D03*
%TD*%
D21*
%TO.C,MH4*%
X162947865Y-60642410D03*
%TD*%
D12*
%TO.C,S1*%
X94583557Y-100955065D03*
D13*
X94424781Y-97175212D03*
X98966793Y-94140394D03*
X98966793Y-94140394D03*
D14*
X100000000Y-100000000D03*
D13*
X104272858Y-95438730D03*
D12*
X105416443Y-99044935D03*
D24*
X102192039Y-93571696D03*
X91199535Y-97743910D03*
%TD*%
D12*
%TO.C,S4*%
X111889718Y-87262505D03*
D13*
X112060979Y-83483197D03*
X116850212Y-80855790D03*
X116850212Y-80855790D03*
D14*
X117368789Y-86783148D03*
D13*
X122022928Y-82611639D03*
D12*
X122847860Y-86303791D03*
D16*
X120112750Y-80570354D03*
X108798444Y-83768632D03*
%TD*%
D21*
%TO.C,MH3*%
X180947865Y-96642410D03*
%TD*%
D12*
%TO.C,S16*%
X141247865Y-109442410D03*
D13*
X141747865Y-105692410D03*
X146747865Y-103492410D03*
X146747865Y-103492410D03*
D14*
X146747865Y-109442410D03*
D13*
X151747865Y-105692410D03*
D12*
X152247865Y-109442410D03*
D15*
X150022865Y-103492410D03*
X138472865Y-105692410D03*
%TD*%
D12*
%TO.C,S2*%
X91631538Y-84213333D03*
D13*
X91472762Y-80433480D03*
X96014774Y-77398662D03*
X96014774Y-77398662D03*
D14*
X97047981Y-83258268D03*
D13*
X101320839Y-78696998D03*
D12*
X102464424Y-82303203D03*
D24*
X99240020Y-76829964D03*
X88247516Y-81002178D03*
%TD*%
D12*
%TO.C,S13*%
X166447865Y-88142410D03*
D13*
X166947865Y-84392410D03*
X171947865Y-82192410D03*
X171947865Y-82192410D03*
D14*
X171947865Y-88142410D03*
D13*
X176947865Y-84392410D03*
D12*
X177447865Y-88142410D03*
D15*
X175222865Y-82192410D03*
X163672865Y-84392410D03*
%TD*%
D30*
%TO.C,LED5*%
X142247865Y-99942410D03*
X142247865Y-98542410D03*
X136847865Y-98542410D03*
X136847865Y-99942410D03*
%TD*%
D31*
%TO.C,LED4*%
X186355903Y-108320724D03*
X187055903Y-107108288D03*
X182379365Y-104408288D03*
X181679365Y-105620724D03*
%TD*%
D30*
%TO.C,LED3*%
X181847865Y-78642410D03*
X181847865Y-77242410D03*
X176447865Y-77242410D03*
X176447865Y-78642410D03*
%TD*%
D31*
%TO.C,LED2*%
X146936134Y-56648628D03*
X147636134Y-55436192D03*
X142959596Y-52736192D03*
X142259596Y-53948628D03*
%TD*%
D32*
%TO.C,LED1*%
X106585396Y-74068721D03*
X107064224Y-72753152D03*
X101989884Y-70906243D03*
X101511056Y-72221812D03*
%TD*%
M02*
